<svg width="50" height="50" viewBox="0 0 50 50" fill="none" xmlns="http://www.w3.org/2000/svg">
<path d="M42.9688 7.8125H41.4062V6.25H45.3125C45.5197 6.25 45.7184 6.16769 45.8649 6.02118C46.0114 5.87466 46.0938 5.67595 46.0938 5.46875V2.34375C46.0938 2.13655 46.0114 1.93784 45.8649 1.79132C45.7184 1.64481 45.5197 1.5625 45.3125 1.5625H40.625C40.4178 1.5625 40.2191 1.64481 40.0726 1.79132C39.9261 1.93784 39.8438 2.13655 39.8438 2.34375V7.8125H28.125C26.6751 7.81415 25.2851 8.39086 24.2598 9.41609C23.2346 10.4413 22.6579 11.8314 22.6562 13.2812V23.4375H21.0938C20.8865 23.4375 20.6878 23.5198 20.5413 23.6663C20.3948 23.8128 20.3125 24.0115 20.3125 24.2188V27.3438C20.3125 27.551 20.3948 27.7497 20.5413 27.8962C20.6878 28.0427 20.8865 28.125 21.0938 28.125H30.4688V46.875H21.875V37.5H22.6562C22.8635 37.5 23.0622 37.4177 23.2087 37.2712C23.3552 37.1247 23.4375 36.926 23.4375 36.7188V32.0312C23.4375 31.824 23.3552 31.6253 23.2087 31.4788C23.0622 31.3323 22.8635 31.25 22.6562 31.25H18.7297C19.2467 30.5778 19.5284 29.7543 19.5312 28.9062C19.5336 28.0849 19.2762 27.2838 18.7959 26.6175C18.3156 25.9512 17.6369 25.4539 16.8568 25.1965C16.0768 24.9392 15.2354 24.9351 14.4529 25.1848C13.6704 25.4345 12.9868 25.9252 12.5 26.5867C12.1974 26.1681 11.8146 25.8139 11.3737 25.5448C10.9329 25.2757 10.4428 25.097 9.93223 25.0192C9.42161 24.9414 8.90062 24.966 8.39962 25.0917C7.89862 25.2173 7.42765 25.4414 7.01415 25.7509C6.60066 26.0605 6.25292 26.4492 5.99122 26.8945C5.72951 27.3398 5.55907 27.8327 5.48983 28.3446C5.4206 28.8564 5.45395 29.3769 5.58795 29.8758C5.72195 30.3746 5.95391 30.8417 6.27031 31.25H2.34375C2.13655 31.25 1.93784 31.3323 1.79132 31.4788C1.64481 31.6253 1.5625 31.824 1.5625 32.0312V36.7188C1.5625 36.926 1.64481 37.1247 1.79132 37.2712C1.93784 37.4177 2.13655 37.5 2.34375 37.5H3.125V47.6562C3.125 47.8635 3.20731 48.0622 3.35382 48.2087C3.50034 48.3552 3.69905 48.4375 3.90625 48.4375H47.6562C47.8635 48.4375 48.0622 48.3552 48.2087 48.2087C48.3552 48.0622 48.4375 47.8635 48.4375 47.6562C48.4375 47.449 48.3552 47.2503 48.2087 47.1038C48.0622 46.9573 47.8635 46.875 47.6562 46.875H35.9375V28.125H47.6562C47.8635 28.125 48.0622 28.0427 48.2087 27.8962C48.3552 27.7497 48.4375 27.551 48.4375 27.3438V13.2812C48.4358 11.8314 47.8591 10.4413 46.8339 9.41609C45.8087 8.39086 44.4186 7.81415 42.9688 7.8125V7.8125ZM44.5312 4.6875H41.4062V3.125H44.5312V4.6875ZM39.8438 9.375V12.6109C39.1073 12.8011 38.4655 13.2533 38.0386 13.8828C37.6117 14.5123 37.4291 15.2759 37.5249 16.0305C37.6207 16.785 37.9885 17.4787 38.5592 17.9815C39.1299 18.4843 39.8644 18.7617 40.625 18.7617C41.3856 18.7617 42.1201 18.4843 42.6908 17.9815C43.2615 17.4787 43.6293 16.785 43.7251 16.0305C43.8209 15.2759 43.6383 14.5123 43.2114 13.8828C42.7845 13.2533 42.1427 12.8011 41.4062 12.6109V9.375H42.9688C44.0044 9.37624 44.9972 9.78819 45.7295 10.5205C46.4618 11.2528 46.8738 12.2456 46.875 13.2812V23.4375H33.5938V13.2812C33.5938 12.553 33.448 11.8322 33.1649 11.1613C32.8818 10.4904 32.4671 9.88298 31.9453 9.375H39.8438ZM40.625 16.4062C40.8322 16.4062 41.0309 16.3239 41.1774 16.1774C41.3239 16.0309 41.4062 15.8322 41.4062 15.625V14.2797C41.7041 14.4517 41.9369 14.7171 42.0686 15.0349C42.2002 15.3527 42.2233 15.705 42.1343 16.0373C42.0452 16.3695 41.8491 16.6631 41.5762 16.8725C41.3033 17.0819 40.969 17.1954 40.625 17.1954C40.281 17.1954 39.9467 17.0819 39.6738 16.8725C39.4009 16.6631 39.2048 16.3695 39.1157 16.0373C39.0267 15.705 39.0498 15.3527 39.1814 15.0349C39.3131 14.7171 39.5459 14.4517 39.8438 14.2797V15.625C39.8438 15.8322 39.9261 16.0309 40.0726 16.1774C40.2191 16.3239 40.4178 16.4062 40.625 16.4062ZM24.2188 13.2812C24.2188 12.2452 24.6303 11.2517 25.3629 10.5191C26.0954 9.78655 27.089 9.375 28.125 9.375C29.161 9.375 30.1546 9.78655 30.8871 10.5191C31.6197 11.2517 32.0312 12.2452 32.0312 13.2812V23.4375H24.2188V13.2812ZM20.3125 46.875H14.8438V37.5H20.3125V46.875ZM21.875 35.9375H14.8438V32.8125H21.875V35.9375ZM15.625 26.5625C16.2466 26.5625 16.8427 26.8094 17.2823 27.249C17.7218 27.6885 17.9687 28.2846 17.9688 28.9062C17.9687 29.5279 17.7218 30.124 17.2823 30.5635C16.8427 31.0031 16.2466 31.25 15.625 31.25H13.2812V28.9062C13.2812 28.2846 13.5282 27.6885 13.9677 27.249C14.4073 26.8094 15.0034 26.5625 15.625 26.5625ZM7.03125 28.9062C7.03125 28.2846 7.27818 27.6885 7.71772 27.249C8.15726 26.8094 8.7534 26.5625 9.375 26.5625C9.9966 26.5625 10.5927 26.8094 11.0323 27.249C11.4718 27.6885 11.7187 28.2846 11.7188 28.9062V31.25H9.375C8.7534 31.25 8.15726 31.0031 7.71772 30.5635C7.27818 30.124 7.03125 29.5279 7.03125 28.9062ZM3.125 32.8125H10.1562V35.9375H3.125V32.8125ZM4.6875 37.5H10.1562V46.875H4.6875V37.5ZM11.7188 46.875V32.8125H13.2812V46.875H11.7188ZM34.375 46.875H32.0312V28.125H34.375V46.875ZM46.875 26.5625H21.875V25H46.875V26.5625Z" fill="#F5893E"/>
<path d="M30.4688 21.0938C30.4688 20.8865 30.3864 20.6878 30.2399 20.5413C30.0934 20.3948 29.8947 20.3125 29.6875 20.3125H26.5625C26.3553 20.3125 26.1566 20.3948 26.0101 20.5413C25.8636 20.6878 25.7812 20.8865 25.7812 21.0938C25.7812 21.301 25.8636 21.4997 26.0101 21.6462C26.1566 21.7927 26.3553 21.875 26.5625 21.875H29.6875C29.8947 21.875 30.0934 21.7927 30.2399 21.6462C30.3864 21.4997 30.4688 21.301 30.4688 21.0938Z" fill="#F5893E"/>
</svg>
