<svg width="50" height="50" viewBox="0 0 50 50" fill="none" xmlns="http://www.w3.org/2000/svg">
<path d="M49.8708 28.6553L47.3399 24.7829C46.2223 23.0718 44.3236 22.05 42.2596 22.05H35.7142V18.2834C35.7142 15.9837 33.8441 14.1136 31.5444 14.1136H19.2915C18.6039 10.5228 15.4432 7.79844 11.6548 7.79844C7.36509 7.79844 3.87555 11.2884 3.87555 15.5777C3.87555 18.2748 5.25656 20.654 7.34738 22.05H0.79382C0.35513 22.05 0 22.4051 0 22.8438C0 23.2825 0.35513 23.6376 0.79382 23.6376H8.73021V25.2248H5.55538C5.11714 25.2248 4.76201 25.5799 4.76201 26.0186C4.76201 26.4573 5.11714 26.812 5.55538 26.812H8.73021V28.3992H0.79382C0.35513 28.3992 0 28.7543 0 29.193C0 29.6317 0.35513 29.9868 0.79382 29.9868H8.73021V33.5018C7.33103 34.1189 6.3492 35.5149 6.3492 37.1398V37.9232C6.3492 38.3619 6.70478 38.717 7.14302 38.717H14.182C14.6335 40.6589 16.3746 42.1121 18.4522 42.1121C20.5303 42.1121 22.271 40.6589 22.7224 38.717H37.9917C38.4435 40.6589 40.1847 42.1121 42.2618 42.1121C44.339 42.1121 46.0806 40.6589 46.532 38.717H49.2064C49.6451 38.717 49.9998 38.3619 49.9998 37.9232V29.0894C49.9998 28.935 49.9548 28.7838 49.8708 28.6553V28.6553ZM5.46274 15.5777C5.46274 12.1635 8.24065 9.38563 11.6548 9.38563C15.0694 9.38563 17.8469 12.1635 17.8469 15.5777C17.8469 18.9919 15.0694 21.7698 11.6548 21.7698C8.24065 21.7698 5.46274 18.9919 5.46274 15.5777ZM10.3174 29.9868H11.9046C12.3433 29.9868 12.6984 29.6317 12.6984 29.193C12.6984 28.7543 12.3433 28.3992 11.9046 28.3992H10.3174V26.812H15.8732C16.3115 26.812 16.6666 26.4573 16.6666 26.0186C16.6666 25.5799 16.3115 25.2248 15.8732 25.2248H10.3174V23.6376H20.6348C21.073 23.6376 21.4286 23.2825 21.4286 22.8438C21.4286 22.4051 21.073 22.05 20.6348 22.05H15.9622C18.0208 20.6753 19.3864 18.3465 19.4282 15.7008H31.5448C32.9685 15.7008 34.127 16.8597 34.127 18.2834V33.1612H10.3274C10.3242 33.1612 10.321 33.1621 10.3174 33.1621V29.9868ZM34.127 37.1294H22.7946C22.6697 36.2166 22.2647 35.3937 21.6666 34.7484H34.127V37.1294ZM10.3274 34.7484H15.2379C14.6403 35.3937 14.2347 36.2166 14.1103 37.1294H7.93639C7.94184 35.816 9.01268 34.7484 10.3274 34.7484ZM18.4522 40.5249C16.9086 40.5249 15.6521 39.2688 15.6521 37.7247C15.6521 36.1812 16.9086 34.9246 18.4522 34.9246C19.9963 34.9246 21.2524 36.1812 21.2524 37.7247C21.2524 39.2688 19.9963 40.5249 18.4522 40.5249ZM42.2618 40.5249C40.7183 40.5249 39.4617 39.2688 39.4617 37.7247C39.4617 36.1812 40.7183 34.9246 42.2618 34.9246C43.8059 34.9246 45.062 36.1812 45.062 37.7247C45.062 39.2688 43.8059 40.5249 42.2618 40.5249ZM48.4126 37.1294H46.6042C46.3122 34.9918 44.4785 33.3374 42.2618 33.3374C40.0452 33.3374 38.2119 34.9918 37.9195 37.1294H35.7142V23.6376H42.2596C43.785 23.6376 45.1878 24.3901 46.0116 25.6508L48.4126 29.3256V37.1294Z" fill="#F5893E"/>
<path d="M43.5601 37.7247C43.5601 38.4418 42.9788 39.0231 42.2617 39.0231C41.5447 39.0231 40.9634 38.4418 40.9634 37.7247C40.9634 37.0077 41.5447 36.4264 42.2617 36.4264C42.9788 36.4264 43.5601 37.0077 43.5601 37.7247Z" fill="#F5893E"/>
<path d="M19.7506 37.7247C19.7506 38.4418 19.1693 39.0231 18.4522 39.0231C17.7356 39.0231 17.1543 38.4418 17.1543 37.7247C17.1543 37.0077 17.7356 36.4264 18.4522 36.4264C19.1693 36.4264 19.7506 37.0077 19.7506 37.7247Z" fill="#F5893E"/>
<path d="M12.6984 15.5777V12.1054C12.6984 11.6667 12.3433 11.312 11.9046 11.312C11.4663 11.312 11.1112 11.6667 11.1112 12.1054V15.3188L9.49133 17.5409C9.23293 17.8951 9.31058 18.391 9.66481 18.649C9.80649 18.7525 9.96998 18.802 10.1321 18.802C10.3769 18.802 10.6185 18.6889 10.7738 18.4755L12.5463 16.045C12.6448 15.9097 12.6984 15.7462 12.6984 15.5777Z" fill="#F5893E"/>
<path d="M41.9944 24.431H40.4762C40.0375 24.431 39.6824 24.7861 39.6824 25.2248V30.7802C39.6824 31.2189 40.0375 31.574 40.4762 31.574H45.8177C46.3154 31.574 46.7609 31.3165 47.0107 30.8864C47.2605 30.4564 47.2609 29.9414 47.0148 29.5122L45.1615 26.2684C44.5143 25.1358 43.3004 24.431 41.9944 24.431V24.431ZM41.27 29.9868V26.0186H41.9944C42.7323 26.0186 43.4176 26.416 43.7832 27.0563L45.4576 29.9868H41.27Z" fill="#F5893E"/>
</svg>
