<svg width="50" height="50" viewBox="0 0 50 50" fill="none" xmlns="http://www.w3.org/2000/svg">
<path d="M26.6584 32.9142H39.9875C40.4873 32.9142 40.8205 32.581 40.8205 32.0812V24.5835C40.8205 24.0837 40.4873 23.7505 39.9875 23.7505H26.6584C26.1585 23.7505 25.8253 24.0837 25.8253 24.5835V32.0812C25.8252 32.5809 26.1585 32.9142 26.6584 32.9142ZM27.4914 25.4166H39.1545V31.248H27.4914V25.4166Z" fill="#F5893E"/>
<path d="M4.16539 22.0842H10.83C11.3299 22.0842 11.6631 21.751 11.6631 21.2512C11.6631 20.7513 11.3299 20.4181 10.83 20.4181H4.16539C3.66555 20.4181 3.33235 20.7513 3.33235 21.2512C3.33235 21.751 3.66555 22.0842 4.16539 22.0842Z" fill="#F5893E"/>
<path d="M14.1623 22.0842H20.8269C21.3267 22.0842 21.6599 21.751 21.6599 21.2512C21.6599 20.7513 21.3267 20.4181 20.8269 20.4181H14.1623C13.6624 20.4181 13.3292 20.7513 13.3292 21.2512C13.3292 21.751 13.6624 22.0842 14.1623 22.0842Z" fill="#F5893E"/>
<path d="M4.16539 25.4166H14.9953C15.4952 25.4166 15.8283 25.0834 15.8283 24.5835C15.8283 24.0837 15.4952 23.7505 14.9953 23.7505H4.16539C3.66555 23.7505 3.33235 24.0837 3.33235 24.5835C3.33235 25.0834 3.66555 25.4166 4.16539 25.4166Z" fill="#F5893E"/>
<path d="M20.8268 23.7504H18.3275C17.8277 23.7504 17.4945 24.0836 17.4945 24.5834C17.4945 25.0833 17.8277 25.4165 18.3275 25.4165H20.8268C21.3266 25.4165 21.6598 25.0833 21.6598 24.5834C21.6598 24.0836 21.3266 23.7504 20.8268 23.7504Z" fill="#F5893E"/>
<path d="M49.2346 13.4203C48.6515 12.6705 47.9017 12.254 46.9853 12.1707L44.9859 11.9284V9.58811V7.92203C44.9859 6.0893 43.4864 4.58977 41.6537 4.58977H3.33226C1.49953 4.58967 0 6.0892 0 7.92203V9.58821V16.2528V34.5804C0 36.0851 1.01111 37.3645 2.38724 37.7745C2.34526 39.4597 3.62035 40.9227 5.33173 41.0784L43.8197 45.4103C43.903 45.4103 44.0696 45.4103 44.1529 45.4103C45.8191 45.4103 47.3186 44.1607 47.4852 42.5779L49.9844 15.8363C50.0677 15.0031 49.8177 14.0867 49.2346 13.4203ZM1.66618 10.4212H43.3199V12.5873V15.4197H1.66618V10.4212ZM3.33226 6.25585H41.6536C42.57 6.25585 43.3198 7.00561 43.3198 7.92203V8.75507H1.66618V7.92203C1.66618 7.00561 2.41594 6.25585 3.33226 6.25585ZM1.66618 34.5803V17.0858H43.3199V34.5803C43.3199 35.4967 42.5701 36.2465 41.6537 36.2465H3.41563H3.33236C2.41594 36.2465 1.66618 35.4967 1.66618 34.5803ZM48.3182 15.503L45.819 42.2446C45.7357 43.161 44.9026 43.8274 43.9863 43.7441L5.58156 39.4122C4.74852 39.3289 4.1653 38.6624 4.08203 37.9127H41.6536C43.4863 37.9127 44.9858 36.4131 44.9858 34.5804V16.2527V13.5036L46.9019 13.6702C47.3185 13.6702 47.735 13.9202 47.9849 14.2533C48.2349 14.5865 48.4016 15.0864 48.3182 15.503Z" fill="#F5893E"/>
</svg>
