<svg width="50" height="50" viewBox="0 0 50 50" fill="none" xmlns="http://www.w3.org/2000/svg">
<path d="M40.55 48.1445H9.45001C9.26871 48.1445 9.09484 48.0725 8.96664 47.9443C8.83844 47.8161 8.76642 47.6422 8.76642 47.4609V2.53906C8.76642 2.35776 8.83844 2.18389 8.96664 2.05569C9.09484 1.92749 9.26871 1.85547 9.45001 1.85547H40.55C40.7313 1.85547 40.9052 1.92749 41.0334 2.05569C41.1616 2.18389 41.2336 2.35776 41.2336 2.53906V47.4609C41.2336 47.6422 41.1616 47.8161 41.0334 47.9443C40.9052 48.0725 40.7313 48.1445 40.55 48.1445V48.1445ZM10.1336 46.7773H39.8664V3.22266H10.1336V46.7773Z" fill="#F5893E"/>
<path d="M37.0344 24.3164H12.9656C12.7843 24.3164 12.6105 24.2444 12.4823 24.1162C12.3541 23.988 12.282 23.8141 12.282 23.6328C12.282 23.4515 12.3541 23.2776 12.4823 23.1494C12.6105 23.0212 12.7843 22.9492 12.9656 22.9492H37.0344C37.2157 22.9492 37.3896 23.0212 37.5178 23.1494C37.646 23.2776 37.718 23.4515 37.718 23.6328C37.718 23.8141 37.646 23.988 37.5178 24.1162C37.3896 24.2444 37.2157 24.3164 37.0344 24.3164V24.3164Z" fill="#F5893E"/>
<path d="M37.0344 27.832H12.9656C12.7843 27.832 12.6105 27.76 12.4823 27.6318C12.3541 27.5036 12.282 27.3297 12.282 27.1484C12.282 26.9671 12.3541 26.7933 12.4823 26.6651C12.6105 26.5369 12.7843 26.4648 12.9656 26.4648H37.0344C37.2157 26.4648 37.3896 26.5369 37.5178 26.6651C37.646 26.7933 37.718 26.9671 37.718 27.1484C37.718 27.3297 37.646 27.5036 37.5178 27.6318C37.3896 27.76 37.2157 27.832 37.0344 27.832V27.832Z" fill="#F5893E"/>
<path d="M37.0344 20.8008H12.9656C12.7843 20.8008 12.6105 20.7288 12.4823 20.6006C12.3541 20.4724 12.282 20.2985 12.282 20.1172C12.282 19.9359 12.3541 19.762 12.4823 19.6338C12.6105 19.5056 12.7843 19.4336 12.9656 19.4336H37.0344C37.2157 19.4336 37.3896 19.5056 37.5178 19.6338C37.646 19.762 37.718 19.9359 37.718 20.1172C37.718 20.2985 37.646 20.4724 37.5178 20.6006C37.3896 20.7288 37.2157 20.8008 37.0344 20.8008V20.8008Z" fill="#F5893E"/>
<path d="M37.0344 17.2852H12.9656C12.7843 17.2852 12.6105 17.2131 12.4823 17.0849C12.3541 16.9567 12.282 16.7829 12.282 16.6016C12.282 16.4203 12.3541 16.2464 12.4823 16.1182C12.6105 15.99 12.7843 15.918 12.9656 15.918H37.0344C37.2157 15.918 37.3896 15.99 37.5178 16.1182C37.646 16.2464 37.718 16.4203 37.718 16.6016C37.718 16.7829 37.646 16.9567 37.5178 17.0849C37.3896 17.2131 37.2157 17.2852 37.0344 17.2852V17.2852Z" fill="#F5893E"/>
<path d="M37.0344 13.7695H12.9656C12.7843 13.7695 12.6105 13.6975 12.4823 13.5693C12.3541 13.4411 12.282 13.2672 12.282 13.0859C12.282 12.9046 12.3541 12.7308 12.4823 12.6026C12.6105 12.4744 12.7843 12.4023 12.9656 12.4023H37.0344C37.2157 12.4023 37.3896 12.4744 37.5178 12.6026C37.646 12.7308 37.718 12.9046 37.718 13.0859C37.718 13.2672 37.646 13.4411 37.5178 13.5693C37.3896 13.6975 37.2157 13.7695 37.0344 13.7695V13.7695Z" fill="#F5893E"/>
<path d="M37.0344 10.2539H12.9656C12.7843 10.2539 12.6105 10.1819 12.4823 10.0537C12.3541 9.92549 12.282 9.75161 12.282 9.57031V6.05469C12.282 5.87339 12.3541 5.69951 12.4823 5.57131C12.6105 5.44311 12.7843 5.37109 12.9656 5.37109H37.0344C37.2157 5.37109 37.3896 5.44311 37.5178 5.57131C37.646 5.69951 37.718 5.87339 37.718 6.05469V9.57031C37.718 9.75161 37.646 9.92549 37.5178 10.0537C37.3896 10.1819 37.2157 10.2539 37.0344 10.2539V10.2539ZM13.6492 8.88672H36.3508V6.73828H13.6492V8.88672Z" fill="#F5893E"/>
<path d="M37.0344 31.3477H12.9656C12.7843 31.3477 12.6105 31.2756 12.4823 31.1474C12.3541 31.0192 12.282 30.8454 12.282 30.6641C12.282 30.4828 12.3541 30.3089 12.4823 30.1807C12.6105 30.0525 12.7843 29.9805 12.9656 29.9805H37.0344C37.2157 29.9805 37.3896 30.0525 37.5178 30.1807C37.646 30.3089 37.718 30.4828 37.718 30.6641C37.718 30.8454 37.646 31.0192 37.5178 31.1474C37.3896 31.2756 37.2157 31.3477 37.0344 31.3477V31.3477Z" fill="#F5893E"/>
<path d="M22.0656 41.8035H12.9641C12.7827 41.8035 12.6089 41.7315 12.4807 41.6033C12.3525 41.4751 12.2805 41.3012 12.2805 41.1199C12.2805 40.9386 12.3525 40.7647 12.4807 40.6365C12.6089 40.5083 12.7827 40.4363 12.9641 40.4363H22.0656C22.2469 40.4363 22.4208 40.5083 22.549 40.6365C22.6772 40.7647 22.7492 40.9386 22.7492 41.1199C22.7492 41.3012 22.6772 41.4751 22.549 41.6033C22.4208 41.7315 22.2469 41.8035 22.0656 41.8035V41.8035Z" fill="#F5893E"/>
<path d="M33.1281 44.6289C32.0662 44.6289 31.0371 44.2607 30.2163 43.587C29.3954 42.9134 28.8335 41.9759 28.6264 40.9344C28.4192 39.8929 28.5796 38.8118 29.0802 37.8753C29.5808 36.9388 30.3907 36.2049 31.3717 35.7985C32.3528 35.3922 33.4444 35.3386 34.4606 35.6469C35.4767 35.9552 36.3546 36.6063 36.9445 37.4893C37.5344 38.3722 37.7999 39.4324 37.6958 40.4892C37.5916 41.546 37.1243 42.5339 36.3734 43.2848C35.9482 43.7122 35.4424 44.0511 34.8853 44.2819C34.3283 44.5126 33.731 44.6305 33.1281 44.6289V44.6289ZM33.1281 36.8164C32.3829 36.817 31.6609 37.0759 31.0853 37.5491C30.5096 38.0223 30.1158 38.6804 29.9709 39.4114C29.8261 40.1423 29.9391 40.9009 30.2909 41.5579C30.6426 42.2148 31.2112 42.7295 31.8999 43.0142C32.5885 43.2989 33.3546 43.3361 34.0675 43.1193C34.7805 42.9025 35.3963 42.4453 35.8099 41.8254C36.2235 41.2056 36.4094 40.4615 36.336 39.7199C36.2625 38.9784 35.9342 38.2852 35.407 37.7586C35.1078 37.4595 34.7524 37.2224 34.3613 37.061C33.9703 36.8996 33.5511 36.817 33.1281 36.818V36.8164Z" fill="#F5893E"/>
<path d="M33.128 41.8035C32.9573 41.8036 32.7927 41.7398 32.6667 41.6246L31.3971 40.4649C31.2633 40.3426 31.1835 40.1721 31.1753 39.991C31.1671 39.8098 31.2313 39.6329 31.3536 39.499C31.4759 39.3652 31.6463 39.2854 31.8275 39.2772C32.0086 39.2691 32.1855 39.3332 32.3194 39.4555L33.1178 40.1848L34.7557 38.6223C34.8869 38.4971 35.0625 38.4292 35.2438 38.4335C35.425 38.4378 35.5972 38.5139 35.7223 38.6451C35.8475 38.7763 35.9154 38.9519 35.9111 39.1332C35.9068 39.3144 35.8307 39.4866 35.6995 39.6117L33.5999 41.6137C33.4729 41.7353 33.3038 41.8033 33.128 41.8035V41.8035Z" fill="#F5893E"/>
</svg>
