<svg width="50" height="50" viewBox="0 0 50 50" fill="none" xmlns="http://www.w3.org/2000/svg">
<path d="M47.6562 10.9375H40.5391C41.0953 10.3947 41.5292 9.73941 41.812 9.01549C42.0948 8.29157 42.2198 7.51565 42.1788 6.73955C42.1378 5.96344 41.9317 5.20501 41.5743 4.51491C41.2168 3.82481 40.7162 3.21892 40.1059 2.7377C39.4957 2.25648 38.7897 1.911 38.0353 1.72434C37.2808 1.53769 36.4953 1.51414 35.731 1.65528C34.9667 1.79643 34.2414 2.09901 33.6034 2.54281C32.9654 2.98662 32.4294 3.56145 32.0312 4.22891C31.6331 3.56145 31.0971 2.98662 30.4591 2.54281C29.8211 2.09901 29.0958 1.79643 28.3315 1.65528C27.5672 1.51414 26.7817 1.53769 26.0272 1.72434C25.2728 1.911 24.5668 2.25648 23.9566 2.7377C23.3463 3.21892 22.8457 3.82481 22.4882 4.51491C22.1308 5.20501 21.9247 5.96344 21.8837 6.73955C21.8427 7.51565 21.9677 8.29157 22.2505 9.01549C22.5333 9.73941 22.9672 10.3947 23.5234 10.9375H16.4062C16.199 10.9375 16.0003 11.0198 15.8538 11.1663C15.7073 11.3128 15.625 11.5115 15.625 11.7187V19.5313C15.625 19.7385 15.7073 19.9372 15.8538 20.0837C16.0003 20.2302 16.199 20.3125 16.4062 20.3125H17.9688V34.3508L15.625 34.9367V33.5938C15.625 33.3866 15.5427 33.1878 15.3962 33.0413C15.2497 32.8948 15.051 32.8125 14.8438 32.8125H8.59375C8.38655 32.8125 8.18784 32.8948 8.04132 33.0413C7.89481 33.1878 7.8125 33.3866 7.8125 33.5938V34.375H2.34375C2.13655 34.375 1.93784 34.4573 1.79132 34.6038C1.64481 34.7503 1.5625 34.9491 1.5625 35.1563V46.0938C1.5625 46.301 1.64481 46.4997 1.79132 46.6462C1.93784 46.7927 2.13655 46.875 2.34375 46.875H7.8125V47.6563C7.8125 47.8635 7.89481 48.0622 8.04132 48.2087C8.18784 48.3552 8.38655 48.4375 8.59375 48.4375H14.8438C15.051 48.4375 15.2497 48.3552 15.3962 48.2087C15.5427 48.0622 15.625 47.8635 15.625 47.6563V46.5766L16.6297 47.0789C17.3894 47.4579 18.2267 47.6555 19.0758 47.6563H30.7758C31.7358 47.6562 32.6788 47.4035 33.5102 46.9234L46.6352 39.3453C47.1519 39.0455 47.5717 38.6037 47.8448 38.0724C48.1179 37.5411 48.2327 36.9425 48.1757 36.3478C48.1187 35.7532 47.8922 35.1874 47.5232 34.7176C47.1541 34.2478 46.658 33.8938 46.0938 33.6977V20.3125H47.6562C47.8635 20.3125 48.0622 20.2302 48.2087 20.0837C48.3552 19.9372 48.4375 19.7385 48.4375 19.5313V11.7187C48.4375 11.5115 48.3552 11.3128 48.2087 11.1663C48.0622 11.0198 47.8635 10.9375 47.6562 10.9375ZM36.7188 3.125C37.7548 3.125 38.7483 3.53655 39.4809 4.26911C40.2134 5.00168 40.625 5.99525 40.625 7.03125C40.625 8.06725 40.2134 9.06082 39.4809 9.79339C38.7483 10.5259 37.7548 10.9375 36.7188 10.9375H32.8125V7.03125C32.8137 5.99563 33.2257 5.00278 33.958 4.27048C34.6903 3.53819 35.6831 3.12624 36.7188 3.125V3.125ZM33.5938 36.9156L30.4688 36.0781V12.5H33.5938V36.9156ZM23.4375 7.03125C23.4375 5.99525 23.8491 5.00168 24.5816 4.26911C25.3142 3.53655 26.3077 3.125 27.3438 3.125C28.3798 3.125 29.3733 3.53655 30.1059 4.26911C30.8384 5.00168 31.25 5.99525 31.25 7.03125V10.9375H27.3438C26.3081 10.9363 25.3153 10.5243 24.583 9.79202C23.8507 9.05972 23.4387 8.06687 23.4375 7.03125V7.03125ZM17.1875 12.5H28.9062V18.75H17.1875V12.5ZM19.5312 20.3125H28.9062V35.6594L22.4688 33.9352C21.5715 33.6946 20.6278 33.6865 19.7266 33.9117L19.5312 33.9602V20.3125ZM3.125 45.3125V35.9375H7.8125V45.3125H3.125ZM14.0625 46.875H9.375V34.375H14.0625V46.875ZM46.4172 35.8594C46.6238 36.2181 46.6802 36.644 46.5743 37.0442C46.4683 37.4444 46.2086 37.7865 45.8516 37.9961L32.7266 45.5742C32.1327 45.9171 31.4591 46.0976 30.7734 46.0977H19.0758C18.4692 46.0967 17.8711 45.9555 17.3281 45.6852L15.625 44.8297V36.5484L20.1055 35.4281C20.7492 35.2675 21.4231 35.2731 22.0641 35.4445L33.7203 38.5695C33.9213 38.6201 34.1102 38.7101 34.2761 38.8344C34.442 38.9586 34.5815 39.1146 34.6865 39.2933C34.7915 39.472 34.8598 39.6698 34.8877 39.8752C34.9155 40.0806 34.9021 40.2894 34.8485 40.4896C34.7948 40.6898 34.7018 40.8773 34.575 41.0412C34.4481 41.2051 34.2899 41.3421 34.1096 41.4443C33.9293 41.5465 33.7305 41.6117 33.5247 41.6363C33.3189 41.6609 33.1102 41.6443 32.9109 41.5875L23.5938 39.0891C23.394 39.0366 23.1815 39.0654 23.0029 39.1692C22.8243 39.2729 22.694 39.4432 22.6406 39.6427C22.5872 39.8423 22.615 40.0549 22.718 40.234C22.8209 40.4131 22.9905 40.5441 23.1898 40.5984L32.5063 43.0984C32.7717 43.1697 33.0454 43.2059 33.3203 43.2063C33.7518 43.2095 34.1791 43.1223 34.5748 42.9503C34.9705 42.7782 35.3257 42.5251 35.6176 42.2074C35.9095 41.8896 36.1315 41.5142 36.2693 41.1053C36.4072 40.6964 36.4578 40.2632 36.418 39.8336L44.2867 35.2906C44.6465 35.0917 45.0693 35.0399 45.4665 35.1459C45.8637 35.2519 46.2044 35.5076 46.4172 35.8594V35.8594ZM44.5312 33.5672C44.1715 33.6287 43.8251 33.7524 43.5078 33.9328L35.8898 38.3305C35.6911 38.0337 35.443 37.7731 35.1562 37.5602V20.3125H44.5312V33.5672ZM46.875 18.75H35.1562V12.5H46.875V18.75Z" fill="#F5893E"/>
<path d="M11.7188 45.3125C11.926 45.3125 12.1247 45.2302 12.2712 45.0837C12.4177 44.9372 12.5 44.7385 12.5 44.5312V43.75C12.5 43.5428 12.4177 43.3441 12.2712 43.1976C12.1247 43.0511 11.926 42.9688 11.7188 42.9688C11.5115 42.9688 11.3128 43.0511 11.1663 43.1976C11.0198 43.3441 10.9375 43.5428 10.9375 43.75V44.5312C10.9375 44.7385 11.0198 44.9372 11.1663 45.0837C11.3128 45.2302 11.5115 45.3125 11.7188 45.3125Z" fill="#F5893E"/>
</svg>
