<svg width="18" height="17" viewBox="0 0 512 440" fill="none" xmlns="http://www.w3.org/2000/svg">
<path d="M475.366 35.949C451.191 12.343 417.791 0.544998 375.151 0.544998C363.351 0.544998 351.308 2.591 339.034 6.681C326.755 10.774 315.332 16.296 304.778 23.243C294.21 30.188 285.128 36.71 277.509 42.799C269.899 48.89 262.664 55.363 255.813 62.213C248.959 55.363 241.726 48.89 234.115 42.799C226.499 36.71 217.413 30.192 206.847 23.243C196.283 16.293 184.862 10.775 172.586 6.681C160.311 2.592 148.27 0.544998 136.47 0.544998C93.833 0.544998 60.431 12.346 36.259 35.949C12.087 59.55 0 92.286 0 134.16C0 146.913 2.24 160.051 6.711 173.558C11.182 187.072 16.277 198.589 21.986 208.104C27.694 217.618 34.167 226.896 41.4 235.938C48.633 244.979 53.919 251.21 57.246 254.636C60.576 258.062 63.194 260.539 65.097 262.063L243.25 433.938C246.677 437.364 250.864 439.082 255.812 439.082C260.76 439.082 264.95 437.364 268.375 433.938L446.245 262.628C489.833 219.048 511.625 176.222 511.625 134.156C511.626 92.279 499.54 59.546 475.366 35.949ZM421.405 235.795L255.813 395.391L89.938 235.507C54.344 199.922 36.55 166.133 36.55 134.156C36.55 118.741 38.596 105.13 42.686 93.332C46.779 81.532 52.013 72.155 58.389 65.208C64.766 58.259 72.521 52.601 81.657 48.22C90.798 43.843 99.743 40.892 108.497 39.37C117.251 37.85 126.576 37.089 136.475 37.089C146.371 37.089 157.032 39.513 168.452 44.368C179.87 49.221 190.386 55.312 199.997 62.639C209.61 69.971 217.842 76.822 224.697 83.196C231.548 89.576 237.256 95.425 241.825 100.755C245.249 104.944 249.916 107.038 255.814 107.038C261.714 107.038 266.376 104.944 269.804 100.755C274.372 95.425 280.084 89.573 286.935 83.196C293.787 76.822 302.02 69.974 311.629 62.639C321.242 55.312 331.758 49.221 343.182 44.368C354.598 39.514 365.262 37.089 375.159 37.089C385.056 37.089 394.378 37.85 403.136 39.37C411.893 40.891 420.838 43.843 429.976 48.22C439.113 52.6 446.868 58.262 453.243 65.208C459.619 72.155 464.855 81.532 468.948 93.332C473.034 105.13 475.08 118.741 475.08 134.156C475.078 166.133 457.19 200.016 421.405 235.795Z" fill="#F72828"/>
</svg>
