<svg width="18" height="17" viewBox="0 0 18 17" fill="none" xmlns="http://www.w3.org/2000/svg">
<mask id="path-1-outside-1" maskUnits="userSpaceOnUse" x="-0.5" y="0" width="19" height="17" fill="black">
<rect fill="white" x="-0.5" width="19" height="17"/>
<path fill-rule="evenodd" clip-rule="evenodd" d="M16.2187 8.62952C16.218 8.63024 16.218 8.63131 16.2176 8.63167L9.98915 15.5458C9.72844 15.838 9.37665 15.9998 8.99952 15.9998C8.99987 15.9998 8.99916 15.9998 8.99952 15.9998C8.62274 15.9998 8.27024 15.8376 8.00918 15.5444L1.78284 8.63167C1.78213 8.63095 1.78177 8.63024 1.78142 8.62952C0.0689425 6.88241 0.0725139 4.05245 1.79427 2.31105C2.63069 1.46571 3.74281 1 4.92601 1C6.10885 1 7.22133 1.46571 8.05775 2.31105C8.05918 2.31248 8.05953 2.31427 8.0606 2.31534C8.06203 2.31677 8.06382 2.31712 8.06525 2.31855L8.99952 3.31996L9.93486 2.31855C9.93629 2.31712 9.93808 2.31677 9.9395 2.31534C9.94058 2.31391 9.94093 2.31248 9.94236 2.31105C10.7788 1.46571 11.8913 1 13.0741 1C14.2573 1 15.3694 1.46571 16.2062 2.31105C17.9262 4.05245 17.9297 6.88277 16.2187 8.62952ZM15.7041 2.81533C15.0019 2.10534 14.0677 1.71427 13.0741 1.71427C12.0834 1.71427 11.1516 2.10355 10.4495 2.81033L9.25773 4.08602C9.25523 4.08852 9.25166 4.08959 9.24916 4.09209C9.2463 4.09495 9.24523 4.09852 9.24237 4.10138C9.22094 4.12174 9.19487 4.13317 9.17023 4.14709C9.15737 4.15459 9.1463 4.16567 9.13273 4.17102C9.08987 4.18852 9.04487 4.19816 8.99952 4.19816C8.95416 4.19816 8.90916 4.18852 8.86631 4.17102C8.85274 4.16567 8.84202 4.15459 8.82881 4.14745C8.80416 4.13352 8.77845 4.12174 8.75667 4.10138C8.75381 4.09852 8.75274 4.09495 8.75024 4.09209C8.74738 4.08959 8.74416 4.08852 8.74131 4.08602L7.55383 2.81319C6.85134 2.10463 5.91849 1.71427 4.92601 1.71427C3.93245 1.71427 2.99854 2.10534 2.29569 2.81533C0.844645 4.28352 0.844645 6.6717 2.29569 8.13917C2.29784 8.14132 2.29855 8.14453 2.30069 8.14667C2.30248 8.14882 2.30534 8.14917 2.30712 8.15167L8.53488 15.0659C8.66167 15.208 8.82595 15.2851 8.99916 15.2851C9.17273 15.2851 9.33773 15.208 9.46344 15.0669L15.693 8.15167C15.6948 8.14953 15.6973 8.14882 15.6991 8.14703C15.7012 8.14453 15.7019 8.14167 15.7041 8.13953C17.154 6.6717 17.154 4.28352 15.7041 2.81533Z"/>
</mask>
<path fill-rule="evenodd" clip-rule="evenodd" d="M16.2187 8.62952C16.218 8.63024 16.218 8.63131 16.2176 8.63167L9.98915 15.5458C9.72844 15.838 9.37665 15.9998 8.99952 15.9998C8.99987 15.9998 8.99916 15.9998 8.99952 15.9998C8.62274 15.9998 8.27024 15.8376 8.00918 15.5444L1.78284 8.63167C1.78213 8.63095 1.78177 8.63024 1.78142 8.62952C0.0689425 6.88241 0.0725139 4.05245 1.79427 2.31105C2.63069 1.46571 3.74281 1 4.92601 1C6.10885 1 7.22133 1.46571 8.05775 2.31105C8.05918 2.31248 8.05953 2.31427 8.0606 2.31534C8.06203 2.31677 8.06382 2.31712 8.06525 2.31855L8.99952 3.31996L9.93486 2.31855C9.93629 2.31712 9.93808 2.31677 9.9395 2.31534C9.94058 2.31391 9.94093 2.31248 9.94236 2.31105C10.7788 1.46571 11.8913 1 13.0741 1C14.2573 1 15.3694 1.46571 16.2062 2.31105C17.9262 4.05245 17.9297 6.88277 16.2187 8.62952ZM15.7041 2.81533C15.0019 2.10534 14.0677 1.71427 13.0741 1.71427C12.0834 1.71427 11.1516 2.10355 10.4495 2.81033L9.25773 4.08602C9.25523 4.08852 9.25166 4.08959 9.24916 4.09209C9.2463 4.09495 9.24523 4.09852 9.24237 4.10138C9.22094 4.12174 9.19487 4.13317 9.17023 4.14709C9.15737 4.15459 9.1463 4.16567 9.13273 4.17102C9.08987 4.18852 9.04487 4.19816 8.99952 4.19816C8.95416 4.19816 8.90916 4.18852 8.86631 4.17102C8.85274 4.16567 8.84202 4.15459 8.82881 4.14745C8.80416 4.13352 8.77845 4.12174 8.75667 4.10138C8.75381 4.09852 8.75274 4.09495 8.75024 4.09209C8.74738 4.08959 8.74416 4.08852 8.74131 4.08602L7.55383 2.81319C6.85134 2.10463 5.91849 1.71427 4.92601 1.71427C3.93245 1.71427 2.99854 2.10534 2.29569 2.81533C0.844645 4.28352 0.844645 6.6717 2.29569 8.13917C2.29784 8.14132 2.29855 8.14453 2.30069 8.14667C2.30248 8.14882 2.30534 8.14917 2.30712 8.15167L8.53488 15.0659C8.66167 15.208 8.82595 15.2851 8.99916 15.2851C9.17273 15.2851 9.33773 15.208 9.46344 15.0669L15.693 8.15167C15.6948 8.14953 15.6973 8.14882 15.6991 8.14703C15.7012 8.14453 15.7019 8.14167 15.7041 8.13953C17.154 6.6717 17.154 4.28352 15.7041 2.81533Z" fill="#515855"/>
<path d="M16.2187 8.62952L16.2894 8.70024L16.2901 8.6995L16.2187 8.62952ZM16.2176 8.63167L16.1468 8.56086L16.1433 8.56474L16.2176 8.63167ZM9.98915 15.5458L9.91485 15.4789L9.91454 15.4793L9.98915 15.5458ZM8.00918 15.5444L8.08386 15.4779L8.08348 15.4775L8.00918 15.5444ZM1.78284 8.63167L1.85725 8.56465L1.85356 8.56096L1.78284 8.63167ZM1.78142 8.62952L1.87086 8.5848L1.86383 8.57075L1.85283 8.55952L1.78142 8.62952ZM1.79427 2.31105L1.72319 2.24072L1.72316 2.24074L1.79427 2.31105ZM8.05775 2.31105L7.98666 2.38139L7.98704 2.38176L8.05775 2.31105ZM8.0606 2.31534L8.13131 2.24463L8.0606 2.31534ZM8.06525 2.31855L8.13841 2.25029L8.13596 2.24784L8.06525 2.31855ZM8.99952 3.31996L8.9264 3.38818L8.99948 3.46651L9.0726 3.38822L8.99952 3.31996ZM9.93486 2.31855L9.86411 2.2478L9.86178 2.25029L9.93486 2.31855ZM9.9395 2.31534L10.0102 2.38605L10.0152 2.38102L10.0195 2.37534L9.9395 2.31534ZM9.94236 2.31105L10.0131 2.38176L10.0134 2.38139L9.94236 2.31105ZM16.2062 2.31105L16.2773 2.24078L16.2773 2.2407L16.2062 2.31105ZM15.7041 2.81533L15.7752 2.74506L15.7752 2.74501L15.7041 2.81533ZM10.4495 2.81033L10.3785 2.73982L10.3764 2.74206L10.4495 2.81033ZM9.25773 4.08602L9.32848 4.15678L9.3308 4.15429L9.25773 4.08602ZM9.24916 4.09209L9.17845 4.02138L9.24916 4.09209ZM9.24237 4.10138L9.31127 4.1739L9.31308 4.17209L9.24237 4.10138ZM9.17023 4.14709L9.12102 4.06003L9.11984 4.06072L9.17023 4.14709ZM9.13273 4.17102L9.09601 4.078L9.09493 4.07844L9.13273 4.17102ZM8.86631 4.17102L8.90411 4.07844L8.90302 4.07801L8.86631 4.17102ZM8.82881 4.14745L8.77959 4.23452L8.78126 4.23542L8.82881 4.14745ZM8.75667 4.10138L8.68591 4.17213L8.68839 4.17445L8.75667 4.10138ZM8.75024 4.09209L8.82617 4.02566L8.81609 4.01684L8.75024 4.09209ZM8.74131 4.08602L8.66781 4.15459L8.67546 4.16128L8.74131 4.08602ZM7.55383 2.81319L7.62698 2.74494L7.62484 2.74278L7.55383 2.81319ZM2.29569 2.81533L2.22463 2.74498L2.22457 2.74503L2.29569 2.81533ZM2.29569 8.13917L2.22459 8.20949L2.22498 8.20989L2.29569 8.13917ZM2.30069 8.14667L2.37783 8.08239L2.3714 8.07596L2.30069 8.14667ZM2.30712 8.15167L2.22523 8.21017L2.23282 8.2186L2.30712 8.15167ZM8.53488 15.0659L8.60951 14.9993L8.60919 14.9989L8.53488 15.0659ZM9.46344 15.0669L9.38914 15L9.38878 15.0004L9.46344 15.0669ZM15.693 8.15167L15.7673 8.21866L15.7698 8.21569L15.693 8.15167ZM15.6991 8.14703L15.77 8.21795L15.775 8.21211L15.6991 8.14703ZM15.7041 8.13953L15.7748 8.21024L15.7752 8.20981L15.7041 8.13953ZM16.148 8.55881C16.1389 8.56792 16.133 8.5772 16.1293 8.58438C16.1258 8.59126 16.1238 8.59704 16.1232 8.59903C16.123 8.59966 16.1225 8.60115 16.1228 8.60018C16.1229 8.59999 16.1235 8.59811 16.1244 8.59575C16.1252 8.59343 16.1271 8.58885 16.1301 8.58338C16.1331 8.57795 16.1383 8.56954 16.1469 8.56096L16.2883 8.70238C16.297 8.69371 16.3023 8.68518 16.3054 8.67963C16.3085 8.67402 16.3104 8.66929 16.3113 8.66682C16.3123 8.66429 16.3129 8.66224 16.3131 8.66186C16.3134 8.66071 16.313 8.662 16.3129 8.66243C16.3123 8.66402 16.3105 8.66937 16.3072 8.67584C16.3037 8.6826 16.2982 8.69148 16.2894 8.70023L16.148 8.55881ZM16.1433 8.56474L9.91485 15.4789L10.0634 15.6128L16.2919 8.6986L16.1433 8.56474ZM9.91454 15.4793C9.67189 15.7512 9.34683 15.8998 8.99952 15.8998V16.0998C9.40648 16.0998 9.78498 15.9248 10.0638 15.6124L9.91454 15.4793ZM8.99952 15.8998C8.99952 15.8998 8.99952 15.8998 8.99952 15.8998C8.99951 15.8998 8.99951 15.8998 8.99951 15.8998C8.99951 15.8998 8.99951 15.8998 8.99951 15.8998C8.99951 15.8998 8.99951 15.8998 8.99951 15.8998C8.99951 15.8998 8.99951 15.8998 8.99951 15.8998C8.99951 15.8998 8.99951 15.8998 8.99951 15.8998C8.9995 15.8998 8.9995 15.8998 8.9995 15.8998C8.9995 15.8998 8.9995 15.8998 8.9995 15.8998C8.9995 15.8998 8.9995 15.8998 8.9995 15.8998C8.9995 15.8998 8.9995 15.8998 8.9995 15.8998C8.9995 15.8998 8.9995 15.8998 8.9995 15.8998C8.9995 15.8998 8.99949 15.8998 8.99949 15.8998C8.99949 15.8998 8.99949 15.8998 8.99949 15.8998C8.99949 15.8998 8.99949 15.8998 8.99949 15.8998C8.99949 15.8998 8.99949 15.8998 8.99949 15.8998C8.99949 15.8998 8.99949 15.8998 8.99949 15.8998C8.99949 15.8998 8.99949 15.8998 8.99949 15.8998C8.99948 15.8998 8.99948 15.8998 8.99948 15.8998C8.99948 15.8998 8.99948 15.8998 8.99948 15.8998C8.99948 15.8998 8.99948 15.8998 8.99948 15.8998C8.99948 15.8998 8.99948 15.8998 8.99948 15.8998C8.99948 15.8998 8.99948 15.8998 8.99948 15.8998C8.99948 15.8998 8.99948 15.8998 8.99948 15.8998C8.99948 15.8998 8.99947 15.8998 8.99947 15.8998C8.99947 15.8998 8.99947 15.8998 8.99947 15.8998C8.99947 15.8998 8.99947 15.8998 8.99947 15.8998C8.99947 15.8998 8.99947 15.8998 8.99947 15.8998C8.99947 15.8998 8.99947 15.8998 8.99947 15.8998C8.99947 15.8998 8.99947 15.8998 8.99947 15.8998C8.99947 15.8998 8.99947 15.8998 8.99947 15.8998C8.99946 15.8998 8.99946 15.8998 8.99946 15.8998C8.99946 15.8998 8.99946 15.8998 8.99946 15.8998C8.99946 15.8998 8.99946 15.8998 8.99946 15.8998C8.99946 15.8998 8.99946 15.8998 8.99946 15.8998C8.99946 15.8998 8.99946 15.8998 8.99946 15.8998C8.99946 15.8998 8.99946 15.8998 8.99946 15.8998C8.99946 15.8998 8.99946 15.8998 8.99946 15.8998C8.99946 15.8998 8.99946 15.8998 8.99945 15.8998C8.99945 15.8998 8.99945 15.8998 8.99945 15.8998C8.99945 15.8998 8.99945 15.8998 8.99945 15.8998C8.99945 15.8998 8.99945 15.8998 8.99945 15.8998C8.99945 15.8998 8.99945 15.8998 8.99945 15.8998C8.99945 15.8998 8.99945 15.8998 8.99945 15.8998C8.99945 15.8998 8.99945 15.8998 8.99945 15.8998C8.99945 15.8998 8.99945 15.8998 8.99945 15.8998C8.99945 15.8998 8.99945 15.8998 8.99945 15.8998C8.99945 15.8998 8.99944 15.8998 8.99944 15.8998C8.99944 15.8998 8.99944 15.8998 8.99944 15.8998C8.99944 15.8998 8.99944 15.8998 8.99944 15.8998C8.99944 15.8998 8.99944 15.8998 8.99944 15.8998C8.99944 15.8998 8.99944 15.8998 8.99944 15.8998C8.99944 15.8998 8.99944 15.8998 8.99944 15.8998C8.99944 15.8998 8.99944 15.8998 8.99944 15.8998C8.99944 15.8998 8.99944 15.8998 8.99944 15.8998C8.99944 15.8998 8.99944 15.8998 8.99944 15.8998C8.99944 15.8998 8.99944 15.8998 8.99944 15.8998C8.99944 15.8998 8.99944 15.8998 8.99944 15.8998C8.99943 15.8998 8.99943 15.8998 8.99943 15.8998C8.99943 15.8998 8.99943 15.8998 8.99943 15.8998C8.99943 15.8998 8.99943 15.8998 8.99943 15.8998C8.99943 15.8998 8.99943 15.8998 8.99943 15.8998C8.99943 15.8998 8.99943 15.8998 8.99943 15.8998C8.99943 15.8998 8.99943 15.8998 8.99943 15.8998C8.99943 15.8998 8.99943 15.8998 8.99943 15.8998C8.99943 15.8998 8.99943 15.8998 8.99943 15.8998C8.99943 15.8998 8.99943 15.8998 8.99943 15.8998C8.99943 15.8998 8.99943 15.8998 8.99943 15.8998C8.99943 15.8998 8.99943 15.8998 8.99943 15.8998C8.99943 15.8998 8.99943 15.8998 8.99943 15.8998C8.99943 15.8998 8.99943 15.8998 8.99943 15.8998C8.99943 15.8998 8.99943 15.8998 8.99942 15.8998C8.99942 15.8998 8.99942 15.8998 8.99942 15.8998C8.99942 15.8998 8.99942 15.8998 8.99942 15.8998C8.99942 15.8998 8.99942 15.8998 8.99942 15.8998C8.99942 15.8998 8.99942 15.8998 8.99942 15.8998C8.99942 15.8998 8.99942 15.8998 8.99942 15.8998C8.99942 15.8998 8.99942 15.8998 8.99942 15.8998C8.99942 15.8998 8.99942 15.8998 8.99942 15.8998C8.99942 15.8998 8.99942 15.8998 8.99942 15.8998C8.99942 15.8998 8.99942 15.8998 8.99942 15.8998C8.99942 15.8998 8.99942 15.8998 8.99942 15.8998C8.99942 15.8998 8.99942 15.8998 8.99942 15.8998C8.99942 15.8998 8.99942 15.8998 8.99942 15.8998C8.99942 15.8998 8.99942 15.8998 8.99942 15.8998C8.99942 15.8998 8.99942 15.8998 8.99942 15.8998C8.99942 15.8998 8.99942 15.8998 8.99942 15.8998C8.99942 15.8998 8.99942 15.8998 8.99942 15.8998C8.99942 15.8998 8.99942 15.8998 8.99942 15.8998C8.99942 15.8998 8.99942 15.8998 8.99942 15.8998C8.99942 15.8998 8.99942 15.8998 8.99942 15.8998C8.99942 15.8998 8.99942 15.8998 8.99942 15.8998C8.99942 15.8998 8.99942 15.8998 8.99942 15.8998C8.99942 15.8998 8.99942 15.8998 8.99942 15.8998C8.99942 15.8998 8.99942 15.8998 8.99942 15.8998C8.99942 15.8998 8.99942 15.8998 8.99942 15.8998C8.99942 15.8998 8.99942 15.8998 8.99942 15.8998C8.99942 15.8998 8.99942 15.8998 8.99942 15.8998C8.99942 15.8998 8.99942 15.8998 8.99942 15.8998C8.99942 15.8998 8.99942 15.8998 8.99941 15.8998C8.99941 15.8998 8.99941 15.8998 8.99941 15.8998C8.99941 15.8998 8.99941 15.8998 8.99941 15.8998C8.99941 15.8998 8.99941 15.8998 8.99941 15.8998C8.99941 15.8998 8.99941 15.8998 8.99941 15.8998C8.99941 15.8998 8.99941 15.8998 8.99941 15.8998C8.99941 15.8998 8.99941 15.8998 8.99941 15.8998C8.99941 15.8998 8.99941 15.8998 8.99941 15.8998C8.99941 15.8998 8.99941 15.8998 8.99941 15.8998C8.99941 15.8998 8.99941 15.8998 8.99941 15.8998C8.99941 15.9998 8.99941 16.0998 8.99941 16.0998C8.99941 16.0998 8.99941 16.0998 8.99941 16.0998C8.99941 16.0998 8.99941 16.0998 8.99941 16.0998C8.99941 16.0998 8.99941 16.0998 8.99941 16.0998C8.99941 16.0998 8.99941 16.0998 8.99941 16.0998C8.99941 16.0998 8.99941 16.0998 8.99941 16.0998C8.99941 16.0998 8.99941 16.0998 8.99941 16.0998C8.99941 16.0998 8.99941 16.0998 8.99941 16.0998C8.99941 16.0998 8.99941 16.0998 8.99941 16.0998C8.99941 16.0998 8.99941 16.0998 8.99942 16.0998C8.99942 16.0998 8.99942 16.0998 8.99942 16.0998C8.99942 16.0998 8.99942 16.0998 8.99942 16.0998C8.99942 16.0998 8.99942 16.0998 8.99942 16.0998C8.99942 16.0998 8.99942 16.0998 8.99942 16.0998C8.99942 16.0998 8.99942 16.0998 8.99942 16.0998C8.99942 16.0998 8.99942 16.0998 8.99942 16.0998C8.99942 16.0998 8.99942 16.0998 8.99942 16.0998C8.99942 16.0998 8.99942 16.0998 8.99942 16.0998C8.99942 16.0998 8.99942 16.0998 8.99942 16.0998C8.99942 16.0998 8.99942 16.0998 8.99942 16.0998C8.99942 16.0998 8.99942 16.0998 8.99942 16.0998C8.99942 16.0998 8.99942 16.0998 8.99942 16.0998C8.99942 16.0998 8.99942 16.0998 8.99942 16.0998C8.99942 16.0998 8.99942 16.0998 8.99942 16.0998C8.99942 16.0998 8.99942 16.0998 8.99942 16.0998C8.99942 16.0998 8.99942 16.0998 8.99942 16.0998C8.99942 16.0998 8.99942 16.0998 8.99942 16.0998C8.99942 16.0998 8.99942 16.0998 8.99942 16.0998C8.99942 16.0998 8.99942 16.0998 8.99942 16.0998C8.99942 16.0998 8.99942 16.0998 8.99942 16.0998C8.99942 16.0998 8.99942 16.0998 8.99942 16.0998C8.99942 16.0998 8.99942 16.0998 8.99942 16.0998C8.99942 16.0998 8.99942 16.0998 8.99942 16.0998C8.99942 16.0998 8.99942 16.0998 8.99942 16.0998C8.99942 16.0998 8.99942 16.0998 8.99942 16.0998C8.99942 16.0998 8.99942 16.0998 8.99942 16.0998C8.99942 16.0998 8.99942 16.0998 8.99942 16.0998C8.99942 16.0998 8.99942 16.0998 8.99942 16.0998C8.99942 16.0998 8.99942 16.0998 8.99942 16.0998C8.99942 16.0998 8.99942 16.0998 8.99942 16.0998C8.99942 16.0998 8.99942 16.0998 8.99943 16.0998C8.99943 16.0998 8.99943 16.0998 8.99943 16.0998C8.99943 16.0998 8.99943 16.0998 8.99943 16.0998C8.99943 16.0998 8.99943 16.0998 8.99943 16.0998C8.99943 16.0998 8.99943 16.0998 8.99943 16.0998C8.99943 16.0998 8.99943 16.0998 8.99943 16.0998C8.99943 16.0998 8.99943 16.0998 8.99943 16.0998C8.99943 16.0998 8.99943 16.0998 8.99943 16.0998C8.99943 16.0998 8.99943 16.0998 8.99943 16.0998C8.99943 16.0998 8.99943 16.0998 8.99943 16.0998C8.99943 16.0998 8.99943 16.0998 8.99943 16.0998C8.99943 16.0998 8.99943 16.0998 8.99943 16.0998C8.99943 16.0998 8.99943 16.0998 8.99943 16.0998C8.99943 16.0998 8.99943 16.0998 8.99943 16.0998C8.99943 16.0998 8.99943 16.0998 8.99943 16.0998C8.99943 16.0998 8.99943 16.0998 8.99943 16.0998C8.99943 16.0998 8.99943 16.0998 8.99943 16.0998C8.99943 16.0998 8.99943 16.0998 8.99943 16.0998C8.99944 16.0998 8.99944 16.0998 8.99944 16.0998C8.99944 16.0998 8.99944 16.0998 8.99944 16.0998C8.99944 16.0998 8.99944 16.0998 8.99944 16.0998C8.99944 16.0998 8.99944 16.0998 8.99944 16.0998C8.99944 16.0998 8.99944 16.0998 8.99944 16.0998C8.99944 16.0998 8.99944 16.0998 8.99944 16.0998C8.99944 16.0998 8.99944 16.0998 8.99944 16.0998C8.99944 16.0998 8.99944 16.0998 8.99944 16.0998C8.99944 16.0998 8.99944 16.0998 8.99944 16.0998C8.99944 16.0998 8.99944 16.0998 8.99944 16.0998C8.99944 16.0998 8.99944 16.0998 8.99944 16.0998C8.99944 16.0998 8.99944 16.0998 8.99944 16.0998C8.99944 16.0998 8.99944 16.0998 8.99944 16.0998C8.99944 16.0998 8.99944 16.0998 8.99944 16.0998C8.99945 16.0998 8.99945 16.0998 8.99945 16.0998C8.99945 16.0998 8.99945 16.0998 8.99945 16.0998C8.99945 16.0998 8.99945 16.0998 8.99945 16.0998C8.99945 16.0998 8.99945 16.0998 8.99945 16.0998C8.99945 16.0998 8.99945 16.0998 8.99945 16.0998C8.99945 16.0998 8.99945 16.0998 8.99945 16.0998C8.99945 16.0998 8.99945 16.0998 8.99945 16.0998C8.99945 16.0998 8.99945 16.0998 8.99945 16.0998C8.99945 16.0998 8.99945 16.0998 8.99945 16.0998C8.99945 16.0998 8.99945 16.0998 8.99945 16.0998C8.99945 16.0998 8.99945 16.0998 8.99945 16.0998C8.99945 16.0998 8.99945 16.0998 8.99945 16.0998C8.99945 16.0998 8.99946 16.0998 8.99946 16.0998C8.99946 16.0998 8.99946 16.0998 8.99946 16.0998C8.99946 16.0998 8.99946 16.0998 8.99946 16.0998C8.99946 16.0998 8.99946 16.0998 8.99946 16.0998C8.99946 16.0998 8.99946 16.0998 8.99946 16.0998C8.99946 16.0998 8.99946 16.0998 8.99946 16.0998C8.99946 16.0998 8.99946 16.0998 8.99946 16.0998C8.99946 16.0998 8.99946 16.0998 8.99946 16.0998C8.99946 16.0998 8.99946 16.0998 8.99946 16.0998C8.99946 16.0998 8.99946 16.0998 8.99946 16.0998C8.99946 16.0998 8.99946 16.0998 8.99946 16.0998C8.99946 16.0998 8.99946 16.0998 8.99947 16.0998C8.99947 16.0998 8.99947 16.0998 8.99947 16.0998C8.99947 16.0998 8.99947 16.0998 8.99947 16.0998C8.99947 16.0998 8.99947 16.0998 8.99947 16.0998C8.99947 16.0998 8.99947 16.0998 8.99947 16.0998C8.99947 16.0998 8.99947 16.0998 8.99947 16.0998C8.99947 16.0998 8.99947 16.0998 8.99947 16.0998C8.99947 16.0998 8.99947 16.0998 8.99947 16.0998C8.99947 16.0998 8.99947 16.0998 8.99947 16.0998C8.99947 16.0998 8.99947 16.0998 8.99947 16.0998C8.99947 16.0998 8.99947 16.0998 8.99947 16.0998C8.99947 16.0998 8.99948 16.0998 8.99948 16.0998C8.99948 16.0998 8.99948 16.0998 8.99948 16.0998C8.99948 16.0998 8.99948 16.0998 8.99948 16.0998C8.99948 16.0998 8.99948 16.0998 8.99948 16.0998C8.99948 16.0998 8.99948 16.0998 8.99948 16.0998C8.99948 16.0998 8.99948 16.0998 8.99948 16.0998C8.99948 16.0998 8.99948 16.0998 8.99948 16.0998C8.99948 16.0998 8.99948 16.0998 8.99948 16.0998C8.99948 16.0998 8.99948 16.0998 8.99948 16.0998C8.99948 16.0998 8.99948 16.0998 8.99948 16.0998C8.99948 16.0998 8.99949 16.0998 8.99949 16.0998C8.99949 16.0998 8.99949 16.0998 8.99949 16.0998C8.99949 16.0998 8.99949 16.0998 8.99949 16.0998C8.99949 16.0998 8.99949 16.0998 8.99949 16.0998C8.99949 16.0998 8.99949 16.0998 8.99949 16.0998C8.99949 16.0998 8.99949 16.0998 8.99949 16.0998C8.99949 16.0998 8.99949 16.0998 8.99949 16.0998C8.99949 16.0998 8.99949 16.0998 8.99949 16.0998C8.99949 16.0998 8.99949 16.0998 8.99949 16.0998C8.99949 16.0998 8.99949 16.0998 8.99949 16.0998C8.99949 16.0998 8.9995 16.0998 8.9995 16.0998C8.9995 16.0998 8.9995 16.0998 8.9995 16.0998C8.9995 16.0998 8.9995 16.0998 8.9995 16.0998C8.9995 16.0998 8.9995 16.0998 8.9995 16.0998C8.9995 16.0998 8.9995 16.0998 8.9995 16.0998C8.9995 16.0998 8.9995 16.0998 8.9995 16.0998C8.9995 16.0998 8.9995 16.0998 8.9995 16.0998C8.9995 16.0998 8.9995 16.0998 8.9995 16.0998C8.9995 16.0998 8.9995 16.0998 8.9995 16.0998C8.9995 16.0998 8.9995 16.0998 8.9995 16.0998C8.99951 16.0998 8.99951 16.0998 8.99951 16.0998C8.99951 16.0998 8.99951 16.0998 8.99951 16.0998C8.99951 16.0998 8.99951 16.0998 8.99951 16.0998C8.99951 16.0998 8.99951 16.0998 8.99951 16.0998C8.99951 16.0998 8.99951 16.0998 8.99951 16.0998C8.99951 16.0998 8.99951 16.0998 8.99951 16.0998C8.99951 16.0998 8.99951 16.0998 8.99951 16.0998C8.99951 16.0998 8.99951 16.0998 8.99951 16.0998C8.99951 16.0998 8.99951 16.0998 8.99951 16.0998C8.99951 16.0998 8.99951 16.0998 8.99952 16.0998C8.99952 16.0998 8.99952 16.0998 8.99952 16.0998C8.99952 16.0998 8.99952 16.0998 8.99952 16.0998C8.99952 16.0998 8.99952 16.0998 8.99952 16.0998C8.99952 16.0998 8.99952 16.0998 8.99952 16.0998C8.99952 16.0998 8.99952 16.0998 8.99952 16.0998C8.99952 16.0998 8.99952 16.0998 8.99952 16.0998C8.99952 16.0998 8.99952 16.0998 8.99952 16.0998C8.99952 16.0998 8.99952 16.0998 8.99952 16.0998C8.99952 16.0998 8.99952 16.0998 8.99952 16.0998C8.99953 16.0998 8.99953 16.0998 8.99953 16.0998C8.99953 16.0998 8.99953 16.0998 8.99953 16.0998C8.99953 16.0998 8.99953 16.0998 8.99953 16.0998C8.99953 16.0998 8.99953 16.0998 8.99953 16.0998C8.99953 16.0998 8.99953 16.0998 8.99953 16.0998C8.99953 16.0998 8.99953 16.0998 8.99953 16.0998C8.99953 16.0998 8.99953 16.0998 8.99953 16.0998C8.99953 16.0998 8.99953 16.0998 8.99953 16.0998C8.99953 16.0998 8.99953 16.0998 8.99953 16.0998C8.99953 16.0998 8.99953 16.0998 8.99954 16.0998C8.99954 16.0998 8.99954 16.0998 8.99954 16.0998C8.99954 16.0998 8.99954 16.0998 8.99954 16.0998C8.99954 16.0998 8.99954 16.0998 8.99954 16.0998C8.99954 16.0998 8.99954 16.0998 8.99954 16.0998C8.99954 16.0998 8.99954 16.0998 8.99954 16.0998C8.99954 16.0998 8.99954 16.0998 8.99954 16.0998C8.99954 16.0998 8.99954 16.0998 8.99954 16.0998C8.99954 16.0998 8.99954 16.0998 8.99954 16.0998C8.99954 16.0998 8.99954 16.0998 8.99954 16.0998C8.99954 16.0998 8.99955 16.0998 8.99955 16.0998C8.99955 16.0998 8.99955 16.0998 8.99955 16.0998C8.99955 16.0998 8.99955 16.0998 8.99955 16.0998C8.99955 16.0998 8.99955 16.0998 8.99955 16.0998C8.99955 16.0998 8.99955 16.0998 8.99955 16.0998C8.99955 16.0998 8.99955 16.0998 8.99955 16.0998C8.99955 16.0998 8.99955 16.0998 8.99955 16.0998C8.99955 16.0998 8.99955 16.0998 8.99955 16.0998C8.99955 16.0998 8.99955 16.0998 8.99955 16.0998C8.99955 16.0998 8.99955 16.0998 8.99955 16.0998C8.99955 16.0998 8.99956 16.0998 8.99956 16.0998C8.99956 16.0998 8.99956 16.0998 8.99956 16.0998C8.99956 16.0998 8.99956 16.0998 8.99956 16.0998C8.99956 16.0998 8.99956 16.0998 8.99956 16.0998C8.99956 16.0998 8.99956 16.0998 8.99956 16.0998C8.99956 16.0998 8.99956 16.0998 8.99956 16.0998C8.99956 16.0998 8.99956 16.0998 8.99956 16.0998C8.99956 16.0998 8.99956 16.0998 8.99956 16.0998C8.99956 16.0998 8.99956 16.0998 8.99956 16.0998C8.99956 16.0998 8.99956 16.0998 8.99956 16.0998C8.99956 16.0998 8.99956 16.0998 8.99956 16.0998C8.99957 16.0998 8.99957 16.0998 8.99957 16.0998C8.99957 16.0998 8.99957 16.0998 8.99957 16.0998C8.99957 16.0998 8.99957 16.0998 8.99957 16.0998C8.99957 16.0998 8.99957 16.0998 8.99957 16.0998C8.99957 16.0998 8.99957 16.0998 8.99957 16.0998C8.99957 16.0998 8.99957 16.0998 8.99957 16.0998C8.99957 16.0998 8.99957 16.0998 8.99957 16.0998C8.99957 16.0998 8.99957 16.0998 8.99957 16.0998C8.99957 16.0998 8.99957 16.0998 8.99957 16.0998C8.99957 16.0998 8.99957 16.0998 8.99957 16.0998C8.99957 16.0998 8.99957 16.0998 8.99958 16.0998C8.99958 16.0998 8.99958 16.0998 8.99958 16.0998C8.99958 16.0998 8.99958 16.0998 8.99958 16.0998C8.99958 16.0998 8.99958 16.0998 8.99958 16.0998C8.99958 16.0998 8.99958 16.0998 8.99958 16.0998C8.99958 16.0998 8.99958 16.0998 8.99958 16.0998C8.99958 16.0998 8.99958 16.0998 8.99958 16.0998C8.99958 16.0998 8.99958 16.0998 8.99958 16.0998C8.99958 16.0998 8.99958 16.0998 8.99958 16.0998C8.99958 16.0998 8.99958 16.0998 8.99958 16.0998C8.99958 16.0998 8.99958 16.0998 8.99958 16.0998C8.99958 16.0998 8.99958 16.0998 8.99958 16.0998C8.99958 16.0998 8.99958 16.0998 8.99959 16.0998C8.99959 16.0998 8.99959 16.0998 8.99959 16.0998C8.99959 16.0998 8.99959 16.0998 8.99959 16.0998C8.99959 16.0998 8.99959 16.0998 8.99959 16.0998C8.99959 16.0998 8.99959 16.0998 8.99959 16.0998C8.99959 16.0998 8.99959 16.0998 8.99959 16.0998C8.99959 16.0998 8.99959 16.0998 8.99959 16.0998C8.99959 16.0998 8.99959 16.0998 8.99959 16.0998C8.99959 16.0998 8.99959 16.0998 8.99959 16.0998C8.99959 16.0998 8.99959 16.0998 8.99959 16.0998C8.99959 16.0998 8.99959 16.0998 8.99959 16.0998C8.99959 16.0998 8.99959 16.0998 8.99959 16.0998C8.99959 16.0998 8.99959 16.0998 8.99959 16.0998C8.99959 16.0998 8.99959 16.0998 8.9996 16.0998C8.9996 16.0998 8.9996 16.0998 8.9996 16.0998C8.9996 16.0998 8.9996 16.0998 8.9996 16.0998C8.9996 16.0998 8.9996 16.0998 8.9996 16.0998C8.9996 16.0998 8.9996 16.0998 8.9996 16.0998C8.9996 16.0998 8.9996 16.0998 8.9996 16.0998C8.9996 16.0998 8.9996 16.0998 8.9996 16.0998C8.9996 16.0998 8.9996 16.0998 8.9996 16.0998C8.9996 16.0998 8.9996 16.0998 8.9996 16.0998C8.9996 16.0998 8.9996 16.0998 8.9996 16.0998C8.9996 16.0998 8.9996 16.0998 8.9996 16.0998C8.9996 16.0998 8.9996 16.0998 8.9996 16.0998C8.9996 16.0998 8.9996 16.0998 8.9996 16.0998C8.9996 16.0998 8.9996 16.0998 8.9996 16.0998C8.9996 16.0998 8.9996 16.0998 8.9996 16.0998C8.9996 16.0998 8.9996 16.0998 8.9996 16.0998C8.99961 16.0998 8.99961 16.0998 8.99961 16.0998C8.99961 16.0998 8.99961 16.0998 8.99961 16.0998C8.99961 16.0998 8.99961 16.0998 8.99961 16.0998C8.99961 16.0998 8.99961 16.0998 8.99961 16.0998C8.99961 16.0998 8.99961 16.0998 8.99961 16.0998C8.99961 16.0998 8.99961 16.0998 8.99961 16.0998C8.99961 16.0998 8.99961 16.0998 8.99961 16.0998C8.99961 16.0998 8.99961 16.0998 8.99961 16.0998C8.99961 16.0998 8.99961 16.0998 8.99961 16.0998C8.99961 16.0998 8.99961 16.0998 8.99961 16.0998C8.99961 16.0998 8.99961 16.0998 8.99961 16.0998C8.99961 16.0998 8.99961 16.0998 8.99961 16.0998C8.99961 16.0998 8.99961 16.0998 8.99961 16.0998C8.99961 16.0998 8.99961 16.0998 8.99961 16.0998C8.99961 16.0998 8.99961 16.0998 8.99961 16.0998C8.99961 16.0998 8.99961 16.0998 8.99961 16.0998C8.99961 16.0998 8.99961 16.0998 8.99961 16.0998C8.99961 16.0998 8.99961 16.0998 8.99961 16.0998C8.99961 16.0998 8.99961 16.0998 8.99961 16.0998C8.99961 16.0998 8.99961 16.0998 8.99961 16.0998C8.99961 16.0998 8.99961 16.0998 8.99962 16.0998C8.99962 16.0998 8.99962 16.0998 8.99962 16.0998C8.99962 16.0998 8.99962 16.0998 8.99962 16.0998C8.99962 16.0998 8.99962 16.0998 8.99962 16.0998C8.99962 16.0998 8.99962 16.0998 8.99962 16.0998C8.99962 16.0998 8.99962 16.0998 8.99962 16.0998C8.99962 16.0998 8.99962 16.0998 8.99962 16.0998C8.99962 16.0998 8.99962 16.0998 8.99962 16.0998C8.99962 16.0998 8.99962 16.0998 8.99962 16.0998C8.99962 16.0998 8.99962 16.0998 8.99962 16.0998C8.99962 16.0998 8.99962 16.0998 8.99962 16.0998C8.99962 16.0998 8.99962 16.0998 8.99962 16.0998C8.99962 16.0998 8.99962 16.0998 8.99962 16.0998C8.99962 16.0998 8.99962 16.0998 8.99962 16.0998C8.99962 16.0998 8.99962 16.0998 8.99962 16.0998C8.99962 16.0998 8.99962 16.0998 8.99962 16.0998C8.99962 16.0998 8.99962 16.0998 8.99962 16.0998C8.99962 16.0998 8.99962 16.0998 8.99962 16.0998C8.99962 16.0998 8.99962 16.0998 8.99962 16.0998C8.99962 16.0998 8.99962 16.0998 8.99962 16.0998C8.99962 16.0998 8.99962 16.0998 8.99962 16.0998C8.99962 16.0998 8.99962 16.0998 8.99962 16.0998C8.99962 16.0998 8.99962 16.0998 8.99962 16.0998C8.99962 16.0998 8.99962 16.0998 8.99962 16.0998C8.99962 16.0998 8.99962 16.0998 8.99962 16.0998C8.99962 16.0998 8.99962 16.0998 8.99962 16.0998C8.99962 16.0998 8.99962 16.0998 8.99962 16.0998C8.99962 16.0998 8.99962 16.0998 8.99962 16.0998C8.99962 16.0998 8.99962 16.0998 8.99962 16.0998C8.99962 16.0998 8.99962 15.9998 8.99962 15.8998C8.99962 15.8998 8.99962 15.8998 8.99962 15.8998C8.99962 15.8998 8.99962 15.8998 8.99962 15.8998C8.99962 15.8998 8.99962 15.8998 8.99962 15.8998C8.99962 15.8998 8.99962 15.8998 8.99962 15.8998C8.99962 15.8998 8.99962 15.8998 8.99962 15.8998C8.99962 15.8998 8.99962 15.8998 8.99962 15.8998C8.99962 15.8998 8.99962 15.8998 8.99962 15.8998C8.99962 15.8998 8.99962 15.8998 8.99962 15.8998C8.99962 15.8998 8.99962 15.8998 8.99962 15.8998C8.99962 15.8998 8.99962 15.8998 8.99962 15.8998C8.99962 15.8998 8.99962 15.8998 8.99962 15.8998C8.99962 15.8998 8.99962 15.8998 8.99962 15.8998C8.99962 15.8998 8.99962 15.8998 8.99962 15.8998C8.99962 15.8998 8.99962 15.8998 8.99962 15.8998C8.99962 15.8998 8.99962 15.8998 8.99962 15.8998C8.99962 15.8998 8.99962 15.8998 8.99962 15.8998C8.99962 15.8998 8.99962 15.8998 8.99962 15.8998C8.99962 15.8998 8.99962 15.8998 8.99962 15.8998C8.99962 15.8998 8.99962 15.8998 8.99962 15.8998C8.99962 15.8998 8.99962 15.8998 8.99962 15.8998C8.99962 15.8998 8.99962 15.8998 8.99962 15.8998C8.99962 15.8998 8.99962 15.8998 8.99962 15.8998C8.99962 15.8998 8.99962 15.8998 8.99962 15.8998C8.99962 15.8998 8.99962 15.8998 8.99962 15.8998C8.99962 15.8998 8.99962 15.8998 8.99962 15.8998C8.99962 15.8998 8.99962 15.8998 8.99962 15.8998C8.99962 15.8998 8.99962 15.8998 8.99961 15.8998C8.99961 15.8998 8.99961 15.8998 8.99961 15.8998C8.99961 15.8998 8.99961 15.8998 8.99961 15.8998C8.99961 15.8998 8.99961 15.8998 8.99961 15.8998C8.99961 15.8998 8.99961 15.8998 8.99961 15.8998C8.99961 15.8998 8.99961 15.8998 8.99961 15.8998C8.99961 15.8998 8.99961 15.8998 8.99961 15.8998C8.99961 15.8998 8.99961 15.8998 8.99961 15.8998C8.99961 15.8998 8.99961 15.8998 8.99961 15.8998C8.99961 15.8998 8.99961 15.8998 8.99961 15.8998C8.99961 15.8998 8.99961 15.8998 8.99961 15.8998C8.99961 15.8998 8.99961 15.8998 8.99961 15.8998C8.99961 15.8998 8.99961 15.8998 8.99961 15.8998C8.99961 15.8998 8.99961 15.8998 8.99961 15.8998C8.99961 15.8998 8.99961 15.8998 8.99961 15.8998C8.99961 15.8998 8.99961 15.8998 8.99961 15.8998C8.99961 15.8998 8.99961 15.8998 8.99961 15.8998C8.99961 15.8998 8.99961 15.8998 8.99961 15.8998C8.99961 15.8998 8.9996 15.8998 8.9996 15.8998C8.9996 15.8998 8.9996 15.8998 8.9996 15.8998C8.9996 15.8998 8.9996 15.8998 8.9996 15.8998C8.9996 15.8998 8.9996 15.8998 8.9996 15.8998C8.9996 15.8998 8.9996 15.8998 8.9996 15.8998C8.9996 15.8998 8.9996 15.8998 8.9996 15.8998C8.9996 15.8998 8.9996 15.8998 8.9996 15.8998C8.9996 15.8998 8.9996 15.8998 8.9996 15.8998C8.9996 15.8998 8.9996 15.8998 8.9996 15.8998C8.9996 15.8998 8.9996 15.8998 8.9996 15.8998C8.9996 15.8998 8.9996 15.8998 8.9996 15.8998C8.9996 15.8998 8.9996 15.8998 8.9996 15.8998C8.9996 15.8998 8.99959 15.8998 8.99959 15.8998C8.99959 15.8998 8.99959 15.8998 8.99959 15.8998C8.99959 15.8998 8.99959 15.8998 8.99959 15.8998C8.99959 15.8998 8.99959 15.8998 8.99959 15.8998C8.99959 15.8998 8.99959 15.8998 8.99959 15.8998C8.99959 15.8998 8.99959 15.8998 8.99959 15.8998C8.99959 15.8998 8.99959 15.8998 8.99959 15.8998C8.99959 15.8998 8.99959 15.8998 8.99959 15.8998C8.99959 15.8998 8.99959 15.8998 8.99959 15.8998C8.99959 15.8998 8.99959 15.8998 8.99958 15.8998C8.99958 15.8998 8.99958 15.8998 8.99958 15.8998C8.99958 15.8998 8.99958 15.8998 8.99958 15.8998C8.99958 15.8998 8.99958 15.8998 8.99958 15.8998C8.99958 15.8998 8.99958 15.8998 8.99958 15.8998C8.99958 15.8998 8.99958 15.8998 8.99958 15.8998C8.99958 15.8998 8.99958 15.8998 8.99958 15.8998C8.99958 15.8998 8.99958 15.8998 8.99958 15.8998C8.99958 15.8998 8.99958 15.8998 8.99958 15.8998C8.99957 15.8998 8.99957 15.8998 8.99957 15.8998C8.99957 15.8998 8.99957 15.8998 8.99957 15.8998C8.99957 15.8998 8.99957 15.8998 8.99957 15.8998C8.99957 15.8998 8.99957 15.8998 8.99957 15.8998C8.99957 15.8998 8.99957 15.8998 8.99957 15.8998C8.99957 15.8998 8.99957 15.8998 8.99957 15.8998C8.99957 15.8998 8.99957 15.8998 8.99957 15.8998C8.99956 15.8998 8.99956 15.8998 8.99956 15.8998C8.99956 15.8998 8.99956 15.8998 8.99956 15.8998C8.99956 15.8998 8.99956 15.8998 8.99956 15.8998C8.99956 15.8998 8.99956 15.8998 8.99956 15.8998C8.99956 15.8998 8.99956 15.8998 8.99956 15.8998C8.99956 15.8998 8.99956 15.8998 8.99956 15.8998C8.99956 15.8998 8.99956 15.8998 8.99955 15.8998C8.99955 15.8998 8.99955 15.8998 8.99955 15.8998C8.99955 15.8998 8.99955 15.8998 8.99955 15.8998C8.99955 15.8998 8.99955 15.8998 8.99955 15.8998C8.99955 15.8998 8.99955 15.8998 8.99955 15.8998C8.99955 15.8998 8.99955 15.8998 8.99955 15.8998C8.99955 15.8998 8.99954 15.8998 8.99954 15.8998C8.99954 15.8998 8.99954 15.8998 8.99954 15.8998C8.99954 15.8998 8.99954 15.8998 8.99954 15.8998C8.99954 15.8998 8.99954 15.8998 8.99954 15.8998C8.99954 15.8998 8.99954 15.8998 8.99954 15.8998C8.99954 15.8998 8.99954 15.8998 8.99954 15.8998C8.99953 15.8998 8.99953 15.8998 8.99953 15.8998C8.99953 15.8998 8.99953 15.8998 8.99953 15.8998C8.99953 15.8998 8.99953 15.8998 8.99953 15.8998C8.99953 15.8998 8.99953 15.8998 8.99953 15.8998C8.99953 15.8998 8.99953 15.8998 8.99953 15.8998C8.99952 15.8998 8.99952 15.8998 8.99952 15.8998C8.99952 15.8998 8.99952 15.8998 8.99952 15.8998C8.99952 15.8998 8.99952 15.8998 8.99952 15.8998C8.99952 15.8998 8.99952 15.8998 8.99952 15.8998V16.0998C8.99952 16.0998 8.99952 16.0998 8.99952 16.0998C8.99952 16.0998 8.99952 16.0998 8.99952 16.0998C8.99952 16.0998 8.99952 16.0998 8.99952 16.0998C8.99952 16.0998 8.99952 16.0998 8.99953 16.0998C8.99953 16.0998 8.99953 16.0998 8.99953 16.0998C8.99953 16.0998 8.99953 16.0998 8.99953 16.0998C8.99953 16.0998 8.99953 16.0998 8.99953 16.0998C8.99953 16.0998 8.99953 16.0998 8.99953 16.0998C8.99953 16.0998 8.99953 16.0998 8.99954 16.0998C8.99954 16.0998 8.99954 16.0998 8.99954 16.0998C8.99954 16.0998 8.99954 16.0998 8.99954 16.0998C8.99954 16.0998 8.99954 16.0998 8.99954 16.0998C8.99954 16.0998 8.99954 16.0998 8.99954 16.0998C8.99954 16.0998 8.99954 16.0998 8.99954 16.0998C8.99954 16.0998 8.99955 16.0998 8.99955 16.0998C8.99955 16.0998 8.99955 16.0998 8.99955 16.0998C8.99955 16.0998 8.99955 16.0998 8.99955 16.0998C8.99955 16.0998 8.99955 16.0998 8.99955 16.0998C8.99955 16.0998 8.99955 16.0998 8.99955 16.0998C8.99955 16.0998 8.99955 16.0998 8.99955 16.0998C8.99956 16.0998 8.99956 16.0998 8.99956 16.0998C8.99956 16.0998 8.99956 16.0998 8.99956 16.0998C8.99956 16.0998 8.99956 16.0998 8.99956 16.0998C8.99956 16.0998 8.99956 16.0998 8.99956 16.0998C8.99956 16.0998 8.99956 16.0998 8.99956 16.0998C8.99956 16.0998 8.99956 16.0998 8.99956 16.0998C8.99956 16.0998 8.99956 16.0998 8.99957 16.0998C8.99957 16.0998 8.99957 16.0998 8.99957 16.0998C8.99957 16.0998 8.99957 16.0998 8.99957 16.0998C8.99957 16.0998 8.99957 16.0998 8.99957 16.0998C8.99957 16.0998 8.99957 16.0998 8.99957 16.0998C8.99957 16.0998 8.99957 16.0998 8.99957 16.0998C8.99957 16.0998 8.99957 16.0998 8.99957 16.0998C8.99957 16.0998 8.99957 16.0998 8.99958 16.0998C8.99958 16.0998 8.99958 16.0998 8.99958 16.0998C8.99958 16.0998 8.99958 16.0998 8.99958 16.0998C8.99958 16.0998 8.99958 16.0998 8.99958 16.0998C8.99958 16.0998 8.99958 16.0998 8.99958 16.0998C8.99958 16.0998 8.99958 16.0998 8.99958 16.0998C8.99958 16.0998 8.99958 16.0998 8.99958 16.0998C8.99958 16.0998 8.99958 16.0998 8.99958 16.0998C8.99958 16.0998 8.99958 16.0998 8.99958 16.0998C8.99959 16.0998 8.99959 16.0998 8.99959 16.0998C8.99959 16.0998 8.99959 16.0998 8.99959 16.0998C8.99959 16.0998 8.99959 16.0998 8.99959 16.0998C8.99959 16.0998 8.99959 16.0998 8.99959 16.0998C8.99959 16.0998 8.99959 16.0998 8.99959 16.0998C8.99959 16.0998 8.99959 16.0998 8.99959 16.0998C8.99959 16.0998 8.99959 16.0998 8.99959 16.0998C8.99959 16.0998 8.99959 16.0998 8.99959 16.0998C8.99959 16.0998 8.99959 16.0998 8.99959 16.0998C8.99959 16.0998 8.9996 16.0998 8.9996 16.0998C8.9996 16.0998 8.9996 16.0998 8.9996 16.0998C8.9996 16.0998 8.9996 16.0998 8.9996 16.0998C8.9996 16.0998 8.9996 16.0998 8.9996 16.0998C8.9996 16.0998 8.9996 16.0998 8.9996 16.0998C8.9996 16.0998 8.9996 16.0998 8.9996 16.0998C8.9996 16.0998 8.9996 16.0998 8.9996 16.0998C8.9996 16.0998 8.9996 16.0998 8.9996 16.0998C8.9996 16.0998 8.9996 16.0998 8.9996 16.0998C8.9996 16.0998 8.9996 16.0998 8.9996 16.0998C8.9996 16.0998 8.9996 16.0998 8.9996 16.0998C8.9996 16.0998 8.9996 16.0998 8.9996 16.0998C8.9996 16.0998 8.99961 16.0998 8.99961 16.0998C8.99961 16.0998 8.99961 16.0998 8.99961 16.0998C8.99961 16.0998 8.99961 16.0998 8.99961 16.0998C8.99961 16.0998 8.99961 16.0998 8.99961 16.0998C8.99961 16.0998 8.99961 16.0998 8.99961 16.0998C8.99961 16.0998 8.99961 16.0998 8.99961 16.0998C8.99961 16.0998 8.99961 16.0998 8.99961 16.0998C8.99961 16.0998 8.99961 16.0998 8.99961 16.0998C8.99961 16.0998 8.99961 16.0998 8.99961 16.0998C8.99961 16.0998 8.99961 16.0998 8.99961 16.0998C8.99961 16.0998 8.99961 16.0998 8.99961 16.0998C8.99961 16.0998 8.99961 16.0998 8.99961 16.0998C8.99961 16.0998 8.99961 16.0998 8.99961 16.0998C8.99961 16.0998 8.99961 16.0998 8.99961 16.0998C8.99961 16.0998 8.99961 16.0998 8.99961 16.0998C8.99961 16.0998 8.99961 16.0998 8.99961 16.0998C8.99961 16.0998 8.99961 16.0998 8.99961 16.0998C8.99961 16.0998 8.99961 16.0998 8.99961 16.0998C8.99962 16.0998 8.99962 16.0998 8.99962 16.0998C8.99962 16.0998 8.99962 16.0998 8.99962 16.0998C8.99962 16.0998 8.99962 16.0998 8.99962 16.0998C8.99962 16.0998 8.99962 16.0998 8.99962 16.0998C8.99962 16.0998 8.99962 16.0998 8.99962 16.0998C8.99962 16.0998 8.99962 16.0998 8.99962 16.0998C8.99962 16.0998 8.99962 16.0998 8.99962 16.0998C8.99962 16.0998 8.99962 16.0998 8.99962 16.0998C8.99962 16.0998 8.99962 16.0998 8.99962 16.0998C8.99962 16.0998 8.99962 16.0998 8.99962 16.0998C8.99962 16.0998 8.99962 16.0998 8.99962 16.0998C8.99962 16.0998 8.99962 16.0998 8.99962 16.0998C8.99962 16.0998 8.99962 16.0998 8.99962 16.0998C8.99962 16.0998 8.99962 16.0998 8.99962 16.0998C8.99962 16.0998 8.99962 16.0998 8.99962 16.0998C8.99962 16.0998 8.99962 16.0998 8.99962 16.0998C8.99962 16.0998 8.99962 16.0998 8.99962 16.0998C8.99962 16.0998 8.99962 16.0998 8.99962 16.0998C8.99962 16.0998 8.99962 16.0998 8.99962 16.0998C8.99962 16.0998 8.99962 16.0998 8.99962 16.0998C8.99962 16.0998 8.99962 16.0998 8.99962 16.0998C8.99962 16.0998 8.99962 16.0998 8.99962 16.0998C8.99962 16.0998 8.99962 16.0998 8.99962 16.0998C8.99962 16.0998 8.99962 16.0998 8.99962 16.0998C8.99962 16.0998 8.99962 16.0998 8.99962 16.0998C8.99962 16.0998 8.99962 16.0998 8.99962 16.0998C8.99962 16.0998 8.99962 16.0998 8.99962 16.0998C8.99962 15.9998 8.99962 15.8998 8.99962 15.8998C8.99962 15.8998 8.99962 15.8998 8.99962 15.8998C8.99962 15.8998 8.99962 15.8998 8.99962 15.8998C8.99962 15.8998 8.99962 15.8998 8.99962 15.8998C8.99962 15.8998 8.99962 15.8998 8.99962 15.8998C8.99962 15.8998 8.99962 15.8998 8.99962 15.8998C8.99962 15.8998 8.99962 15.8998 8.99962 15.8998C8.99962 15.8998 8.99962 15.8998 8.99962 15.8998C8.99962 15.8998 8.99962 15.8998 8.99962 15.8998C8.99962 15.8998 8.99962 15.8998 8.99962 15.8998C8.99962 15.8998 8.99962 15.8998 8.99962 15.8998C8.99962 15.8998 8.99962 15.8998 8.99962 15.8998C8.99962 15.8998 8.99962 15.8998 8.99962 15.8998C8.99962 15.8998 8.99962 15.8998 8.99962 15.8998C8.99962 15.8998 8.99962 15.8998 8.99962 15.8998C8.99962 15.8998 8.99962 15.8998 8.99962 15.8998C8.99962 15.8998 8.99962 15.8998 8.99962 15.8998C8.99962 15.8998 8.99962 15.8998 8.99962 15.8998C8.99962 15.8998 8.99962 15.8998 8.99962 15.8998C8.99962 15.8998 8.99962 15.8998 8.99962 15.8998C8.99962 15.8998 8.99962 15.8998 8.99962 15.8998C8.99962 15.8998 8.99962 15.8998 8.99962 15.8998C8.99962 15.8998 8.99962 15.8998 8.99962 15.8998C8.99962 15.8998 8.99962 15.8998 8.99962 15.8998C8.99962 15.8998 8.99962 15.8998 8.99962 15.8998C8.99962 15.8998 8.99962 15.8998 8.99962 15.8998C8.99962 15.8998 8.99962 15.8998 8.99962 15.8998C8.99962 15.8998 8.99962 15.8998 8.99962 15.8998C8.99962 15.8998 8.99962 15.8998 8.99962 15.8998C8.99961 15.8998 8.99961 15.8998 8.99961 15.8998C8.99961 15.8998 8.99961 15.8998 8.99961 15.8998C8.99961 15.8998 8.99961 15.8998 8.99961 15.8998C8.99961 15.8998 8.99961 15.8998 8.99961 15.8998C8.99961 15.8998 8.99961 15.8998 8.99961 15.8998C8.99961 15.8998 8.99961 15.8998 8.99961 15.8998C8.99961 15.8998 8.99961 15.8998 8.99961 15.8998C8.99961 15.8998 8.99961 15.8998 8.99961 15.8998C8.99961 15.8998 8.99961 15.8998 8.99961 15.8998C8.99961 15.8998 8.99961 15.8998 8.99961 15.8998C8.99961 15.8998 8.99961 15.8998 8.99961 15.8998C8.99961 15.8998 8.99961 15.8998 8.99961 15.8998C8.99961 15.8998 8.99961 15.8998 8.99961 15.8998C8.99961 15.8998 8.99961 15.8998 8.99961 15.8998C8.99961 15.8998 8.99961 15.8998 8.99961 15.8998C8.99961 15.8998 8.99961 15.8998 8.99961 15.8998C8.99961 15.8998 8.99961 15.8998 8.99961 15.8998C8.99961 15.8998 8.99961 15.8998 8.99961 15.8998C8.99961 15.8998 8.99961 15.8998 8.99961 15.8998C8.99961 15.8998 8.99961 15.8998 8.99961 15.8998C8.99961 15.8998 8.99961 15.8998 8.9996 15.8998C8.9996 15.8998 8.9996 15.8998 8.9996 15.8998C8.9996 15.8998 8.9996 15.8998 8.9996 15.8998C8.9996 15.8998 8.9996 15.8998 8.9996 15.8998C8.9996 15.8998 8.9996 15.8998 8.9996 15.8998C8.9996 15.8998 8.9996 15.8998 8.9996 15.8998C8.9996 15.8998 8.9996 15.8998 8.9996 15.8998C8.9996 15.8998 8.9996 15.8998 8.9996 15.8998C8.9996 15.8998 8.9996 15.8998 8.9996 15.8998C8.9996 15.8998 8.9996 15.8998 8.9996 15.8998C8.9996 15.8998 8.9996 15.8998 8.9996 15.8998C8.9996 15.8998 8.9996 15.8998 8.9996 15.8998C8.9996 15.8998 8.9996 15.8998 8.9996 15.8998C8.9996 15.8998 8.9996 15.8998 8.9996 15.8998C8.9996 15.8998 8.9996 15.8998 8.9996 15.8998C8.9996 15.8998 8.9996 15.8998 8.9996 15.8998C8.99959 15.8998 8.99959 15.8998 8.99959 15.8998C8.99959 15.8998 8.99959 15.8998 8.99959 15.8998C8.99959 15.8998 8.99959 15.8998 8.99959 15.8998C8.99959 15.8998 8.99959 15.8998 8.99959 15.8998C8.99959 15.8998 8.99959 15.8998 8.99959 15.8998C8.99959 15.8998 8.99959 15.8998 8.99959 15.8998C8.99959 15.8998 8.99959 15.8998 8.99959 15.8998C8.99959 15.8998 8.99959 15.8998 8.99959 15.8998C8.99959 15.8998 8.99959 15.8998 8.99959 15.8998C8.99959 15.8998 8.99959 15.8998 8.99959 15.8998C8.99959 15.8998 8.99959 15.8998 8.99959 15.8998C8.99959 15.8998 8.99959 15.8998 8.99959 15.8998C8.99959 15.8998 8.99959 15.8998 8.99959 15.8998C8.99958 15.8998 8.99958 15.8998 8.99958 15.8998C8.99958 15.8998 8.99958 15.8998 8.99958 15.8998C8.99958 15.8998 8.99958 15.8998 8.99958 15.8998C8.99958 15.8998 8.99958 15.8998 8.99958 15.8998C8.99958 15.8998 8.99958 15.8998 8.99958 15.8998C8.99958 15.8998 8.99958 15.8998 8.99958 15.8998C8.99958 15.8998 8.99958 15.8998 8.99958 15.8998C8.99958 15.8998 8.99958 15.8998 8.99958 15.8998C8.99958 15.8998 8.99958 15.8998 8.99958 15.8998C8.99958 15.8998 8.99958 15.8998 8.99958 15.8998C8.99958 15.8998 8.99958 15.8998 8.99958 15.8998C8.99958 15.8998 8.99958 15.8998 8.99958 15.8998C8.99957 15.8998 8.99957 15.8998 8.99957 15.8998C8.99957 15.8998 8.99957 15.8998 8.99957 15.8998C8.99957 15.8998 8.99957 15.8998 8.99957 15.8998C8.99957 15.8998 8.99957 15.8998 8.99957 15.8998C8.99957 15.8998 8.99957 15.8998 8.99957 15.8998C8.99957 15.8998 8.99957 15.8998 8.99957 15.8998C8.99957 15.8998 8.99957 15.8998 8.99957 15.8998C8.99957 15.8998 8.99957 15.8998 8.99957 15.8998C8.99957 15.8998 8.99957 15.8998 8.99957 15.8998C8.99957 15.8998 8.99957 15.8998 8.99957 15.8998C8.99957 15.8998 8.99957 15.8998 8.99956 15.8998C8.99956 15.8998 8.99956 15.8998 8.99956 15.8998C8.99956 15.8998 8.99956 15.8998 8.99956 15.8998C8.99956 15.8998 8.99956 15.8998 8.99956 15.8998C8.99956 15.8998 8.99956 15.8998 8.99956 15.8998C8.99956 15.8998 8.99956 15.8998 8.99956 15.8998C8.99956 15.8998 8.99956 15.8998 8.99956 15.8998C8.99956 15.8998 8.99956 15.8998 8.99956 15.8998C8.99956 15.8998 8.99956 15.8998 8.99956 15.8998C8.99956 15.8998 8.99956 15.8998 8.99956 15.8998C8.99956 15.8998 8.99956 15.8998 8.99956 15.8998C8.99956 15.8998 8.99955 15.8998 8.99955 15.8998C8.99955 15.8998 8.99955 15.8998 8.99955 15.8998C8.99955 15.8998 8.99955 15.8998 8.99955 15.8998C8.99955 15.8998 8.99955 15.8998 8.99955 15.8998C8.99955 15.8998 8.99955 15.8998 8.99955 15.8998C8.99955 15.8998 8.99955 15.8998 8.99955 15.8998C8.99955 15.8998 8.99955 15.8998 8.99955 15.8998C8.99955 15.8998 8.99955 15.8998 8.99955 15.8998C8.99955 15.8998 8.99955 15.8998 8.99955 15.8998C8.99955 15.8998 8.99955 15.8998 8.99955 15.8998C8.99955 15.8998 8.99954 15.8998 8.99954 15.8998C8.99954 15.8998 8.99954 15.8998 8.99954 15.8998C8.99954 15.8998 8.99954 15.8998 8.99954 15.8998C8.99954 15.8998 8.99954 15.8998 8.99954 15.8998C8.99954 15.8998 8.99954 15.8998 8.99954 15.8998C8.99954 15.8998 8.99954 15.8998 8.99954 15.8998C8.99954 15.8998 8.99954 15.8998 8.99954 15.8998C8.99954 15.8998 8.99954 15.8998 8.99954 15.8998C8.99954 15.8998 8.99954 15.8998 8.99954 15.8998C8.99954 15.8998 8.99954 15.8998 8.99954 15.8998C8.99953 15.8998 8.99953 15.8998 8.99953 15.8998C8.99953 15.8998 8.99953 15.8998 8.99953 15.8998C8.99953 15.8998 8.99953 15.8998 8.99953 15.8998C8.99953 15.8998 8.99953 15.8998 8.99953 15.8998C8.99953 15.8998 8.99953 15.8998 8.99953 15.8998C8.99953 15.8998 8.99953 15.8998 8.99953 15.8998C8.99953 15.8998 8.99953 15.8998 8.99953 15.8998C8.99953 15.8998 8.99953 15.8998 8.99953 15.8998C8.99953 15.8998 8.99953 15.8998 8.99953 15.8998C8.99953 15.8998 8.99953 15.8998 8.99952 15.8998C8.99952 15.8998 8.99952 15.8998 8.99952 15.8998C8.99952 15.8998 8.99952 15.8998 8.99952 15.8998C8.99952 15.8998 8.99952 15.8998 8.99952 15.8998C8.99952 15.8998 8.99952 15.8998 8.99952 15.8998C8.99952 15.8998 8.99952 15.8998 8.99952 15.8998C8.99952 15.8998 8.99952 15.8998 8.99952 15.8998C8.99952 15.8998 8.99952 15.8998 8.99952 15.8998C8.99952 15.8998 8.99952 15.8998 8.99952 15.8998C8.99952 15.8998 8.99952 15.8998 8.99952 15.8998C8.99951 15.8998 8.99951 15.8998 8.99951 15.8998C8.99951 15.8998 8.99951 15.8998 8.99951 15.8998C8.99951 15.8998 8.99951 15.8998 8.99951 15.8998C8.99951 15.8998 8.99951 15.8998 8.99951 15.8998C8.99951 15.8998 8.99951 15.8998 8.99951 15.8998C8.99951 15.8998 8.99951 15.8998 8.99951 15.8998C8.99951 15.8998 8.99951 15.8998 8.99951 15.8998C8.99951 15.8998 8.99951 15.8998 8.99951 15.8998C8.99951 15.8998 8.99951 15.8998 8.99951 15.8998C8.99951 15.8998 8.99951 15.8998 8.9995 15.8998C8.9995 15.8998 8.9995 15.8998 8.9995 15.8998C8.9995 15.8998 8.9995 15.8998 8.9995 15.8998C8.9995 15.8998 8.9995 15.8998 8.9995 15.8998C8.9995 15.8998 8.9995 15.8998 8.9995 15.8998C8.9995 15.8998 8.9995 15.8998 8.9995 15.8998C8.9995 15.8998 8.9995 15.8998 8.9995 15.8998C8.9995 15.8998 8.9995 15.8998 8.9995 15.8998C8.9995 15.8998 8.9995 15.8998 8.9995 15.8998C8.9995 15.8998 8.9995 15.8998 8.9995 15.8998C8.9995 15.8998 8.99949 15.8998 8.99949 15.8998C8.99949 15.8998 8.99949 15.8998 8.99949 15.8998C8.99949 15.8998 8.99949 15.8998 8.99949 15.8998C8.99949 15.8998 8.99949 15.8998 8.99949 15.8998C8.99949 15.8998 8.99949 15.8998 8.99949 15.8998C8.99949 15.8998 8.99949 15.8998 8.99949 15.8998C8.99949 15.8998 8.99949 15.8998 8.99949 15.8998C8.99949 15.8998 8.99949 15.8998 8.99949 15.8998C8.99949 15.8998 8.99949 15.8998 8.99949 15.8998C8.99949 15.8998 8.99949 15.8998 8.99949 15.8998C8.99949 15.8998 8.99948 15.8998 8.99948 15.8998C8.99948 15.8998 8.99948 15.8998 8.99948 15.8998C8.99948 15.8998 8.99948 15.8998 8.99948 15.8998C8.99948 15.8998 8.99948 15.8998 8.99948 15.8998C8.99948 15.8998 8.99948 15.8998 8.99948 15.8998C8.99948 15.8998 8.99948 15.8998 8.99948 15.8998C8.99948 15.8998 8.99948 15.8998 8.99948 15.8998C8.99948 15.8998 8.99948 15.8998 8.99948 15.8998C8.99948 15.8998 8.99948 15.8998 8.99948 15.8998C8.99948 15.8998 8.99948 15.8998 8.99948 15.8998C8.99948 15.8998 8.99947 15.8998 8.99947 15.8998C8.99947 15.8998 8.99947 15.8998 8.99947 15.8998C8.99947 15.8998 8.99947 15.8998 8.99947 15.8998C8.99947 15.8998 8.99947 15.8998 8.99947 15.8998C8.99947 15.8998 8.99947 15.8998 8.99947 15.8998C8.99947 15.8998 8.99947 15.8998 8.99947 15.8998C8.99947 15.8998 8.99947 15.8998 8.99947 15.8998C8.99947 15.8998 8.99947 15.8998 8.99947 15.8998C8.99947 15.8998 8.99947 15.8998 8.99947 15.8998C8.99947 15.8998 8.99947 15.8998 8.99947 15.8998C8.99947 15.8998 8.99947 15.8998 8.99947 15.8998C8.99946 15.8998 8.99946 15.8998 8.99946 15.8998C8.99946 15.8998 8.99946 15.8998 8.99946 15.8998C8.99946 15.8998 8.99946 15.8998 8.99946 15.8998C8.99946 15.8998 8.99946 15.8998 8.99946 15.8998C8.99946 15.8998 8.99946 15.8998 8.99946 15.8998C8.99946 15.8998 8.99946 15.8998 8.99946 15.8998C8.99946 15.8998 8.99946 15.8998 8.99946 15.8998C8.99946 15.8998 8.99946 15.8998 8.99946 15.8998C8.99946 15.8998 8.99946 15.8998 8.99946 15.8998C8.99946 15.8998 8.99946 15.8998 8.99946 15.8998C8.99946 15.8998 8.99946 15.8998 8.99946 15.8998C8.99946 15.8998 8.99945 15.8998 8.99945 15.8998C8.99945 15.8998 8.99945 15.8998 8.99945 15.8998C8.99945 15.8998 8.99945 15.8998 8.99945 15.8998C8.99945 15.8998 8.99945 15.8998 8.99945 15.8998C8.99945 15.8998 8.99945 15.8998 8.99945 15.8998C8.99945 15.8998 8.99945 15.8998 8.99945 15.8998C8.99945 15.8998 8.99945 15.8998 8.99945 15.8998C8.99945 15.8998 8.99945 15.8998 8.99945 15.8998C8.99945 15.8998 8.99945 15.8998 8.99945 15.8998C8.99945 15.8998 8.99945 15.8998 8.99945 15.8998C8.99945 15.8998 8.99945 15.8998 8.99945 15.8998C8.99945 15.8998 8.99945 15.8998 8.99945 15.8998C8.99945 15.8998 8.99945 15.8998 8.99944 15.8998C8.99944 15.8998 8.99944 15.8998 8.99944 15.8998C8.99944 15.8998 8.99944 15.8998 8.99944 15.8998C8.99944 15.8998 8.99944 15.8998 8.99944 15.8998C8.99944 15.8998 8.99944 15.8998 8.99944 15.8998C8.99944 15.8998 8.99944 15.8998 8.99944 15.8998C8.99944 15.8998 8.99944 15.8998 8.99944 15.8998C8.99944 15.8998 8.99944 15.8998 8.99944 15.8998C8.99944 15.8998 8.99944 15.8998 8.99944 15.8998C8.99944 15.8998 8.99944 15.8998 8.99944 15.8998C8.99944 15.8998 8.99944 15.8998 8.99944 15.8998C8.99944 15.8998 8.99944 15.8998 8.99944 15.8998C8.99944 15.8998 8.99944 15.8998 8.99944 15.8998C8.99944 15.8998 8.99944 15.8998 8.99944 15.8998C8.99944 15.8998 8.99944 15.8998 8.99943 15.8998C8.99943 15.8998 8.99943 15.8998 8.99943 15.8998C8.99943 15.8998 8.99943 15.8998 8.99943 15.8998C8.99943 15.8998 8.99943 15.8998 8.99943 15.8998C8.99943 15.8998 8.99943 15.8998 8.99943 15.8998C8.99943 15.8998 8.99943 15.8998 8.99943 15.8998C8.99943 15.8998 8.99943 15.8998 8.99943 15.8998C8.99943 15.8998 8.99943 15.8998 8.99943 15.8998C8.99943 15.8998 8.99943 15.8998 8.99943 15.8998C8.99943 15.8998 8.99943 15.8998 8.99943 15.8998C8.99943 15.8998 8.99943 15.8998 8.99943 15.8998C8.99943 15.8998 8.99943 15.8998 8.99943 15.8998C8.99943 15.8998 8.99943 15.8998 8.99943 15.8998C8.99943 15.8998 8.99943 15.8998 8.99943 15.8998C8.99943 15.8998 8.99943 15.8998 8.99943 15.8998C8.99943 15.8998 8.99943 15.8998 8.99943 15.8998C8.99943 15.8998 8.99943 15.8998 8.99943 15.8998C8.99943 15.8998 8.99943 15.8998 8.99943 15.8998C8.99942 15.8998 8.99942 15.8998 8.99942 15.8998C8.99942 15.8998 8.99942 15.8998 8.99942 15.8998C8.99942 15.8998 8.99942 15.8998 8.99942 15.8998C8.99942 15.8998 8.99942 15.8998 8.99942 15.8998C8.99942 15.8998 8.99942 15.8998 8.99942 15.8998C8.99942 15.8998 8.99942 15.8998 8.99942 15.8998C8.99942 15.8998 8.99942 15.8998 8.99942 15.8998C8.99942 15.8998 8.99942 15.8998 8.99942 15.8998C8.99942 15.8998 8.99942 15.8998 8.99942 15.8998C8.99942 15.8998 8.99942 15.8998 8.99942 15.8998C8.99942 15.8998 8.99942 15.8998 8.99942 15.8998C8.99942 15.8998 8.99942 15.8998 8.99942 15.8998C8.99942 15.8998 8.99942 15.8998 8.99942 15.8998C8.99942 15.8998 8.99942 15.8998 8.99942 15.8998C8.99942 15.8998 8.99942 15.8998 8.99942 15.8998C8.99942 15.8998 8.99942 15.8998 8.99942 15.8998C8.99942 15.8998 8.99942 15.8998 8.99942 15.8998C8.99942 15.8998 8.99942 15.8998 8.99942 15.8998C8.99942 15.8998 8.99942 15.8998 8.99942 15.8998C8.99942 15.8998 8.99942 15.8998 8.99942 15.8998C8.99942 15.8998 8.99942 15.8998 8.99942 15.8998C8.99942 15.8998 8.99942 15.8998 8.99942 15.8998C8.99942 15.8998 8.99942 15.8998 8.99942 15.8998C8.99942 15.8998 8.99942 15.8998 8.99942 15.8998C8.99942 15.8998 8.99942 15.8998 8.99942 15.8998C8.99942 15.8998 8.99942 15.8998 8.99942 15.8998C8.99942 15.8998 8.99942 15.8998 8.99942 15.8998C8.99942 15.8998 8.99942 15.8998 8.99942 15.8998C8.99942 15.8998 8.99942 15.8998 8.99942 15.8998C8.99942 15.8998 8.99942 15.8998 8.99942 15.8998C8.99942 15.8998 8.99942 15.8998 8.99942 15.8998C8.99941 15.8998 8.99941 15.8998 8.99941 15.8998C8.99941 15.8998 8.99941 15.8998 8.99941 15.8998C8.99941 15.8998 8.99941 15.8998 8.99941 15.8998C8.99941 15.8998 8.99941 15.8998 8.99941 15.8998C8.99941 15.8998 8.99941 15.8998 8.99941 15.8998C8.99941 15.8998 8.99941 15.8998 8.99941 15.8998C8.99941 15.8998 8.99941 15.8998 8.99941 15.8998C8.99941 15.8998 8.99941 15.8998 8.99941 15.8998C8.99941 15.8998 8.99941 15.8998 8.99941 15.8998C8.99941 15.8998 8.99941 15.9998 8.99941 16.0998C8.99941 16.0998 8.99941 16.0998 8.99941 16.0998C8.99941 16.0998 8.99941 16.0998 8.99941 16.0998C8.99941 16.0998 8.99941 16.0998 8.99941 16.0998C8.99941 16.0998 8.99941 16.0998 8.99941 16.0998C8.99941 16.0998 8.99941 16.0998 8.99941 16.0998C8.99941 16.0998 8.99941 16.0998 8.99941 16.0998C8.99941 16.0998 8.99941 16.0998 8.99941 16.0998C8.99941 16.0998 8.99941 16.0998 8.99941 16.0998C8.99941 16.0998 8.99941 16.0998 8.99941 16.0998C8.99942 16.0998 8.99942 16.0998 8.99942 16.0998C8.99942 16.0998 8.99942 16.0998 8.99942 16.0998C8.99942 16.0998 8.99942 16.0998 8.99942 16.0998C8.99942 16.0998 8.99942 16.0998 8.99942 16.0998C8.99942 16.0998 8.99942 16.0998 8.99942 16.0998C8.99942 16.0998 8.99942 16.0998 8.99942 16.0998C8.99942 16.0998 8.99942 16.0998 8.99942 16.0998C8.99942 16.0998 8.99942 16.0998 8.99942 16.0998C8.99942 16.0998 8.99942 16.0998 8.99942 16.0998C8.99942 16.0998 8.99942 16.0998 8.99942 16.0998C8.99942 16.0998 8.99942 16.0998 8.99942 16.0998C8.99942 16.0998 8.99942 16.0998 8.99942 16.0998C8.99942 16.0998 8.99942 16.0998 8.99942 16.0998C8.99942 16.0998 8.99942 16.0998 8.99942 16.0998C8.99942 16.0998 8.99942 16.0998 8.99942 16.0998C8.99942 16.0998 8.99942 16.0998 8.99942 16.0998C8.99942 16.0998 8.99942 16.0998 8.99942 16.0998C8.99942 16.0998 8.99942 16.0998 8.99942 16.0998C8.99942 16.0998 8.99942 16.0998 8.99942 16.0998C8.99942 16.0998 8.99942 16.0998 8.99942 16.0998C8.99942 16.0998 8.99942 16.0998 8.99942 16.0998C8.99942 16.0998 8.99942 16.0998 8.99942 16.0998C8.99942 16.0998 8.99942 16.0998 8.99942 16.0998C8.99942 16.0998 8.99942 16.0998 8.99942 16.0998C8.99942 16.0998 8.99942 16.0998 8.99942 16.0998C8.99942 16.0998 8.99942 16.0998 8.99942 16.0998C8.99942 16.0998 8.99942 16.0998 8.99942 16.0998C8.99942 16.0998 8.99942 16.0998 8.99942 16.0998C8.99943 16.0998 8.99943 16.0998 8.99943 16.0998C8.99943 16.0998 8.99943 16.0998 8.99943 16.0998C8.99943 16.0998 8.99943 16.0998 8.99943 16.0998C8.99943 16.0998 8.99943 16.0998 8.99943 16.0998C8.99943 16.0998 8.99943 16.0998 8.99943 16.0998C8.99943 16.0998 8.99943 16.0998 8.99943 16.0998C8.99943 16.0998 8.99943 16.0998 8.99943 16.0998C8.99943 16.0998 8.99943 16.0998 8.99943 16.0998C8.99943 16.0998 8.99943 16.0998 8.99943 16.0998C8.99943 16.0998 8.99943 16.0998 8.99943 16.0998C8.99943 16.0998 8.99943 16.0998 8.99943 16.0998C8.99943 16.0998 8.99943 16.0998 8.99943 16.0998C8.99943 16.0998 8.99943 16.0998 8.99943 16.0998C8.99943 16.0998 8.99943 16.0998 8.99944 16.0998C8.99944 16.0998 8.99944 16.0998 8.99944 16.0998C8.99944 16.0998 8.99944 16.0998 8.99944 16.0998C8.99944 16.0998 8.99944 16.0998 8.99944 16.0998C8.99944 16.0998 8.99944 16.0998 8.99944 16.0998C8.99944 16.0998 8.99944 16.0998 8.99944 16.0998C8.99944 16.0998 8.99944 16.0998 8.99944 16.0998C8.99944 16.0998 8.99944 16.0998 8.99944 16.0998C8.99944 16.0998 8.99944 16.0998 8.99944 16.0998C8.99944 16.0998 8.99944 16.0998 8.99944 16.0998C8.99944 16.0998 8.99944 16.0998 8.99944 16.0998C8.99944 16.0998 8.99945 16.0998 8.99945 16.0998C8.99945 16.0998 8.99945 16.0998 8.99945 16.0998C8.99945 16.0998 8.99945 16.0998 8.99945 16.0998C8.99945 16.0998 8.99945 16.0998 8.99945 16.0998C8.99945 16.0998 8.99945 16.0998 8.99945 16.0998C8.99945 16.0998 8.99945 16.0998 8.99945 16.0998C8.99945 16.0998 8.99945 16.0998 8.99945 16.0998C8.99945 16.0998 8.99945 16.0998 8.99945 16.0998C8.99945 16.0998 8.99945 16.0998 8.99945 16.0998C8.99946 16.0998 8.99946 16.0998 8.99946 16.0998C8.99946 16.0998 8.99946 16.0998 8.99946 16.0998C8.99946 16.0998 8.99946 16.0998 8.99946 16.0998C8.99946 16.0998 8.99946 16.0998 8.99946 16.0998C8.99946 16.0998 8.99946 16.0998 8.99946 16.0998C8.99946 16.0998 8.99946 16.0998 8.99946 16.0998C8.99946 16.0998 8.99946 16.0998 8.99946 16.0998C8.99946 16.0998 8.99946 16.0998 8.99947 16.0998C8.99947 16.0998 8.99947 16.0998 8.99947 16.0998C8.99947 16.0998 8.99947 16.0998 8.99947 16.0998C8.99947 16.0998 8.99947 16.0998 8.99947 16.0998C8.99947 16.0998 8.99947 16.0998 8.99947 16.0998C8.99947 16.0998 8.99947 16.0998 8.99947 16.0998C8.99947 16.0998 8.99947 16.0998 8.99947 16.0998C8.99947 16.0998 8.99948 16.0998 8.99948 16.0998C8.99948 16.0998 8.99948 16.0998 8.99948 16.0998C8.99948 16.0998 8.99948 16.0998 8.99948 16.0998C8.99948 16.0998 8.99948 16.0998 8.99948 16.0998C8.99948 16.0998 8.99948 16.0998 8.99948 16.0998C8.99948 16.0998 8.99948 16.0998 8.99948 16.0998C8.99948 16.0998 8.99948 16.0998 8.99949 16.0998C8.99949 16.0998 8.99949 16.0998 8.99949 16.0998C8.99949 16.0998 8.99949 16.0998 8.99949 16.0998C8.99949 16.0998 8.99949 16.0998 8.99949 16.0998C8.99949 16.0998 8.99949 16.0998 8.99949 16.0998C8.99949 16.0998 8.99949 16.0998 8.99949 16.0998C8.99949 16.0998 8.9995 16.0998 8.9995 16.0998C8.9995 16.0998 8.9995 16.0998 8.9995 16.0998C8.9995 16.0998 8.9995 16.0998 8.9995 16.0998C8.9995 16.0998 8.9995 16.0998 8.9995 16.0998C8.9995 16.0998 8.9995 16.0998 8.9995 16.0998C8.9995 16.0998 8.9995 16.0998 8.99951 16.0998C8.99951 16.0998 8.99951 16.0998 8.99951 16.0998C8.99951 16.0998 8.99951 16.0998 8.99951 16.0998C8.99951 16.0998 8.99951 16.0998 8.99951 16.0998C8.99951 16.0998 8.99951 16.0998 8.99951 16.0998C8.99951 16.0998 8.99951 16.0998 8.99952 16.0998C8.99952 16.0998 8.99952 16.0998 8.99952 16.0998V15.8998ZM8.99952 15.8998C8.65262 15.8998 8.32687 15.7508 8.08386 15.4779L7.93449 15.6109C8.21362 15.9244 8.59285 16.0998 8.99952 16.0998V15.8998ZM8.08348 15.4775L1.85715 8.56474L1.70854 8.69859L7.93487 15.6113L8.08348 15.4775ZM1.85356 8.56096C1.86545 8.57286 1.8712 8.58548 1.87086 8.5848L1.69197 8.67425C1.69235 8.675 1.69881 8.68905 1.71213 8.70238L1.85356 8.56096ZM1.85283 8.55952C0.17854 6.85136 0.182074 4.08387 1.86538 2.38136L1.72316 2.24074C-0.0370463 4.02103 -0.0406549 6.91345 1.71 8.69952L1.85283 8.55952ZM1.86536 2.38139C2.68311 1.55491 3.76968 1.1 4.92601 1.1V0.9C3.71594 0.9 2.57827 1.37651 1.72319 2.24072L1.86536 2.38139ZM4.92601 1.1C6.08198 1.1 7.16892 1.55491 7.98666 2.38139L8.12883 2.24072C7.27375 1.3765 6.13571 0.9 4.92601 0.9V1.1ZM7.98704 2.38176C7.98143 2.37616 7.97749 2.3708 7.97489 2.3668C7.97361 2.36484 7.97264 2.36319 7.972 2.36206C7.97139 2.36099 7.97096 2.36018 7.97093 2.36012C7.97068 2.35965 7.97126 2.36075 7.97163 2.36142C7.97213 2.36235 7.9731 2.36413 7.97441 2.36628C7.97693 2.37044 7.98191 2.37806 7.98989 2.38605L8.13131 2.24463C8.13876 2.25208 8.14329 2.25907 8.14541 2.26255C8.1465 2.26436 8.14728 2.26579 8.14759 2.26635C8.14775 2.26666 8.14814 2.26739 8.14769 2.26654C8.147 2.26525 8.14069 2.25258 8.12846 2.24034L7.98704 2.38176ZM7.98989 2.38605C7.99623 2.39239 8.00231 2.39685 8.00682 2.39981C8.00901 2.40126 8.01088 2.40237 8.01213 2.40309C8.01327 2.40376 8.0143 2.40432 8.01436 2.40436C8.01527 2.40486 8.01242 2.40333 8.0092 2.40122C8.00548 2.39877 8.00016 2.39489 7.99454 2.38926L8.13596 2.24784C8.12962 2.2415 8.12354 2.23704 8.11904 2.23408C8.11684 2.23263 8.11497 2.23152 8.11372 2.23079C8.11258 2.23013 8.11155 2.22956 8.11149 2.22953C8.11058 2.22902 8.11343 2.23055 8.11665 2.23267C8.12037 2.23512 8.12569 2.239 8.13131 2.24463L7.98989 2.38605ZM7.99213 2.38677L8.9264 3.38818L9.07264 3.25175L8.13837 2.25033L7.99213 2.38677ZM9.0726 3.38822L10.0079 2.38681L9.86178 2.25029L8.92644 3.2517L9.0726 3.38822ZM10.0056 2.38926C9.99995 2.39488 9.99463 2.39877 9.99091 2.40122C9.98769 2.40333 9.98485 2.40486 9.98575 2.40436C9.98582 2.40432 9.98684 2.40376 9.98799 2.40309C9.98923 2.40237 9.9911 2.40125 9.9933 2.39981C9.9978 2.39685 10.0039 2.39238 10.0102 2.38605L9.86879 2.24463C9.87442 2.239 9.87973 2.23512 9.88346 2.23267C9.88667 2.23056 9.88952 2.22903 9.88861 2.22953C9.88855 2.22957 9.88753 2.23013 9.88638 2.2308C9.88513 2.23152 9.88326 2.23263 9.88107 2.23408C9.87656 2.23704 9.87049 2.2415 9.86415 2.24784L10.0056 2.38926ZM10.0195 2.37534C10.023 2.3707 10.0254 2.36669 10.0268 2.36432C10.0274 2.36319 10.0279 2.36226 10.0281 2.36198C10.0284 2.36144 10.0281 2.36189 10.028 2.36222C10.0266 2.36467 10.0218 2.37305 10.0131 2.38176L9.87165 2.24034C9.86151 2.25048 9.85582 2.26029 9.85364 2.26416C9.85341 2.26459 9.85321 2.26494 9.85309 2.26515C9.85304 2.26525 9.85299 2.26535 9.85296 2.2654C9.85292 2.26546 9.85292 2.26547 9.85291 2.26548C9.85287 2.26556 9.85319 2.26498 9.85363 2.26421C9.85459 2.26256 9.85656 2.25926 9.8595 2.25534L10.0195 2.37534ZM10.0134 2.38139C10.8312 1.55491 11.9181 1.1 13.0741 1.1V0.9C11.8644 0.9 10.7264 1.3765 9.87128 2.24072L10.0134 2.38139ZM13.0741 1.1C14.2304 1.1 15.317 1.55491 16.1351 2.3814L16.2773 2.2407C15.4218 1.37651 14.2842 0.9 13.0741 0.9V1.1ZM16.135 2.38132C17.8166 4.08385 17.8201 6.85174 16.1473 8.55955L16.2901 8.6995C18.0393 6.91379 18.0357 4.02106 16.2773 2.24078L16.135 2.38132ZM15.7752 2.74501C15.0543 2.01613 14.0945 1.61427 13.0741 1.61427V1.81427C14.0408 1.81427 14.9495 2.19455 15.633 2.88564L15.7752 2.74501ZM13.0741 1.61427C12.0566 1.61427 11.0993 2.01431 10.3786 2.73985L10.5204 2.88081C11.2039 2.1928 12.1102 1.81427 13.0741 1.81427V1.61427ZM10.3764 2.74206L9.18466 4.01776L9.3308 4.15429L10.5226 2.87859L10.3764 2.74206ZM9.18702 4.01531C9.19223 4.0101 9.19696 4.00667 9.19963 4.00486C9.20197 4.00328 9.20397 4.00214 9.20275 4.00286C9.20245 4.00303 9.19894 4.00506 9.19515 4.00763C9.19102 4.01042 9.18491 4.01492 9.17845 4.02138L9.31987 4.16281C9.31465 4.16802 9.30993 4.17145 9.30725 4.17326C9.30491 4.17484 9.30291 4.17598 9.30414 4.17526C9.30443 4.17508 9.30795 4.17305 9.31174 4.17049C9.31587 4.1677 9.32198 4.1632 9.32844 4.15673L9.18702 4.01531ZM9.17845 4.02138C9.17254 4.02729 9.16826 4.03287 9.16537 4.037C9.16275 4.04075 9.16067 4.04421 9.16043 4.0446C9.15969 4.04582 9.16078 4.04397 9.16231 4.04178C9.16411 4.03921 9.16719 4.03514 9.17166 4.03067L9.31308 4.17209C9.31899 4.16619 9.32327 4.1606 9.32616 4.15647C9.32878 4.15272 9.33086 4.14926 9.33109 4.14888C9.33184 4.14766 9.33075 4.14951 9.32922 4.15169C9.32742 4.15426 9.32434 4.15833 9.31987 4.16281L9.17845 4.02138ZM9.1735 4.02888C9.16392 4.03798 9.15715 4.03962 9.12102 4.06004L9.21944 4.23415C9.2326 4.22671 9.27796 4.2055 9.31125 4.17388L9.1735 4.02888ZM9.11984 4.06072C9.11293 4.06475 9.10708 4.06878 9.10287 4.07177C9.10075 4.07328 9.09876 4.07473 9.09722 4.07586C9.09553 4.0771 9.09442 4.07792 9.09329 4.07873C9.08817 4.08242 9.09048 4.08019 9.09601 4.07801L9.16945 4.26404C9.18855 4.2565 9.20319 4.24605 9.21021 4.24099C9.21211 4.23962 9.21403 4.23822 9.21536 4.23724C9.21685 4.23615 9.2179 4.23538 9.21884 4.23472C9.22075 4.23336 9.2211 4.23319 9.22062 4.23347L9.11984 4.06072ZM9.09493 4.07844C9.06282 4.09155 9.03062 4.09816 8.99952 4.09816V4.29816C9.05912 4.29816 9.11693 4.28549 9.17053 4.2636L9.09493 4.07844ZM8.99952 4.09816C8.96841 4.09816 8.93622 4.09155 8.90411 4.07844L8.8285 4.2636C8.88211 4.28549 8.93991 4.29816 8.99952 4.29816V4.09816ZM8.90302 4.07801C8.90876 4.08027 8.91139 4.08273 8.90577 4.0787C8.9043 4.07764 8.89924 4.07393 8.89521 4.07114C8.89051 4.0679 8.88407 4.06365 8.87636 4.05948L8.78126 4.23542C8.78068 4.23511 8.77977 4.23443 8.78907 4.24112C8.79551 4.24574 8.81028 4.25641 8.82959 4.26404L8.90302 4.07801ZM8.87801 4.06039C8.84389 4.04111 8.83528 4.03798 8.82494 4.02831L8.68839 4.17445C8.72162 4.2055 8.76444 4.22594 8.7796 4.23451L8.87801 4.06039ZM8.82738 4.03067C8.8359 4.03919 8.84041 4.04759 8.83969 4.04634C8.83962 4.04622 8.8396 4.04619 8.83941 4.04587C8.83927 4.04562 8.83904 4.04522 8.83877 4.04476C8.83824 4.04386 8.83737 4.0424 8.83628 4.04069C8.8341 4.03727 8.83054 4.03202 8.82549 4.02624L8.67498 4.15795C8.67118 4.1536 8.66869 4.14987 8.66751 4.14801C8.66667 4.1467 8.66574 4.14508 8.66695 4.14714C8.66809 4.1491 8.67458 4.16071 8.68595 4.17209L8.82738 4.03067ZM8.81609 4.01684C8.81102 4.01241 8.80638 4.00912 8.80293 4.00686C8.79978 4.00479 8.7969 4.00312 8.79647 4.00286C8.79538 4.00222 8.79675 4.003 8.7984 4.00409C8.80035 4.00537 8.80352 4.00759 8.80716 4.01077L8.67546 4.16128C8.68052 4.16571 8.68516 4.169 8.68861 4.17126C8.69176 4.17333 8.69464 4.175 8.69507 4.17525C8.69616 4.17589 8.6948 4.17512 8.69315 4.17403C8.69119 4.17275 8.68802 4.17053 8.68439 4.16735L8.81609 4.01684ZM8.81443 4.01781L7.62695 2.74497L7.48071 2.8814L8.66819 4.15424L8.81443 4.01781ZM7.62484 2.74278C6.90371 2.01541 5.94535 1.61427 4.92601 1.61427V1.81427C5.89164 1.81427 6.79897 2.19384 7.48281 2.88359L7.62484 2.74278ZM4.92601 1.61427C3.90558 1.61427 2.94613 2.01614 2.22463 2.74498L2.36676 2.88568C3.05095 2.19454 3.95933 1.81427 4.92601 1.81427V1.61427ZM2.22457 2.74503C0.735029 4.25217 0.735005 6.70304 2.22459 8.20949L2.3668 8.06886C0.954285 6.64035 0.954261 4.31487 2.36682 2.88562L2.22457 2.74503ZM2.22498 8.20989C2.21869 8.2036 2.21467 8.19774 2.21253 8.19435C2.21064 8.19136 2.2093 8.18875 2.20996 8.18998C2.21002 8.19009 2.21207 8.19404 2.21476 8.1983C2.21771 8.20297 2.22262 8.21002 2.22998 8.21738L2.3714 8.07596C2.37769 8.08225 2.38171 8.0881 2.38386 8.0915C2.38575 8.09449 2.38709 8.0971 2.38643 8.09586C2.38637 8.09576 2.38432 8.09181 2.38163 8.08755C2.37868 8.08288 2.37377 8.07583 2.3664 8.06846L2.22498 8.20989ZM2.22387 8.21069C2.23195 8.22039 2.24021 8.22676 2.24576 8.23056C2.24847 8.23241 2.25075 8.23379 2.25205 8.23456C2.25301 8.23513 2.25449 8.23598 2.25393 8.23566C2.25392 8.23565 2.25282 8.23502 2.25136 8.2341C2.24984 8.23314 2.24753 8.23161 2.24484 8.22955C2.2392 8.22524 2.2322 8.21883 2.22575 8.2098L2.3885 8.09355C2.37394 8.07318 2.35564 8.06344 2.35388 8.06242C2.35275 8.06177 2.35365 8.06229 2.35403 8.06251C2.35476 8.06295 2.35648 8.06398 2.35864 8.06546C2.3631 8.06851 2.37033 8.07403 2.37752 8.08266L2.22387 8.21069ZM2.23282 8.2186L8.46058 15.1328L8.60919 14.9989L2.38142 8.08475L2.23282 8.2186ZM8.46026 15.1324C8.60408 15.2937 8.79467 15.3851 8.99916 15.3851V15.1851C8.85723 15.1851 8.71925 15.1223 8.60951 14.9993L8.46026 15.1324ZM8.99916 15.3851C9.20374 15.3851 9.39513 15.2939 9.5381 15.1335L9.38878 15.0004C9.28032 15.1221 9.14172 15.1851 8.99916 15.1851V15.3851ZM9.53774 15.1339L15.7673 8.21861L15.6187 8.08474L9.38914 15L9.53774 15.1339ZM15.7698 8.21569C15.7646 8.22196 15.7594 8.22646 15.7555 8.22945C15.752 8.23221 15.749 8.234 15.749 8.23401C15.749 8.23403 15.749 8.23406 15.7492 8.23392C15.7493 8.23383 15.7497 8.23361 15.7501 8.23336C15.7509 8.23286 15.7523 8.23192 15.7541 8.23071C15.7577 8.22829 15.7635 8.22402 15.7698 8.21774L15.6283 8.07632C15.6337 8.07094 15.6386 8.06743 15.6411 8.06571C15.6424 8.06485 15.6433 8.06424 15.6436 8.06408C15.6437 8.06399 15.6438 8.06394 15.6437 8.06402C15.6436 8.06405 15.6433 8.06424 15.643 8.06443C15.6411 8.06562 15.6281 8.07339 15.6162 8.08766L15.7698 8.21569ZM15.775 8.21211C15.7799 8.20641 15.7833 8.20119 15.7856 8.19752C15.7867 8.19571 15.7876 8.19417 15.7882 8.19318C15.7884 8.19268 15.7887 8.19225 15.7888 8.19197C15.7889 8.19183 15.789 8.19171 15.789 8.19163C15.7891 8.19153 15.7891 8.19149 15.7891 8.19146C15.7895 8.19084 15.7881 8.19332 15.7861 8.19637C15.7839 8.19978 15.7802 8.20484 15.7748 8.21024L15.6333 8.06882C15.6269 8.0753 15.6223 8.08151 15.6192 8.08614C15.6164 8.0904 15.6144 8.09416 15.614 8.09484C15.6131 8.09645 15.6141 8.09457 15.6153 8.0927C15.6167 8.09033 15.6193 8.08641 15.6231 8.08195L15.775 8.21211ZM15.7752 8.20981C17.2637 6.70302 17.2636 4.2522 15.7752 2.74506L15.6329 2.8856C17.0444 4.31484 17.0444 6.64038 15.6329 8.06925L15.7752 8.20981Z" fill="#515855" mask="url(#path-1-outside-1)"/>
</svg>
