<?xml version="1.0" encoding="UTF-8"?>
<svg xmlns="http://www.w3.org/2000/svg" xmlns:xlink="http://www.w3.org/1999/xlink" width="50pt" height="50pt" viewBox="0 0 50 50" version="1.1">
<g id="surface1">
<path style=" stroke:none;fill-rule:nonzero;fill:rgb(0%,0%,0%);fill-opacity:1;" d="M 10.160156 9.613281 L 15.9375 12.152344 C 14.789062 13.84375 14.191406 15.785156 14.191406 17.828125 C 14.191406 23.40625 18.726562 27.988281 24.351562 27.988281 C 29.980469 27.988281 34.511719 23.457031 34.511719 17.828125 C 34.511719 15.835938 33.914062 13.84375 32.820312 12.203125 L 37.898438 9.8125 L 37.898438 19.472656 L 36.355469 22.757812 C 36.253906 23.007812 36.253906 23.257812 36.40625 23.457031 C 36.554688 23.65625 36.804688 23.804688 37.050781 23.804688 L 39.988281 23.804688 C 40.238281 23.804688 40.488281 23.707031 40.585938 23.457031 C 40.738281 23.257812 40.738281 23.007812 40.636719 22.757812 L 39.292969 19.472656 L 39.292969 9.164062 C 39.292969 8.765625 39.242188 8.464844 38.546875 8.167969 C 38.394531 8.117188 24.703125 2.042969 24.703125 2.042969 C 24.503906 1.941406 24.304688 1.941406 24.105469 2.042969 L 10.160156 8.21875 C 9.910156 8.316406 9.710938 8.617188 9.710938 8.914062 C 9.710938 9.214844 9.859375 9.460938 10.160156 9.613281 Z M 32.96875 17.828125 C 32.96875 22.609375 29.082031 26.492188 24.304688 26.492188 C 19.523438 26.492188 15.636719 22.609375 15.636719 17.828125 C 15.636719 15.984375 16.234375 14.242188 17.28125 12.75 L 24.054688 15.785156 C 24.152344 15.835938 24.253906 15.835938 24.351562 15.835938 C 24.453125 15.835938 24.550781 15.835938 24.652344 15.785156 L 31.324219 12.796875 C 32.421875 14.292969 32.96875 16.035156 32.96875 17.828125 Z M 38.195312 22.3125 L 38.546875 21.5625 L 38.84375 22.3125 Z M 24.402344 3.535156 L 36.503906 8.914062 L 24.402344 14.292969 L 12.300781 8.914062 Z M 24.402344 3.535156 "/>
<path style=" stroke:none;fill-rule:nonzero;fill:rgb(0%,0%,0%);fill-opacity:1;" d="M 24.601562 29.78125 C 14.890625 29.78125 6.972656 37.699219 6.972656 47.410156 C 6.972656 47.808594 7.320312 48.15625 7.71875 48.15625 L 41.484375 48.15625 C 41.882812 48.15625 42.230469 47.808594 42.230469 47.410156 C 42.230469 37.699219 34.3125 29.78125 24.601562 29.78125 Z M 8.515625 46.664062 C 8.914062 38.097656 15.984375 31.273438 24.652344 31.273438 C 33.316406 31.273438 40.339844 38.148438 40.738281 46.664062 Z M 8.515625 46.664062 "/>
</g>
</svg>
