<?xml version="1.0" encoding="UTF-8"?>
<svg xmlns="http://www.w3.org/2000/svg" xmlns:xlink="http://www.w3.org/1999/xlink" width="50pt" height="50pt" viewBox="0 0 50 50" version="1.1">
<g id="surface1">
<path style=" stroke:none;fill-rule:nonzero;fill:rgb(13.72549%,12.156863%,12.54902%);fill-opacity:1;" d="M 20.375 38.332031 C 19.785156 38.332031 19.21875 38.113281 18.789062 37.714844 L 10.300781 29.835938 C 9.371094 28.972656 9.328125 27.53125 10.203125 26.617188 C 11.078125 25.703125 12.539062 25.660156 13.46875 26.523438 L 20.242188 32.808594 L 35.859375 15.820312 C 36.714844 14.890625 38.175781 14.816406 39.121094 15.660156 C 40.066406 16.503906 40.136719 17.945312 39.28125 18.875 L 22.085938 37.582031 C 21.667969 38.039062 21.085938 38.304688 20.464844 38.328125 C 20.433594 38.332031 20.402344 38.332031 20.375 38.332031 Z M 20.375 38.332031 "/>
<path style=" stroke:none;fill-rule:nonzero;fill:rgb(13.72549%,12.156863%,12.54902%);fill-opacity:1;" d="M 47.691406 49.902344 L 2.308594 49.902344 C 1.035156 49.902344 0 48.882812 0 47.625 L 0 2.375 C 0 1.117188 1.035156 0.0976562 2.308594 0.0976562 L 47.691406 0.0976562 C 48.96875 0.0976562 50 1.117188 50 2.375 L 50 47.625 C 50 48.882812 48.96875 49.902344 47.691406 49.902344 Z M 4.617188 45.351562 L 45.382812 45.351562 L 45.382812 4.648438 L 4.617188 4.648438 Z M 4.617188 45.351562 "/>
</g>
</svg>
