<?xml version="1.0" encoding="UTF-8"?>
<svg xmlns="http://www.w3.org/2000/svg" xmlns:xlink="http://www.w3.org/1999/xlink" width="50pt" height="50pt" viewBox="0 0 50 50" version="1.1">
<g id="surface1">
<path style=" stroke:none;fill-rule:nonzero;fill:rgb(0%,0%,0%);fill-opacity:1;" d="M 46.289062 26.238281 L 42.574219 26.238281 L 42.574219 20.050781 C 42.574219 19.640625 42.242188 19.308594 41.832031 19.308594 L 30.199219 19.308594 L 30.199219 13.117188 C 30.199219 12.707031 29.867188 12.375 29.457031 12.375 L 4.207031 12.375 C 3.796875 12.375 3.464844 12.707031 3.464844 13.117188 L 3.464844 36.386719 C 3.464844 36.796875 3.796875 37.128906 4.207031 37.128906 L 9.863281 37.128906 C 10.070312 39.050781 11.695312 40.503906 13.625 40.503906 C 15.558594 40.503906 17.183594 39.050781 17.390625 37.128906 L 34 37.128906 C 34.210938 39.054688 35.835938 40.511719 37.769531 40.511719 C 39.707031 40.511719 41.332031 39.054688 41.539062 37.128906 L 46.289062 37.128906 C 46.695312 37.128906 47.03125 36.796875 47.03125 36.386719 L 47.03125 26.980469 C 47.03125 26.570312 46.695312 26.238281 46.289062 26.238281 Z M 13.613281 39.03125 C 12.679688 39.035156 11.835938 38.472656 11.476562 37.613281 C 11.113281 36.75 11.3125 35.753906 11.972656 35.09375 C 12.632812 34.433594 13.625 34.234375 14.488281 34.59375 C 15.351562 34.949219 15.914062 35.792969 15.910156 36.726562 C 15.910156 37.988281 14.894531 39.011719 13.632812 39.03125 Z M 13.613281 32.9375 C 11.945312 32.945312 10.480469 34.042969 10 35.644531 L 4.949219 35.644531 L 4.949219 13.863281 L 28.710938 13.863281 L 28.710938 35.644531 L 17.257812 35.644531 C 16.777344 34.039062 15.308594 32.941406 13.632812 32.9375 Z M 37.765625 39.03125 C 36.492188 39.03125 35.460938 37.996094 35.460938 36.722656 C 35.460938 35.445312 36.496094 34.414062 37.769531 34.414062 C 39.046875 34.417969 40.078125 35.453125 40.074219 36.726562 C 40.070312 38 39.039062 39.03125 37.765625 39.03125 Z M 45.542969 35.644531 L 41.402344 35.644531 C 40.914062 34.050781 39.445312 32.964844 37.78125 32.964844 C 36.113281 32.964844 34.644531 34.050781 34.160156 35.644531 L 30.199219 35.644531 L 30.199219 20.792969 L 41.089844 20.792969 L 41.089844 26.980469 C 41.089844 27.390625 41.421875 27.722656 41.832031 27.722656 L 45.542969 27.722656 Z M 45.542969 35.644531 "/>
<path style=" stroke:none;fill-rule:nonzero;fill:rgb(0%,0%,0%);fill-opacity:1;" d="M 8.167969 21.289062 L 23.265625 21.289062 L 20.792969 23.761719 C 20.59375 23.949219 20.511719 24.226562 20.578125 24.488281 C 20.644531 24.753906 20.851562 24.957031 21.113281 25.023438 C 21.378906 25.09375 21.65625 25.011719 21.839844 24.8125 L 25.171875 21.480469 C 25.460938 21.191406 25.460938 20.71875 25.171875 20.429688 L 21.839844 17.097656 C 21.546875 16.808594 21.070312 16.8125 20.78125 17.109375 C 20.492188 17.402344 20.496094 17.878906 20.792969 18.167969 L 22.425781 19.800781 L 8.167969 19.800781 C 7.757812 19.800781 7.425781 20.132812 7.425781 20.542969 C 7.425781 20.953125 7.757812 21.289062 8.167969 21.289062 Z M 8.167969 21.289062 "/>
<path style=" stroke:none;fill-rule:nonzero;fill:rgb(0%,0%,0%);fill-opacity:1;" d="M 24.257812 28.464844 C 24.257812 28.054688 23.925781 27.722656 23.515625 27.722656 L 8.464844 27.722656 L 10.890625 25.300781 C 11.179688 25.007812 11.175781 24.539062 10.882812 24.25 C 10.589844 23.960938 10.121094 23.964844 9.832031 24.257812 L 6.5 27.589844 C 6.210938 27.878906 6.210938 28.347656 6.5 28.636719 L 9.832031 31.96875 C 10.121094 32.261719 10.597656 32.265625 10.886719 31.972656 C 11.179688 31.679688 11.183594 31.207031 10.890625 30.914062 L 9.179688 29.207031 L 23.535156 29.207031 C 23.9375 29.195312 24.257812 28.867188 24.257812 28.464844 Z M 24.257812 28.464844 "/>
</g>
</svg>
