<svg width="50" height="50" viewBox="0 0 50 50" fill="none" xmlns="http://www.w3.org/2000/svg">
<path d="M38.6043 45.8542H28.9043C28.4578 45.8542 28.0957 45.4927 28.0957 45.0463V33.8132C28.0957 33.5865 28.1908 33.3705 28.358 33.2173L35.6305 26.5472L38.4724 22.1553C39.2145 21.0072 40.5521 20.4597 41.8383 20.689V10.6718C41.8383 9.00469 43.3928 7.54199 45.1651 7.54199C46.8907 7.54199 48.2948 8.94617 48.2948 10.6718V27.8219C48.2948 27.9995 48.236 28.1715 48.1282 28.3129L39.4129 39.7034V45.0463C39.4129 45.4927 39.0514 45.8542 38.6043 45.8542ZM29.7123 44.2377H37.7963V39.4293C37.7963 39.2516 37.8545 39.0793 37.963 38.9376L46.6777 27.5477V10.6718C46.6777 9.83733 45.9995 9.15886 45.1651 9.15886C44.2697 9.15886 43.4546 9.8804 43.4546 10.6718V21.4688C43.932 21.8897 44.2837 22.4434 44.4578 23.0672C44.7091 23.9691 44.5665 24.9405 44.0672 25.7324L41.0556 30.5004C41.0286 30.5426 40.9974 30.5833 40.9629 30.6201L35.7208 36.2371C35.416 36.5633 34.9039 36.5811 34.5789 36.2763C34.2522 35.9716 34.2346 35.46 34.5397 35.1339L39.7293 29.573L42.6998 24.8692C42.96 24.4571 43.0316 23.9715 42.9006 23.5015C42.7699 23.0325 42.4574 22.654 42.0219 22.436C41.2428 22.0465 40.3014 22.3032 39.8297 23.034L36.9319 27.512C36.8948 27.5697 36.8502 27.6223 36.7994 27.6686L29.7126 34.1687V44.2377H29.7123Z" fill="black"/>
<path d="M20.8199 45.8542H11.1193C10.6728 45.8542 10.3107 45.4927 10.3107 45.0463V39.7034L1.58559 28.3129C1.47717 28.1724 1.41895 27.9995 1.41895 27.8219V10.6718C1.41895 9.16123 2.31902 8.06213 3.95401 7.57586C4.02886 7.55358 4.1064 7.54199 4.18512 7.54199C7.5249 7.54199 7.88582 9.73098 7.88582 10.6718V20.6442C9.05532 20.5741 10.207 21.12 10.8777 22.1553L13.7137 26.5386L21.3519 33.2039C21.5271 33.3575 21.6281 33.5791 21.6281 33.8132V45.0463C21.6278 45.4927 21.2663 45.8542 20.8199 45.8542V45.8542ZM11.9275 44.2377H20.0113V34.1803L12.5647 27.682C12.5083 27.6324 12.4584 27.5756 12.4177 27.512L9.52021 23.034C9.04789 22.3044 8.10534 22.046 7.32765 22.4357C6.89187 22.6537 6.57967 23.0325 6.44867 23.5015C6.31797 23.9709 6.38866 24.4568 6.64888 24.8689L9.61943 29.5718L14.8102 35.1339C15.1149 35.4597 15.0974 35.9716 14.7709 36.2757C14.4457 36.5811 13.9333 36.5639 13.6285 36.2362L8.38606 30.6195C8.3513 30.5833 8.32071 30.5426 8.29338 30.5004L5.28214 25.7324C4.78219 24.9405 4.63991 23.9691 4.89121 23.0672C5.10777 22.2904 5.60147 21.6212 6.26895 21.1827V10.6718C6.26895 9.90328 6.02774 9.19124 4.30453 9.16005C3.18226 9.52958 3.03522 10.159 3.03522 10.6718V27.5477L11.7609 38.9376C11.869 39.0787 11.9272 39.2516 11.9272 39.4293V44.2377H11.9275Z" fill="black"/>
<path d="M24.271 25.2604C24.1647 25.2604 24.0583 25.2396 23.9585 25.1975C12.3856 20.3445 11.2036 13.2805 11.1151 12.5976C11.0337 12.1796 10.4562 8.83362 12.2573 6.34549C13.3047 4.89646 14.9233 4.04124 17.0666 3.8033C19.2876 3.55645 21.127 4.03203 22.5282 5.21787C23.3386 5.90407 23.892 6.73849 24.2707 7.54232C24.6489 6.73849 25.2032 5.90407 26.013 5.21787C27.4148 4.03173 29.2529 3.55585 31.474 3.8033C33.6178 4.04124 35.2359 4.89646 36.2839 6.34549C38.0846 8.83362 37.5075 12.1796 37.4261 12.5976C37.3379 13.2805 36.1559 20.3445 24.5832 25.1975C24.4831 25.2396 24.3771 25.2604 24.271 25.2604V25.2604ZM18.1621 5.3566C17.8674 5.3566 17.5618 5.37442 17.2454 5.40947C15.5742 5.59543 14.3366 6.22934 13.5667 7.2928C12.0989 9.32138 12.699 12.2732 12.7049 12.3029C12.7103 12.3299 12.7153 12.3576 12.7177 12.3852C12.7248 12.447 13.6074 18.9843 24.2707 23.5735C34.9332 18.9843 35.816 12.4461 35.8238 12.3801C35.8422 12.2753 36.4333 9.30088 34.9697 7.28537C34.1995 6.22607 32.9634 5.59513 31.2961 5.40888C29.5313 5.21282 28.1057 5.56424 27.0568 6.45154C25.2454 7.98553 25.0793 10.6159 25.0778 10.6424C25.0544 11.0707 24.6994 11.4055 24.2707 11.4055C23.8412 11.4055 23.4871 11.0707 23.4633 10.6424C23.4616 10.6174 23.2806 7.96444 21.4749 6.44441C20.6161 5.72108 19.5039 5.3566 18.1621 5.3566V5.3566Z" fill="black"/>
<path d="M32.946 11.5217C32.4996 11.5217 32.1372 11.1599 32.1372 10.7134C32.1372 9.59887 31.2308 8.69256 30.1166 8.69256C29.6701 8.69256 29.3086 8.33015 29.3086 7.88367C29.3086 7.4375 29.6701 7.07568 30.1166 7.07568C32.1223 7.07568 33.7546 8.70741 33.7546 10.7134C33.7546 11.1599 33.3922 11.5217 32.946 11.5217Z" fill="black"/>
</svg>
