<?xml version="1.0" encoding="UTF-8"?>
<svg xmlns="http://www.w3.org/2000/svg" xmlns:xlink="http://www.w3.org/1999/xlink" width="50pt" height="50pt" viewBox="0 0 50 50" version="1.1">
<g id="surface1">
<path style=" stroke:none;fill-rule:nonzero;fill:rgb(0%,0%,0%);fill-opacity:1;" d="M 10.644531 16.335938 C 10.234375 16.335938 9.902344 16.667969 9.902344 17.078125 L 9.902344 32.921875 C 9.902344 33.332031 10.234375 33.664062 10.644531 33.664062 C 11.054688 33.664062 11.386719 33.332031 11.386719 32.921875 L 11.386719 17.078125 C 11.386719 16.667969 11.054688 16.335938 10.644531 16.335938 Z M 10.644531 16.335938 "/>
<path style=" stroke:none;fill-rule:nonzero;fill:rgb(0%,0%,0%);fill-opacity:1;" d="M 14.605469 16.335938 C 14.195312 16.335938 13.863281 16.667969 13.863281 17.078125 L 13.863281 32.921875 C 13.863281 33.332031 14.195312 33.664062 14.605469 33.664062 C 15.015625 33.664062 15.347656 33.332031 15.347656 32.921875 L 15.347656 17.078125 C 15.347656 16.667969 15.015625 16.335938 14.605469 16.335938 Z M 14.605469 16.335938 "/>
<path style=" stroke:none;fill-rule:nonzero;fill:rgb(0%,0%,0%);fill-opacity:1;" d="M 17.078125 16.335938 C 16.667969 16.335938 16.335938 16.667969 16.335938 17.078125 L 16.335938 32.921875 C 16.335938 33.332031 16.667969 33.664062 17.078125 33.664062 C 17.488281 33.664062 17.820312 33.332031 17.820312 32.921875 L 17.820312 17.078125 C 17.820312 16.667969 17.488281 16.335938 17.078125 16.335938 Z M 17.078125 16.335938 "/>
<path style=" stroke:none;fill-rule:nonzero;fill:rgb(0%,0%,0%);fill-opacity:1;" d="M 31.4375 16.335938 C 31.027344 16.335938 30.691406 16.667969 30.691406 17.078125 L 30.691406 32.921875 C 30.691406 33.332031 31.027344 33.664062 31.4375 33.664062 C 31.847656 33.664062 32.179688 33.332031 32.179688 32.921875 L 32.179688 17.078125 C 32.179688 16.667969 31.847656 16.335938 31.4375 16.335938 Z M 31.4375 16.335938 "/>
<path style=" stroke:none;fill-rule:nonzero;fill:rgb(0%,0%,0%);fill-opacity:1;" d="M 33.910156 16.335938 C 33.5 16.335938 33.167969 16.667969 33.167969 17.078125 L 33.167969 32.921875 C 33.167969 33.332031 33.5 33.664062 33.910156 33.664062 C 34.320312 33.664062 34.652344 33.332031 34.652344 32.921875 L 34.652344 17.078125 C 34.652344 16.667969 34.320312 16.335938 33.910156 16.335938 Z M 33.910156 16.335938 "/>
<path style=" stroke:none;fill-rule:nonzero;fill:rgb(0%,0%,0%);fill-opacity:1;" d="M 22.523438 16.335938 C 22.113281 16.335938 21.78125 16.667969 21.78125 17.078125 L 21.78125 32.921875 C 21.78125 33.332031 22.113281 33.664062 22.523438 33.664062 C 22.933594 33.664062 23.265625 33.332031 23.265625 32.921875 L 23.265625 17.078125 C 23.265625 16.667969 22.933594 16.335938 22.523438 16.335938 Z M 22.523438 16.335938 "/>
<path style=" stroke:none;fill-rule:nonzero;fill:rgb(0%,0%,0%);fill-opacity:1;" d="M 27.476562 16.335938 C 27.066406 16.335938 26.734375 16.667969 26.734375 17.078125 L 26.734375 32.921875 C 26.734375 33.332031 27.066406 33.664062 27.476562 33.664062 C 27.886719 33.664062 28.21875 33.332031 28.21875 32.921875 L 28.21875 17.078125 C 28.21875 16.667969 27.886719 16.335938 27.476562 16.335938 Z M 27.476562 16.335938 "/>
<path style=" stroke:none;fill-rule:nonzero;fill:rgb(0%,0%,0%);fill-opacity:1;" d="M 40.59375 32.921875 L 40.59375 17.078125 C 40.59375 16.667969 40.261719 16.335938 39.851562 16.335938 C 39.441406 16.335938 39.109375 16.667969 39.109375 17.078125 L 39.109375 32.921875 C 39.109375 33.332031 39.441406 33.664062 39.851562 33.664062 C 40.261719 33.664062 40.59375 33.332031 40.59375 32.921875 Z M 40.59375 32.921875 "/>
<path style=" stroke:none;fill-rule:nonzero;fill:rgb(0%,0%,0%);fill-opacity:1;" d="M 5.199219 18.8125 C 5.609375 18.8125 5.941406 18.480469 5.941406 18.070312 L 5.941406 13.863281 L 10.148438 13.863281 C 10.558594 13.863281 10.890625 13.527344 10.890625 13.117188 C 10.890625 12.707031 10.558594 12.375 10.148438 12.375 L 5.199219 12.375 C 4.789062 12.375 4.457031 12.707031 4.457031 13.117188 L 4.457031 18.070312 C 4.457031 18.480469 4.789062 18.8125 5.199219 18.8125 Z M 5.199219 18.8125 "/>
<path style=" stroke:none;fill-rule:nonzero;fill:rgb(0%,0%,0%);fill-opacity:1;" d="M 45.296875 12.375 L 40.347656 12.375 C 39.9375 12.375 39.605469 12.707031 39.605469 13.117188 C 39.605469 13.527344 39.9375 13.863281 40.347656 13.863281 L 44.554688 13.863281 L 44.554688 18.070312 C 44.554688 18.480469 44.886719 18.8125 45.296875 18.8125 C 45.707031 18.8125 46.039062 18.480469 46.039062 18.070312 L 46.039062 13.117188 C 46.039062 12.707031 45.707031 12.375 45.296875 12.375 Z M 45.296875 12.375 "/>
<path style=" stroke:none;fill-rule:nonzero;fill:rgb(0%,0%,0%);fill-opacity:1;" d="M 10.148438 36.632812 L 5.941406 36.632812 L 5.941406 32.921875 C 5.941406 32.511719 5.609375 32.179688 5.199219 32.179688 C 4.789062 32.179688 4.457031 32.511719 4.457031 32.921875 L 4.457031 37.375 C 4.457031 37.785156 4.789062 38.117188 5.199219 38.117188 L 10.148438 38.117188 C 10.558594 38.117188 10.890625 37.785156 10.890625 37.375 C 10.890625 36.964844 10.558594 36.632812 10.148438 36.632812 Z M 10.148438 36.632812 "/>
<path style=" stroke:none;fill-rule:nonzero;fill:rgb(0%,0%,0%);fill-opacity:1;" d="M 45.296875 32.179688 C 44.886719 32.179688 44.554688 32.511719 44.554688 32.921875 L 44.554688 36.632812 L 40.347656 36.632812 C 39.9375 36.632812 39.605469 36.964844 39.605469 37.375 C 39.605469 37.785156 39.9375 38.117188 40.347656 38.117188 L 45.296875 38.117188 C 45.707031 38.117188 46.039062 37.785156 46.039062 37.375 L 46.039062 32.921875 C 46.039062 32.511719 45.707031 32.179688 45.296875 32.179688 Z M 45.296875 32.179688 "/>
</g>
</svg>
