<?xml version="1.0" encoding="UTF-8"?>
<svg xmlns="http://www.w3.org/2000/svg" xmlns:xlink="http://www.w3.org/1999/xlink" width="50pt" height="50pt" viewBox="0 0 50 50" version="1.1">
<g id="surface1">
<path style=" stroke:none;fill-rule:nonzero;fill:rgb(0%,0%,0%);fill-opacity:1;" d="M 41.148438 42.078125 L 8.96875 42.078125 C 8.558594 42.078125 8.226562 41.746094 8.226562 41.335938 C 8.226562 31.929688 15.777344 24.257812 25.058594 24.257812 C 34.339844 24.257812 41.890625 31.921875 41.890625 41.335938 C 41.890625 41.746094 41.558594 42.078125 41.148438 42.078125 Z M 9.734375 40.59375 L 40.390625 40.59375 C 40.011719 32.335938 33.277344 25.742188 25.042969 25.742188 C 16.8125 25.742188 10.113281 32.335938 9.734375 40.59375 Z M 9.734375 40.59375 "/>
<path style=" stroke:none;fill-rule:nonzero;fill:rgb(0%,0%,0%);fill-opacity:1;" d="M 25.246094 22.277344 C 19.507812 22.277344 14.851562 17.621094 14.851562 11.882812 C 14.851562 6.140625 19.507812 1.484375 25.246094 1.484375 C 30.988281 1.484375 35.644531 6.140625 35.644531 11.882812 C 35.644531 17.621094 30.988281 22.277344 25.246094 22.277344 Z M 25.246094 2.96875 C 20.328125 2.96875 16.335938 6.960938 16.335938 11.882812 C 16.335938 16.800781 20.328125 20.792969 25.246094 20.792969 C 30.167969 20.792969 34.160156 16.800781 34.160156 11.882812 C 34.160156 6.960938 30.167969 2.96875 25.246094 2.96875 Z M 25.246094 2.96875 "/>
<path style=" stroke:none;fill-rule:nonzero;fill:rgb(0%,0%,0%);fill-opacity:1;" d="M 25.058594 31.320312 C 21.640625 31.324219 18.28125 30.402344 15.347656 28.648438 C 15.019531 28.429688 14.921875 27.988281 15.125 27.648438 C 15.328125 27.3125 15.761719 27.191406 16.109375 27.375 C 21.621094 30.664062 28.496094 30.664062 34.011719 27.375 C 34.238281 27.222656 34.53125 27.207031 34.773438 27.335938 C 35.015625 27.46875 35.167969 27.71875 35.167969 27.992188 C 35.164062 28.269531 35.015625 28.519531 34.773438 28.648438 C 31.835938 30.402344 28.480469 31.324219 25.058594 31.320312 Z M 25.058594 31.320312 "/>
<path style=" stroke:none;fill-rule:nonzero;fill:rgb(0%,0%,0%);fill-opacity:1;" d="M 34.355469 9.578125 C 32.234375 9.648438 30.179688 8.8125 28.710938 7.277344 C 27.589844 7.914062 26.394531 8.414062 25.152344 8.761719 C 21.945312 9.636719 19.078125 9.1875 16.863281 7.460938 C 16.539062 7.207031 16.480469 6.742188 16.730469 6.417969 C 16.980469 6.09375 17.449219 6.035156 17.773438 6.289062 C 22.226562 9.753906 28.410156 5.746094 28.46875 5.703125 C 28.636719 5.589844 28.839844 5.550781 29.035156 5.59375 C 29.230469 5.632812 29.402344 5.753906 29.511719 5.921875 C 29.5625 6.003906 30.996094 8.109375 34.347656 8.109375 C 34.757812 8.109375 35.089844 8.441406 35.089844 8.851562 C 35.089844 9.261719 34.757812 9.59375 34.347656 9.59375 Z M 34.355469 9.578125 "/>
</g>
</svg>
