<svg width="50" height="50" viewBox="0 0 50 50" fill="none" xmlns="http://www.w3.org/2000/svg">
<path d="M13.2812 11.7188H30.4688C30.676 11.7188 30.8747 11.6364 31.0212 11.4899C31.1677 11.3434 31.25 11.1447 31.25 10.9375C31.25 10.7303 31.1677 10.5316 31.0212 10.3851C30.8747 10.2386 30.676 10.1562 30.4688 10.1562H13.2812C13.074 10.1562 12.8753 10.2386 12.7288 10.3851C12.5823 10.5316 12.5 10.7303 12.5 10.9375C12.5 11.1447 12.5823 11.3434 12.7288 11.4899C12.8753 11.6364 13.074 11.7188 13.2812 11.7188Z" fill="black"/>
<path d="M13.2812 16.4062H30.4688C30.676 16.4062 30.8747 16.3239 31.0212 16.1774C31.1677 16.0309 31.25 15.8322 31.25 15.625C31.25 15.4178 31.1677 15.2191 31.0212 15.0726C30.8747 14.9261 30.676 14.8438 30.4688 14.8438H13.2812C13.074 14.8438 12.8753 14.9261 12.7288 15.0726C12.5823 15.2191 12.5 15.4178 12.5 15.625C12.5 15.8322 12.5823 16.0309 12.7288 16.1774C12.8753 16.3239 13.074 16.4062 13.2812 16.4062Z" fill="black"/>
<path d="M13.2812 21.0938H30.4688C30.676 21.0938 30.8747 21.0114 31.0212 20.8649C31.1677 20.7184 31.25 20.5197 31.25 20.3125C31.25 20.1053 31.1677 19.9066 31.0212 19.7601C30.8747 19.6136 30.676 19.5312 30.4688 19.5312H13.2812C13.074 19.5312 12.8753 19.6136 12.7288 19.7601C12.5823 19.9066 12.5 20.1053 12.5 20.3125C12.5 20.5197 12.5823 20.7184 12.7288 20.8649C12.8753 21.0114 13.074 21.0938 13.2812 21.0938Z" fill="black"/>
<path d="M13.2812 25.7812H30.4688C30.676 25.7812 30.8747 25.6989 31.0212 25.5524C31.1677 25.4059 31.25 25.2072 31.25 25C31.25 24.7928 31.1677 24.5941 31.0212 24.4476C30.8747 24.3011 30.676 24.2188 30.4688 24.2188H13.2812C13.074 24.2188 12.8753 24.3011 12.7288 24.4476C12.5823 24.5941 12.5 24.7928 12.5 25C12.5 25.2072 12.5823 25.4059 12.7288 25.5524C12.8753 25.6989 13.074 25.7812 13.2812 25.7812Z" fill="black"/>
<path d="M13.2812 30.4688H19.5312C19.7385 30.4688 19.9372 30.3864 20.0837 30.2399C20.2302 30.0934 20.3125 29.8947 20.3125 29.6875C20.3125 29.4803 20.2302 29.2816 20.0837 29.1351C19.9372 28.9886 19.7385 28.9062 19.5312 28.9062H13.2812C13.074 28.9062 12.8753 28.9886 12.7288 29.1351C12.5823 29.2816 12.5 29.4803 12.5 29.6875C12.5 29.8947 12.5823 30.0934 12.7288 30.2399C12.8753 30.3864 13.074 30.4688 13.2812 30.4688Z" fill="black"/>
<path d="M44.1527 20.021C43.6163 19.7073 42.9773 19.6193 42.3761 19.7762C41.7748 19.9331 41.2604 20.3222 40.9456 20.858L39.0617 24.0723V4.6875C39.0617 4.4803 38.9794 4.28159 38.8329 4.13507C38.6864 3.98856 38.4877 3.90625 38.2805 3.90625H32.3541C32.3541 3.90625 30.0067 1.51562 29.9127 1.59609C29.8394 1.57385 29.7633 1.56253 29.6867 1.5625H7.03048C6.82328 1.5625 6.62457 1.64481 6.47806 1.79132C6.33154 1.93784 6.24923 2.13655 6.24923 2.34375V4.78643C5.57816 4.95942 4.98363 5.35056 4.55914 5.89835C4.13466 6.44614 3.9043 7.11949 3.9043 7.8125C3.9043 8.50551 4.13466 9.17886 4.55914 9.72665C4.98363 10.2744 5.57816 10.6656 6.24923 10.8386V12.5989C5.57816 12.7719 4.98363 13.1631 4.55914 13.7109C4.13466 14.2586 3.9043 14.932 3.9043 15.625C3.9043 16.318 4.13466 16.9914 4.55914 17.5391C4.98363 18.0869 5.57816 18.4781 6.24923 18.6511V20.4114C5.57816 20.5844 4.98363 20.9756 4.55914 21.5234C4.13466 22.0711 3.9043 22.7445 3.9043 23.4375C3.9043 24.1305 4.13466 24.8039 4.55914 25.3516C4.98363 25.8994 5.57816 26.2906 6.24923 26.4636V27.4427C5.57816 27.6157 4.98363 28.0068 4.55914 28.5546C4.13466 29.1024 3.9043 29.7757 3.9043 30.4688C3.9043 31.1618 4.13466 31.8351 4.55914 32.3829C4.98363 32.9307 5.57816 33.3218 6.24923 33.4948V38.2812C6.24923 38.4885 6.33154 38.6872 6.47806 38.8337C6.62457 38.9802 6.82328 39.0625 7.03048 39.0625H7.81173V41.4062C7.81173 41.6135 7.89404 41.8122 8.04056 41.9587C8.18707 42.1052 8.38578 42.1875 8.59298 42.1875H28.4457L27.9104 43.101C27.8624 43.1829 27.83 43.273 27.8146 43.3667C27.8138 43.3712 27.8125 43.375 27.8118 43.3796L27.8099 43.3924V43.3953L27.1849 47.5398C27.1616 47.6942 27.1851 47.8521 27.2524 47.993C27.3197 48.1339 27.4277 48.2514 27.5624 48.3303C27.6971 48.4092 27.8524 48.446 28.0082 48.4359C28.164 48.4257 28.3132 48.3691 28.4365 48.2733L31.7596 45.6934C31.9725 45.528 32.0765 45.4269 32.06 45.2911L33.8787 42.1875H38.2805C38.4877 42.1875 38.6864 42.1052 38.8329 41.9587C38.9794 41.8122 39.0617 41.6135 39.0617 41.4062V33.3436L44.9895 23.228C45.303 22.6916 45.3911 22.0527 45.2342 21.4515C45.0773 20.8503 44.6884 20.3358 44.1527 20.021V20.021ZM42.7704 21.2871C42.9199 21.2481 43.0777 21.2543 43.2236 21.3049C43.3696 21.3555 43.4973 21.4483 43.5906 21.5715C43.6839 21.6947 43.7385 21.8428 43.7476 21.997C43.7567 22.1513 43.7198 22.3048 43.6417 22.4381L43.2467 23.1119L41.899 22.3219L42.2942 21.648C42.3457 21.5594 42.4144 21.4818 42.4961 21.4199C42.5779 21.3579 42.6711 21.3128 42.7704 21.2871ZM31.0014 44.007L29.6537 43.217L39.9236 25.6923L41.2713 26.4823L31.0014 44.007ZM30.468 4.22988L33.2694 7.03125H30.468V4.22988ZM40.7137 24.3441L41.1086 23.6703L42.4568 24.4604L42.0617 25.1342L40.7137 24.3441ZM37.4992 5.46875V26.5625C37.4993 26.6132 37.5043 26.6637 37.5141 26.7135L35.9367 29.4051V7.8125C35.9368 7.71007 35.9167 7.60861 35.8776 7.51395C35.8385 7.41929 35.781 7.33328 35.7086 7.26084L35.7079 7.26006L33.9166 5.46875H37.4992ZM7.81173 3.125H28.9055V7.8125C28.9055 8.0197 28.9878 8.21841 29.1343 8.36493C29.2808 8.51144 29.4795 8.59375 29.6867 8.59375H34.3742V32.0713L31.1928 37.5H7.81173V33.4949C8.35259 33.3556 8.8462 33.0738 9.2411 32.6789C9.636 32.2839 9.91774 31.7903 10.0569 31.2494C10.1086 31.0487 10.0784 30.8357 9.97297 30.6572C9.86755 30.4788 9.69556 30.3495 9.49484 30.2979C9.39545 30.2723 9.292 30.2665 9.19039 30.2809C9.08878 30.2954 8.991 30.3296 8.90264 30.3818C8.72419 30.4872 8.59492 30.6592 8.54328 30.86C8.49151 31.0608 8.40013 31.2494 8.27451 31.4144C8.14888 31.5795 7.99155 31.7178 7.81173 31.8213V26.4637C8.35259 26.3244 8.8462 26.0426 9.2411 25.6476C9.636 25.2527 9.91774 24.759 10.0569 24.2182C10.1086 24.0174 10.0784 23.8044 9.97297 23.626C9.86755 23.4475 9.69556 23.3182 9.49484 23.2666C9.29411 23.215 9.08109 23.2452 8.90264 23.3506C8.72419 23.456 8.59492 23.628 8.54328 23.8287C8.49151 24.0296 8.40013 24.2181 8.27451 24.3832C8.14888 24.5483 7.99155 24.6866 7.81173 24.79V18.6512C8.35259 18.5119 8.8462 18.2301 9.2411 17.8351C9.636 17.4402 9.91774 16.9465 10.0569 16.4057C10.1086 16.2049 10.0784 15.9919 9.97297 15.8135C9.86755 15.635 9.69556 15.5057 9.49484 15.4541C9.29411 15.4025 9.08109 15.4327 8.90264 15.5381C8.72419 15.6435 8.59492 15.8155 8.54328 16.0162C8.49151 16.2171 8.40013 16.4056 8.27451 16.5707C8.14888 16.7358 7.99155 16.8741 7.81173 16.9775V10.8387C8.35259 10.6994 8.8462 10.4176 9.2411 10.0226C9.636 9.62769 9.91774 9.13404 10.0569 8.59316C10.1086 8.39244 10.0784 8.17942 9.97297 8.00097C9.86755 7.82251 9.69556 7.69325 9.49484 7.6416C9.29411 7.58996 9.08109 7.62017 8.90264 7.72558C8.72419 7.831 8.59492 8.00299 8.54328 8.20371C8.49151 8.40459 8.40013 8.59311 8.27451 8.75819C8.14888 8.92327 7.99155 9.0616 7.81173 9.16504V3.125ZM5.46798 7.8125C5.46835 7.53858 5.54072 7.26957 5.67784 7.03244C5.81496 6.7953 6.01201 6.59839 6.24923 6.46143V9.16357C6.01201 9.02661 5.81496 8.8297 5.67784 8.59256C5.54072 8.35543 5.46835 8.08642 5.46798 7.8125V7.8125ZM5.46798 15.625C5.46835 15.3511 5.54072 15.0821 5.67784 14.8449C5.81496 14.6078 6.01201 14.4109 6.24923 14.2739V16.9761C6.01201 16.8391 5.81496 16.6422 5.67784 16.4051C5.54072 16.1679 5.46835 15.8989 5.46798 15.625V15.625ZM5.46798 23.4375C5.46835 23.1636 5.54072 22.8946 5.67784 22.6574C5.81496 22.4203 6.01201 22.2234 6.24923 22.0864V24.7886C6.01201 24.6516 5.81496 24.4547 5.67784 24.2176C5.54072 23.9804 5.46835 23.7114 5.46798 23.4375V23.4375ZM5.46798 30.4688C5.46835 30.1948 5.54072 29.9258 5.67784 29.6887C5.81496 29.4516 6.01201 29.2546 6.24923 29.1177V31.8198C6.01201 31.6829 5.81496 31.4859 5.67784 31.2488C5.54072 31.0117 5.46835 30.7427 5.46798 30.4688V30.4688ZM9.37423 40.625V39.0625H30.2771L29.3613 40.625H9.37423ZM29.1849 44.7535L29.8899 45.1667L29.0207 45.8413L29.1849 44.7535ZM37.4992 40.625H34.7942L37.4992 36.0097V40.625Z" fill="black"/>
</svg>
