<svg width="50" height="50" viewBox="0 0 50 50" fill="none" xmlns="http://www.w3.org/2000/svg">
<g clip-path="url(#clip0)">
<path d="M11.667 32.9167C8.90947 32.9167 6.66699 35.1592 6.66699 37.9168C6.66699 40.6743 8.90947 42.9168 11.667 42.9168C14.4245 42.9168 16.667 40.6743 16.667 37.9168C16.667 35.1592 14.4244 32.9167 11.667 32.9167ZM11.667 41.2501C9.82861 41.2501 8.33369 39.755 8.33369 37.9168C8.33369 36.0784 9.82871 34.5834 11.667 34.5834C13.5053 34.5834 15.0003 36.0785 15.0003 37.9168C15.0003 39.755 13.5053 41.2501 11.667 41.2501Z" fill="black"/>
<path d="M40 32.9167C37.2425 32.9167 35 35.1592 35 37.9168C35 40.6743 37.2425 42.9168 40 42.9168C42.7575 42.9168 45 40.6743 45 37.9168C45 35.1592 42.7575 32.9167 40 32.9167ZM40 41.2501C38.1616 41.2501 36.6667 39.755 36.6667 37.9168C36.6667 36.0784 38.1617 34.5834 40 34.5834C41.8384 34.5834 43.3333 36.0785 43.3333 37.9168C43.3333 39.755 41.8384 41.2501 40 41.2501Z" fill="black"/>
<path d="M49.8678 28.2992L42.3678 16.6325C42.2145 16.3941 41.9503 16.25 41.6669 16.25H32.5003C32.0395 16.25 31.667 16.6233 31.667 17.0833V37.9166C31.667 38.3774 32.0395 38.7499 32.5003 38.7499H35.8336V37.0832H33.3336V17.9167H41.2119L48.3336 28.995V37.0834H44.1669V38.75H49.1669C49.6277 38.75 50.0002 38.3775 50.0002 37.9167V28.75C50.0003 28.5908 49.9545 28.4333 49.8678 28.2992Z" fill="black"/>
<path d="M36.6666 27.0833V21.25H43.3333V19.5833H35.8333C35.3725 19.5833 35 19.9566 35 20.4166V27.9166C35 28.3774 35.3725 28.7499 35.8333 28.7499H48.3333V27.0832H36.6666V27.0833Z" fill="black"/>
<path d="M32.5 10.4167H0.833301C0.37334 10.4167 0 10.7901 0 11.25V37.9168C0 38.3776 0.37334 38.7501 0.833301 38.7501H7.5V37.0834H1.6667V12.0833H31.6667V37.0834H15.8333V38.7501H32.5C32.9608 38.7501 33.3333 38.3776 33.3333 37.9168V11.25C33.3333 10.7901 32.9608 10.4167 32.5 10.4167Z" fill="black"/>
<path d="M5.83301 33.75H0.833008V35.4167H5.83301V33.75Z" fill="black"/>
<path d="M31.6667 33.75H17.5V35.4167H31.6667V33.75Z" fill="black"/>
<path d="M49.1663 33.75H45.833V35.4167H49.1663V33.75Z" fill="black"/>
<path d="M32.4997 13.75H3.33301V15.4167H32.4997V13.75Z" fill="black"/>
<path d="M12.5007 37.0835H10.834V38.7502H12.5007V37.0835Z" fill="black"/>
<path d="M40.8327 37.0835H39.166V38.7502H40.8327V37.0835Z" fill="black"/>
<path d="M14.9997 7.08325H3.33301V8.74995H14.9997V7.08325Z" fill="black"/>
<path d="M1.6667 7.08325H0V8.74995H1.6667V7.08325Z" fill="black"/>
</g>
<defs>
<clipPath id="clip0">
<rect width="50" height="50" fill="white"/>
</clipPath>
</defs>
</svg>
