<svg width="50" height="50" viewBox="0 0 50 50" fill="none" xmlns="http://www.w3.org/2000/svg">
<path d="M18.3107 48.6486H18.3013C18.1687 48.6468 18.0395 48.606 17.9299 48.5312C17.8204 48.4565 17.7352 48.3512 17.6851 48.2284L15.5087 42.8973L10.2776 45.2845C10.153 45.3414 10.0139 45.3591 9.879 45.3351C9.74406 45.3112 9.61958 45.2468 9.52209 45.1505C9.4246 45.0542 9.3587 44.9305 9.33314 44.7958C9.30758 44.6612 9.32358 44.522 9.37899 44.3966L15.0743 31.5108C15.1467 31.3468 15.2814 31.2184 15.4486 31.1537C15.6158 31.089 15.8018 31.0934 15.9658 31.1659C16.1298 31.2384 16.2582 31.373 16.3229 31.5402C16.3876 31.7074 16.3832 31.8935 16.3107 32.0574L11.3351 43.3169L15.5918 41.3757C15.6747 41.3379 15.7643 41.3172 15.8553 41.3149C15.9463 41.3126 16.0368 41.3288 16.1215 41.3623C16.2061 41.3959 16.2831 41.4462 16.3478 41.5103C16.4124 41.5744 16.4635 41.6508 16.4979 41.7351L18.3391 46.2439L23.677 34.1392C23.7493 33.9752 23.8838 33.8467 24.0508 33.7819C24.2179 33.7171 24.4039 33.7213 24.5678 33.7936C24.7318 33.8659 24.8603 34.0004 24.9252 34.1674C24.99 34.3345 24.9858 34.5205 24.9135 34.6845L18.931 48.2432C18.8784 48.3639 18.7916 48.4665 18.6814 48.5386C18.5712 48.6106 18.4424 48.6488 18.3107 48.6486Z" fill="black"/>
<path d="M21.0135 36.1053C20.7952 36.1063 20.5778 36.0783 20.3669 36.0222C19.3581 35.7519 18.6838 34.8735 18.0885 34.0965C17.7628 33.5995 17.3509 33.1648 16.8723 32.8127C16.3171 32.5659 15.722 32.4208 15.1155 32.3843C14.1088 32.2492 13.0676 32.11 12.3453 31.3863C11.623 30.6627 11.4811 29.6201 11.3466 28.6127C11.3091 28.0074 11.164 27.4137 10.9182 26.8593C10.5656 26.3811 10.131 25.9694 9.63445 25.6431C8.85743 25.0478 7.9777 24.3735 7.7081 23.3654C7.44932 22.3971 7.84324 21.4363 8.22702 20.508C8.50441 19.9517 8.67928 19.3499 8.74324 18.7316C8.67918 18.1135 8.50432 17.512 8.22702 16.9559C7.84459 16.0276 7.44932 15.064 7.7081 14.0985C7.97837 13.0904 8.85675 12.4161 9.63445 11.8208C10.1314 11.4935 10.5662 11.0803 10.9182 10.6005C11.1642 10.0465 11.309 9.45289 11.3459 8.84782C11.4811 7.84039 11.6162 6.79917 12.3446 6.07755C13.073 5.35593 14.1101 5.21404 15.1149 5.0789C15.7214 5.04243 16.3164 4.89733 16.8716 4.65053C17.35 4.29817 17.7618 3.86346 18.0878 3.36674C18.6824 2.58971 19.3574 1.70998 20.3655 1.44039C21.3338 1.1789 22.2946 1.57552 23.223 1.95931C23.78 2.23417 24.3819 2.40652 25 2.46809C25.6183 2.40432 26.22 2.22968 26.7763 1.95255C27.7047 1.57012 28.6682 1.17417 29.6331 1.43296C30.6419 1.70323 31.3162 2.58161 31.9115 3.35931C32.2374 3.8561 32.6492 4.29083 33.1277 4.64309C33.6818 4.88958 34.2757 5.03445 34.8811 5.0708C35.8878 5.20593 36.929 5.34512 37.6513 6.06944C38.3736 6.79377 38.5155 7.83566 38.65 8.83972C38.687 9.44614 38.8321 10.0411 39.0784 10.5965C39.4306 11.0749 39.8654 11.4868 40.3622 11.8127C41.1392 12.408 42.0189 13.083 42.2885 14.0904C42.5473 15.0593 42.1534 16.0194 41.7696 16.9485C41.4923 17.5046 41.3174 18.1061 41.2534 18.7242C41.3173 19.3423 41.4921 19.9438 41.7696 20.4999C42.152 21.4289 42.5473 22.3917 42.2885 23.358C42.0182 24.3654 41.1399 25.0404 40.3622 25.6357C39.8654 25.9616 39.4306 26.3734 39.0784 26.8519C38.8326 27.406 38.6877 27.9995 38.6507 28.6046C38.5155 29.612 38.377 30.6539 37.652 31.3782C36.927 32.1026 35.8865 32.2417 34.8817 32.3762C34.2763 32.4133 33.6825 32.5586 33.1284 32.8053C32.65 33.1576 32.2382 33.5923 31.9122 34.089C31.3176 34.8654 30.6426 35.7458 29.6345 36.0154C28.6649 36.2755 27.7054 35.8803 26.777 35.4965C26.2201 35.2213 25.6181 35.0489 25 34.9877C24.3817 35.0511 23.7799 35.2258 23.2236 35.5032C22.5324 35.844 21.782 36.0484 21.0135 36.1053V36.1053ZM21.0135 2.70255C20.913 2.70169 20.8128 2.71395 20.7155 2.73904C20.1513 2.88971 19.6703 3.51742 19.1615 4.18161C18.7332 4.82381 18.1846 5.37701 17.5459 5.81066C16.8412 6.1537 16.0766 6.35677 15.2946 6.40863C14.5834 6.41511 13.8896 6.62878 13.298 7.0235C12.9028 7.61488 12.6891 8.30888 12.6831 9.02012C12.6312 9.80188 12.4284 10.5662 12.0858 11.2708C11.6511 11.9096 11.0967 12.4583 10.4534 12.8863C9.78918 13.3958 9.16216 13.8769 9.01081 14.4404C8.97037 15.1357 9.13106 15.8279 9.47364 16.4343C9.82629 17.1505 10.0363 17.9285 10.0919 18.7249C10.0365 19.5213 9.82647 20.2993 9.47364 21.0154C9.13078 21.6219 8.97009 22.3144 9.01081 23.01C9.16216 23.5742 9.78918 24.0546 10.4534 24.564C11.0967 24.9921 11.6511 25.5407 12.0858 26.1796C12.4287 26.8841 12.6316 27.6484 12.6831 28.4303C12.6899 29.1417 12.9038 29.8357 13.2986 30.4276C13.8903 30.8221 14.5841 31.0356 15.2953 31.0417C16.0771 31.0936 16.8415 31.2967 17.5459 31.6397C18.1851 32.0739 18.7335 32.6284 19.1608 33.2722C19.6703 33.9357 20.1513 34.5634 20.7149 34.714C21.4099 34.7536 22.1016 34.593 22.7081 34.2512C23.425 33.8996 24.2034 33.6908 25 33.6363C25.7965 33.6917 26.5747 33.9015 27.2912 34.2539C27.8973 34.5973 28.5898 34.758 29.2851 34.7167C29.8493 34.5661 30.3304 33.9384 30.8392 33.2742C31.2668 32.6309 31.8153 32.0768 32.454 31.6424C33.1587 31.2992 33.9233 31.0959 34.7054 31.0438C35.4166 31.038 36.1106 30.8245 36.702 30.4296C37.097 29.8381 37.3106 29.1442 37.3169 28.433C37.3687 27.6512 37.5715 26.8869 37.9142 26.1823C38.3487 25.5431 38.9031 24.9942 39.5466 24.5661C40.2108 24.0566 40.8378 23.5762 40.9892 23.012C41.0296 22.3167 40.8689 21.6245 40.5263 21.0181C40.1735 20.302 39.9635 19.524 39.9081 18.7276C39.9637 17.9312 40.1737 17.1532 40.5263 16.437C40.8693 15.8307 41.03 15.1384 40.9892 14.4431C40.8378 13.8789 40.2108 13.3985 39.5466 12.889C38.9033 12.461 38.3489 11.9123 37.9142 11.2735C37.5714 10.569 37.3685 9.80462 37.3169 9.02282C37.3102 8.31138 37.0963 7.6173 36.7013 7.02553C36.1099 6.63058 35.4159 6.4171 34.7047 6.41134C33.9228 6.3583 33.1585 6.15432 32.454 5.81066C31.8152 5.37608 31.2668 4.82169 30.8392 4.17823C30.3297 3.51404 29.8486 2.88701 29.2851 2.73566C28.59 2.69568 27.898 2.85659 27.2919 3.19917C26.5753 3.55232 25.7969 3.76298 25 3.81944C24.2035 3.76374 23.4254 3.55401 22.7088 3.20188C22.1774 2.93704 21.6036 2.76801 21.0135 2.70255V2.70255Z" fill="black"/>
<path d="M24.9992 30.2593C22.7184 30.2595 20.4888 29.5832 18.5923 28.3162C16.6959 27.0492 15.2177 25.2482 14.3448 23.141C13.4719 21.0339 13.2434 18.7152 13.6883 16.4782C14.1332 14.2413 15.2314 12.1864 16.8441 10.5736C18.4569 8.96081 20.5116 7.86245 22.7486 7.41743C24.9855 6.97242 27.3042 7.20075 29.4114 8.07354C31.5186 8.94634 33.3196 10.4244 34.5868 12.3208C35.854 14.2172 36.5303 16.4468 36.5303 18.7276C36.5269 21.7848 35.311 24.7159 33.1492 26.8778C30.9875 29.0396 28.0565 30.2557 24.9992 30.2593ZM24.9992 8.54783C22.9857 8.5477 21.0173 9.14467 19.343 10.2633C17.6688 11.3818 16.3638 12.9718 15.5932 14.8321C14.8226 16.6923 14.6209 18.7393 15.0137 20.7142C15.4065 22.689 16.3761 24.5031 17.7999 25.9269C19.2237 27.3507 21.0378 28.3203 23.0126 28.7131C24.9875 29.1059 27.0345 28.9042 28.8947 28.1336C30.755 27.363 32.3449 26.058 33.4635 24.3837C34.5821 22.7095 35.1791 20.7411 35.179 18.7276C35.1759 16.0287 34.1024 13.4412 32.194 11.5328C30.2856 9.62435 27.6981 8.55087 24.9992 8.54783V8.54783Z" fill="black"/>
<path d="M31.6888 48.6486C31.5575 48.6484 31.4291 48.61 31.3193 48.538C31.2095 48.466 31.123 48.3636 31.0705 48.2432L25.0867 34.6845C25.0144 34.5205 25.0102 34.3345 25.075 34.1674C25.1399 34.0004 25.2684 33.8659 25.4323 33.7936C25.5963 33.7213 25.7823 33.7171 25.9494 33.7819C26.1164 33.8467 26.2509 33.9752 26.3232 34.1392L31.6611 46.2439L33.5023 41.7351C33.5367 41.6508 33.5878 41.5744 33.6524 41.5103C33.7171 41.4462 33.7941 41.3959 33.8787 41.3623C33.9634 41.3288 34.0539 41.3126 34.1449 41.3149C34.2359 41.3172 34.3255 41.3379 34.4084 41.3757L38.6651 43.3169L33.6888 32.0574C33.6529 31.9762 33.6333 31.8888 33.6312 31.8C33.6291 31.7113 33.6446 31.623 33.6766 31.5402C33.7086 31.4574 33.7566 31.3818 33.8179 31.3175C33.8792 31.2533 33.9525 31.2018 34.0337 31.1659C34.1149 31.13 34.2024 31.1104 34.2911 31.1083C34.3798 31.1063 34.4681 31.1217 34.5509 31.1537C34.6337 31.1857 34.7094 31.2337 34.7736 31.295C34.8378 31.3563 34.8894 31.4296 34.9253 31.5108L40.6185 44.3966C40.6739 44.522 40.6899 44.6612 40.6643 44.7958C40.6388 44.9305 40.5729 45.0542 40.4754 45.1505C40.3779 45.2468 40.2534 45.3112 40.1185 45.3351C39.9835 45.3591 39.8445 45.3414 39.7198 45.2845L34.4888 42.8973L32.3124 48.2284C32.2623 48.3512 32.1771 48.4565 32.0676 48.5312C31.958 48.606 31.8288 48.6468 31.6962 48.6486H31.6888Z" fill="black"/>
<path d="M28.6957 24.7467C28.5862 24.7468 28.4784 24.7201 28.3815 24.669L24.9998 22.8913L21.6214 24.669C21.5098 24.7275 21.3842 24.7536 21.2585 24.7444C21.1329 24.7352 21.0123 24.6911 20.9104 24.6171C20.8086 24.543 20.7294 24.4419 20.6819 24.3253C20.6344 24.2086 20.6205 24.081 20.6417 23.9568L21.2876 20.1919L18.5518 17.5251C18.4615 17.437 18.3976 17.3255 18.3673 17.203C18.3371 17.0805 18.3418 16.952 18.3808 16.8321C18.4198 16.7121 18.4917 16.6055 18.5882 16.5242C18.6847 16.443 18.802 16.3904 18.9268 16.3724L22.7072 15.8237L24.3964 12.398C24.4586 12.2928 24.5472 12.2057 24.6533 12.1451C24.7595 12.0846 24.8796 12.0527 25.0018 12.0527C25.124 12.0527 25.2441 12.0846 25.3503 12.1451C25.4565 12.2057 25.545 12.2928 25.6072 12.398L27.2964 15.8237L31.0768 16.3724C31.2017 16.3904 31.319 16.443 31.4155 16.5242C31.512 16.6055 31.5838 16.7121 31.6228 16.8321C31.6619 16.952 31.6665 17.0805 31.6363 17.203C31.6061 17.3255 31.5422 17.437 31.4518 17.5251L28.716 20.1919L29.362 23.9568C29.3786 24.0538 29.3738 24.1532 29.3481 24.2481C29.3223 24.343 29.2761 24.4312 29.2127 24.5064C29.1493 24.5816 29.0703 24.6421 28.9811 24.6836C28.8919 24.7251 28.7948 24.7466 28.6964 24.7467H28.6957ZM24.9998 21.4528C25.1092 21.4526 25.217 21.479 25.314 21.5298L27.7984 22.8379L27.3255 20.0724C27.307 19.9644 27.3151 19.8535 27.349 19.7493C27.3829 19.6452 27.4416 19.5508 27.5201 19.4744L29.5288 17.5149L26.7525 17.1095C26.644 17.0937 26.541 17.0517 26.4524 16.9872C26.3637 16.9227 26.2921 16.8376 26.2437 16.7392L24.9998 14.2237L23.7579 16.7399C23.7095 16.8383 23.6379 16.9234 23.5492 16.9879C23.4606 17.0524 23.3576 17.0944 23.2491 17.1102L20.4728 17.5156L22.4815 19.4751C22.56 19.5515 22.6187 19.6459 22.6526 19.75C22.6865 19.8542 22.6946 19.965 22.6761 20.073L22.2032 22.8386L24.6876 21.5325C24.7837 21.4811 24.8908 21.4538 24.9998 21.4528Z" fill="black"/>
</svg>
