<svg width="50" height="50" viewBox="0 0 50 50" fill="none" xmlns="http://www.w3.org/2000/svg">
<g clip-path="url(#clip0)">
<path d="M24.6188 49.6602L24.6178 49.6597L0.676121 37.1597L0.675966 37.1596C0.414587 37.0233 0.25 36.7524 0.25 36.4584V13.0209C0.25 12.7473 0.392465 12.4922 0.625339 12.348C0.857632 12.2042 1.1509 12.1915 1.39438 12.3132C1.39441 12.3132 1.39443 12.3132 1.39445 12.3132L25.3356 24.2921C25.3357 24.2922 25.3358 24.2922 25.3359 24.2923C25.6037 24.4271 25.7729 24.7012 25.7729 25V48.9584C25.7729 49.2356 25.6289 49.4921 25.3912 49.6363L25.3898 49.6371C25.2687 49.7117 25.1269 49.75 24.9833 49.75C24.8583 49.75 24.7319 49.7199 24.6188 49.6602ZM1.83333 35.8271V35.9786L1.96763 36.0487L23.826 47.4612L24.1917 47.6522V47.2396V25.6438V25.4893L24.0535 25.4202L2.1952 14.4827L1.83333 14.3016V14.7063V35.8271Z" fill="black" stroke="white" stroke-width="0.5"/>
<path d="M24.2246 25C24.2246 24.7011 24.3939 24.427 24.6618 24.2921C24.6619 24.2921 24.6619 24.2921 24.6619 24.2921L48.6031 12.3131L48.6048 12.3123C48.8451 12.1898 49.1391 12.2021 49.3711 12.3473L49.3728 12.3484C49.6074 12.4926 49.7496 12.7474 49.7496 13.0208V36.4583C49.7496 36.7523 49.585 37.0233 49.3236 37.1595L49.3235 37.1596L25.3818 49.6596L25.3808 49.6601C25.2678 49.7198 25.1413 49.75 25.0163 49.75C24.8732 49.75 24.731 49.7118 24.607 49.6366C24.3701 49.4919 24.2246 49.2348 24.2246 48.9583V25ZM25.9461 25.4202L25.8079 25.4893V25.6437V47.2396V47.6521L26.1736 47.4612L48.032 36.0487L48.1663 35.9786V35.8271V14.7062V14.3016L47.8044 14.4827L25.9461 25.4202ZM48.9788 36.2083H48.9579V36.4583V36.7083H48.9788V36.4583V36.2083Z" fill="black" stroke="white" stroke-width="0.5"/>
<path d="M25.017 1.92679L25.1288 1.98274L48.6022 13.7299C48.6024 13.73 48.6026 13.7301 48.6027 13.7301C48.9971 13.9238 49.4699 13.7661 49.6661 13.3759C49.8607 12.9849 49.7026 12.5099 49.3113 12.3132L25.017 1.92679ZM25.017 1.92679L24.9051 1.98267L1.39681 13.7285L1.39674 13.7285C1.28225 13.7858 1.16229 13.8126 1.04188 13.8126C0.749553 13.8126 0.471316 13.6524 0.331971 13.3754C0.136187 12.9854 0.294985 12.5101 0.687377 12.3131L24.6614 0.334397C24.6615 0.334331 24.6616 0.334265 24.6618 0.3342C24.8856 0.223219 25.1487 0.223628 25.3696 0.334049C25.3696 0.33406 25.3696 0.33407 25.3697 0.33408L49.311 12.3131L25.017 1.92679Z" fill="black" stroke="white" stroke-width="0.5"/>
<path d="M36.7078 19.3937V19.2392L36.5697 19.1701L13.203 7.47844L13.2026 7.47823C12.8123 7.28386 12.6535 6.80756 12.85 6.41626C13.0461 6.02563 13.521 5.86795 13.9132 6.06132C13.9134 6.0614 13.9136 6.06149 13.9138 6.06158L37.8528 18.0394C37.853 18.0395 37.8533 18.0397 37.8535 18.0398C38.1222 18.1769 38.2911 18.4515 38.2911 18.7499V30.2083C38.2911 30.6452 37.9364 30.9999 37.4995 30.9999C37.0625 30.9999 36.7078 30.6452 36.7078 30.2083V19.3937Z" fill="black" stroke="white" stroke-width="0.5"/>
</g>
<rect x="0.2" y="0.2" width="49.6" height="49.6" stroke="white" stroke-width="0.4"/>
<defs>
<clipPath id="clip0">
</clipPath>
</defs>
</svg>
