<svg width="109" height="98" viewBox="0 0 109 98" fill="none" xmlns="http://www.w3.org/2000/svg">
<g clip-path="url(#clip0)">
<path d="M108.25 0H0V97.519H108.25V0Z" fill="white"/>
<path opacity="0.1" d="M21.672 48.759L20.735 54.134L21.203 59.197L24.297 62.884L27.172 64.322L31.297 64.634L36.047 63.822L37.722 59.384L36.797 55.884L34.422 52.134L28.422 49.947L23.797 48.759H21.672Z" fill="#DC2190"/>
<path opacity="0.1" d="M45.36 40.634L51.735 36.912L62.61 34.134C62.61 34.134 68.048 31.696 68.298 31.384C68.548 31.072 70.735 29.509 70.735 29.509L72.61 34.009L73.799 40.634V47.134L72.985 51.947L70.61 56.235L66.048 60.304L57.536 63.884L49.548 63.259L44.923 60.304L42.351 55.196L41.486 48.446L43.049 43.513L45.36 40.634Z" fill="#DC2190"/>
<path d="M71.842 26.617V26.591C67.238 30.747 62.473 32.385 56.811 33.817C51.703 35.112 47.38 35.956 43.506 40.363C39.036 45.448 38.961 56.507 44.098 61.593C43.179 63.192 42.382 65.017 41.806 67.113C40.92 65.624 39.834 64.24 38.705 63.03C40.862 58.62 37.739 49.798 29.374 49.1C26.113 48.828 23.401 47.919 20.62 45.836L20.621 45.851C19.759 50.099 18.435 54.82 20.013 59.381C21.539 63.746 26.031 66.634 31.093 66.634C31.718 66.634 32.353 66.59 32.992 66.499C34.478 66.287 35.674 65.722 36.575 65.128C38.74 67.463 40.707 70.496 40.854 73.297C40.855 73.322 40.863 73.346 40.865 73.371C40.87 73.42 40.877 73.469 40.887 73.517C40.897 73.566 40.909 73.613 40.923 73.66C40.937 73.705 40.952 73.749 40.97 73.792C40.989 73.838 41.01 73.882 41.034 73.926C41.055 73.966 41.078 74.005 41.103 74.042C41.13 74.084 41.16 74.123 41.191 74.161C41.22 74.196 41.249 74.23 41.28 74.263C41.314 74.298 41.35 74.33 41.387 74.361C41.422 74.391 41.458 74.42 41.496 74.446C41.536 74.474 41.577 74.498 41.619 74.522C41.66 74.545 41.7 74.567 41.743 74.586C41.789 74.606 41.837 74.622 41.885 74.638C41.928 74.652 41.971 74.667 42.016 74.677C42.068 74.689 42.122 74.695 42.176 74.702C42.209 74.706 42.24 74.715 42.274 74.717C42.299 74.718 42.324 74.719 42.35 74.719H42.351H42.352H42.353H42.354C42.379 74.719 42.405 74.718 42.43 74.717C42.464 74.715 42.495 74.706 42.529 74.702C42.583 74.696 42.636 74.69 42.687 74.678C42.732 74.668 42.776 74.653 42.819 74.639C42.866 74.623 42.913 74.608 42.959 74.587C43.002 74.568 43.043 74.545 43.084 74.522C43.126 74.499 43.167 74.475 43.206 74.447C43.244 74.42 43.28 74.391 43.316 74.361C43.353 74.33 43.389 74.298 43.422 74.264C43.454 74.231 43.483 74.197 43.512 74.162C43.543 74.124 43.573 74.085 43.6 74.043C43.625 74.005 43.647 73.967 43.669 73.927C43.692 73.883 43.714 73.839 43.733 73.793C43.751 73.75 43.766 73.706 43.78 73.661C43.794 73.614 43.806 73.567 43.816 73.518C43.826 73.47 43.833 73.422 43.838 73.372C43.841 73.347 43.848 73.323 43.849 73.298C44.064 69.185 45.103 65.913 46.554 63.296C48.525 64.252 50.955 65.091 53.212 65.335C53.889 65.411 54.569 65.448 55.247 65.448C64.238 65.448 73.033 58.936 75.125 50.57C77.187 42.206 74.066 34.029 71.842 26.617ZM32.567 63.529C32.077 63.599 31.581 63.634 31.091 63.634C27.254 63.634 23.939 61.527 22.846 58.4C21.994 55.938 22.23 53.243 22.721 50.543C24.668 51.396 26.749 51.892 29.123 52.091C32.873 52.404 34.685 54.833 35.431 56.254C36.295 57.898 36.506 59.559 36.309 60.761C35.391 59.996 34.527 59.385 33.82 58.994C33.093 58.594 32.182 58.854 31.781 59.58C31.38 60.305 31.641 61.217 32.366 61.619C32.93 61.931 33.598 62.4 34.305 62.981C33.816 63.224 33.238 63.433 32.567 63.529ZM72.214 49.842C70.476 56.793 62.864 62.448 55.247 62.448C54.677 62.448 54.104 62.416 53.535 62.352C51.716 62.155 49.773 61.482 48.222 60.767C48.992 59.783 49.818 58.926 50.666 58.178C51.989 58.617 53.8 58.977 55.765 58.977C59.163 58.977 62.999 57.899 65.471 54.284C65.939 53.599 65.763 52.667 65.079 52.199C64.395 51.731 63.462 51.907 62.995 52.591C60.587 56.115 56.54 56.225 53.906 55.841C54.06 55.751 54.215 55.656 54.366 55.572C59.236 52.874 62.764 49.014 64.851 44.101C65.175 43.339 64.82 42.458 64.057 42.134C63.295 41.81 62.413 42.165 62.09 42.928C60.271 47.211 57.183 50.581 52.912 52.947C50.875 54.076 48.154 56.003 45.807 59.039C44.542 57.565 43.664 55.413 43.334 52.867C42.81 48.822 43.785 44.594 45.762 42.345C48.768 38.926 52.036 38.108 56.56 36.975L57.549 36.726C61.674 35.683 65.996 34.413 70.243 31.617C72.077 37.613 73.711 43.773 72.214 49.842Z" fill="#F586C8"/>
<path d="M82.958 16.525C74.234 9.90299 62.277 9.90999 52.875 16.443C43.475 9.90999 31.516 9.90099 22.791 16.526C15.211 22.282 9.326 34.077 15.542 49.917C15.819 50.624 16.122 51.309 16.44 51.98C16.65 50.137 17.025 48.358 17.383 46.671C17.407 46.557 17.431 46.445 17.455 46.331C13.348 33.315 18.295 23.707 24.605 18.915C28.501 15.957 33.026 14.483 37.633 14.483C42.543 14.483 47.547 16.158 51.972 19.493C52.505 19.895 53.243 19.895 53.777 19.493C62.353 13.029 73.096 12.803 81.143 18.915C87.85 24.008 93.019 34.539 87.414 48.821C83.666 58.372 75.753 64.251 68.101 69.936C61.838 74.589 55.863 79.029 52.874 85.119C51.226 81.762 48.669 78.908 45.659 76.242C45.635 76.269 45.612 76.298 45.587 76.325C45.468 76.45 45.34 76.563 45.207 76.673C45.119 76.746 45.033 76.817 44.94 76.883C44.803 76.98 44.66 77.064 44.512 77.146C44.407 77.204 44.303 77.263 44.192 77.313C44.043 77.38 43.889 77.432 43.732 77.483C43.61 77.523 43.489 77.564 43.363 77.593C43.206 77.629 43.045 77.648 42.883 77.668C42.834 77.674 42.786 77.681 42.739 77.69C46.938 81.258 50.283 85.07 51.415 89.868C51.575 90.545 52.18 91.023 52.875 91.023C53.57 91.023 54.175 90.544 54.335 89.868C56.042 82.634 62.769 77.636 69.891 72.345C77.51 66.684 86.146 60.268 90.208 49.917C96.424 34.077 90.538 22.282 82.958 16.525Z" fill="#F586C8"/>
<path d="M37.856 73.455C37.783 72.062 36.924 70.409 35.784 68.871C35.067 69.134 34.278 69.345 33.413 69.468C33.01 69.526 32.605 69.567 32.2 69.594C33.43 70.537 34.657 71.452 35.859 72.345C36.552 72.86 37.239 73.372 37.92 73.883C37.909 73.808 37.893 73.733 37.886 73.657C37.879 73.589 37.859 73.524 37.856 73.455Z" fill="#F586C8"/>
</g>
<defs>
<clipPath id="clip0">
<rect width="108.25" height="97.519" fill="white"/>
</clipPath>
</defs>
</svg>
