<svg width="109" height="98" viewBox="0 0 109 98" fill="none" xmlns="http://www.w3.org/2000/svg">
<g clip-path="url(#clip0)">
<path d="M108.25 0H0V97.519H108.25V0Z" fill="white"/>
<path opacity="0.1" d="M65.944 62.968C66.069 62.801 68.194 58.716 68.444 58.342C68.694 57.968 73.777 56.467 73.777 56.467L80.652 56.842L86.735 55.676L90.318 52.759L92.235 50.884C92.235 50.884 94.11 54.467 94.11 54.842C94.11 55.217 93.943 57.425 93.902 58.675C93.86 59.925 93.902 61.258 94.194 61.55C94.486 61.842 95.402 62.967 95.402 62.967H65.944V62.968Z" fill="#DC2190"/>
<path opacity="0.1" d="M54.167 44.627C57.9833 44.627 61.077 41.5333 61.077 37.717C61.077 33.9007 57.9833 30.807 54.167 30.807C50.3507 30.807 47.257 33.9007 47.257 37.717C47.257 41.5333 50.3507 44.627 54.167 44.627Z" fill="#DC2190"/>
<path opacity="0.1" d="M59.816 11.031H47.59V22.219H59.816V11.031Z" fill="#DC2190"/>
<g opacity="0.1">
<path opacity="0.1" d="M27.509 76.426H14.805V86.03H27.509V76.426Z" fill="#DC2190"/>
</g>
<path d="M106.75 85.343H99.761V63.926C99.761 62.547 98.64 61.426 97.261 61.426H96.781C96.613 61.237 96.437 61.066 96.27 60.918C95.609 60.335 95.038 59.832 95.662 57.677C96.896 53.405 92.897 49.437 92.727 49.27C92.38 48.93 91.886 48.778 91.412 48.867C90.934 48.953 90.528 49.266 90.322 49.705C90.174 50.02 86.619 57.372 78.077 55.021C74.438 54.022 71.366 54.293 68.943 55.825C66.492 57.375 65.336 59.906 64.962 61.426H63.429C62.05 61.426 60.929 62.547 60.929 63.926V85.343H57.929H42.618V31.149C42.618 27.536 45.558 24.596 49.171 24.596H58.566C62.179 24.596 65.119 27.536 65.119 31.149V55.121C65.737 54.467 66.47 53.84 67.34 53.289C67.593 53.129 67.858 52.997 68.119 52.858V31.149C68.119 27.09 65.57 23.624 61.993 22.242C61.993 22.237 61.994 22.233 61.994 22.228V11.544C61.994 10.238 60.932 9.17599 59.627 9.17599H48.11C46.804 9.17599 45.743 10.239 45.743 11.544V22.228C45.743 22.233 45.744 22.237 45.744 22.242C42.166 23.623 39.617 27.09 39.617 31.149V85.343H29.512V75.134L34.171 30.688C34.284 29.6 34.014 28.603 33.427 27.953C33 27.478 32.43 27.218 31.821 27.218H10.864C10.255 27.218 9.684 27.48 9.258 27.954C8.671 28.605 8.401 29.602 8.515 30.688L13.174 75.136V85.342H1.5C0.672 85.342 0 86.014 0 86.842C0 87.67 0.672 88.342 1.5 88.342H15.478H27.207H42.156H58.535H63.428H97.261H106.75C107.578 88.342 108.25 87.67 108.25 86.842C108.25 86.015 107.578 85.343 106.75 85.343ZM48.743 21.596V12.176H58.993V21.596H58.565H49.17H48.743ZM11.499 30.375C11.492 30.318 11.49 30.266 11.49 30.218H31.196C31.196 30.266 31.193 30.319 31.187 30.376L26.539 74.722H16.146L11.499 30.375ZM16.174 85.343V77.722H26.513V85.343H16.174ZM70.546 58.36C72.226 57.297 74.493 57.149 77.281 57.914C84.506 59.897 89.432 56.236 91.844 52.957C92.552 54.072 93.158 55.537 92.78 56.843C92.161 58.984 92.396 60.427 92.878 61.426H68.105C68.446 60.548 69.156 59.239 70.546 58.36ZM63.928 85.343V70.426H90.261C91.089 70.426 91.761 69.754 91.761 68.926C91.761 68.098 91.089 67.426 90.261 67.426H63.928V64.426H96.761V73.426H76.428C75.6 73.426 74.928 74.098 74.928 74.926C74.928 75.754 75.6 76.426 76.428 76.426H96.761V85.343H63.928Z" fill="#F586C8"/>
<path d="M58.316 49.842H49.42C48.592 49.842 47.92 50.514 47.92 51.342C47.92 52.17 48.592 52.842 49.42 52.842H58.316C59.144 52.842 59.816 52.17 59.816 51.342C59.816 50.514 59.144 49.842 58.316 49.842Z" fill="#F586C8"/>
<path d="M58.316 55.842H49.42C48.592 55.842 47.92 56.514 47.92 57.342C47.92 58.17 48.592 58.842 49.42 58.842H58.316C59.144 58.842 59.816 58.17 59.816 57.342C59.816 56.514 59.144 55.842 58.316 55.842Z" fill="#F586C8"/>
<path d="M62.785 37.926C62.785 33.009 58.785 29.009 53.868 29.009C48.951 29.009 44.951 33.009 44.951 37.926C44.951 42.842 48.951 46.842 53.868 46.842C58.785 46.842 62.785 42.842 62.785 37.926ZM53.868 43.842C50.605 43.842 47.951 41.188 47.951 37.926C47.951 34.663 50.605 32.009 53.868 32.009C57.131 32.009 59.785 34.663 59.785 37.926C59.785 41.187 57.131 43.842 53.868 43.842Z" fill="#F586C8"/>
<path d="M26.009 44.113C26.837 44.113 27.509 43.441 27.509 42.613C27.509 41.785 26.837 41.113 26.009 41.113H16.687C15.859 41.113 15.187 41.785 15.187 42.613C15.187 43.441 15.859 44.113 16.687 44.113H26.009Z" fill="#F586C8"/>
<path d="M70.427 76.426C71.2554 76.426 71.927 75.7544 71.927 74.926C71.927 74.0976 71.2554 73.426 70.427 73.426C69.5986 73.426 68.927 74.0976 68.927 74.926C68.927 75.7544 69.5986 76.426 70.427 76.426Z" fill="#F586C8"/>
<path d="M90.6961 36.1317C91.8587 36.1295 92.7994 35.1852 92.7971 34.0227C92.7949 32.8601 91.8507 31.9195 90.6881 31.9217C89.5256 31.9239 88.5849 32.8681 88.5871 34.0307C88.5894 35.1932 89.5336 36.1339 90.6961 36.1317Z" fill="#F586C8"/>
<path d="M86.203 43.7603C86.916 43.759 87.4929 43.1799 87.4916 42.4669C87.4902 41.7539 86.9111 41.177 86.1981 41.1783C85.4851 41.1797 84.9082 41.7588 84.9096 42.4718C84.9109 43.1848 85.49 43.7617 86.203 43.7603Z" fill="#F586C8"/>
</g>
<defs>
<clipPath id="clip0">
<rect width="108.25" height="97.519" fill="white"/>
</clipPath>
</defs>
</svg>
