<svg width="109" height="98" viewBox="0 0 109 98" fill="none" xmlns="http://www.w3.org/2000/svg">
<g clip-path="url(#clip0)">
<path d="M108.25 0H0V97.519H108.25V0Z" fill="white"/>
<path opacity="0.1" d="M19.844 68.355C22.2575 68.355 24.214 66.3985 24.214 63.985C24.214 61.5715 22.2575 59.615 19.844 59.615C17.4305 59.615 15.474 61.5715 15.474 63.985C15.474 66.3985 17.4305 68.355 19.844 68.355Z" fill="#DC2190"/>
<path opacity="0.1" d="M37.98 86.491C40.3935 86.491 42.35 84.5345 42.35 82.121C42.35 79.7075 40.3935 77.751 37.98 77.751C35.5665 77.751 33.61 79.7075 33.61 82.121C33.61 84.5345 35.5665 86.491 37.98 86.491Z" fill="#DC2190"/>
<path opacity="0.1" d="M52.828 10.517C52.828 10.517 50.201 10.62 49.068 10.981C47.935 11.342 46.39 12.681 45.875 13.556C45.36 14.432 44.433 16.904 44.433 16.904L44.536 20.303C44.536 20.303 45.566 22.775 46.184 23.599C46.802 24.423 49.532 26.483 49.532 26.483C49.532 26.483 54.889 26.683 56.022 26.789C57.155 26.895 62.096 26.789 62.096 26.789L63.078 26.002L62.096 19.684L59.926 15.203L56.949 12.267L52.828 10.517Z" fill="#DC2190"/>
<path opacity="0.1" d="M74.462 10.517C74.462 10.517 77.089 10.62 78.222 10.981C79.355 11.342 80.9 12.681 81.415 13.556C81.93 14.432 82.857 16.904 82.857 16.904L82.754 20.303C82.754 20.303 81.724 22.775 81.106 23.599C80.488 24.423 77.758 26.483 77.758 26.483C77.758 26.483 72.402 26.683 71.268 26.789C70.135 26.895 65.194 26.789 65.194 26.789L64.212 26.002L65.194 19.684L67.364 15.203L70.341 12.267L74.462 10.517Z" fill="#DC2190"/>
<path d="M57.499 43.43C58.3274 43.43 58.999 42.7584 58.999 41.93C58.999 41.1016 58.3274 40.43 57.499 40.43C56.6706 40.43 55.999 41.1016 55.999 41.93C55.999 42.7584 56.6706 43.43 57.499 43.43Z" fill="#F586C8"/>
<path d="M90.491 25.473H80.518C82.274 23.935 83.526 21.767 83.78 18.85C84.283 13.067 80.511 9.213 75.634 9.213C68.471 9.213 64.981 14.614 63.366 19.977C61.751 14.614 58.262 9.213 51.098 9.213C46.221 9.213 42.449 13.068 42.952 18.85C43.206 21.767 44.457 23.935 46.214 25.473H35.858C33.603 25.473 31.758 27.318 31.758 29.573V63.844L34.758 60.844V29.573C34.758 28.977 35.262 28.473 35.858 28.473H54.56C54.707 28.477 54.855 28.487 55.001 28.487C57.812 28.487 60.334 28.487 62.096 28.487C62.096 28.487 63.065 28.487 64.638 28.487C65.408 28.487 66.33 28.487 67.351 28.487V85.306H58.999V47.93C58.999 47.102 58.327 46.43 57.499 46.43C56.671 46.43 55.999 47.102 55.999 47.93V85.306H46.584C46.168 86.426 45.542 87.44 44.751 88.306H90.492C92.747 88.306 94.592 86.461 94.592 84.206V29.573C94.591 27.318 92.746 25.473 90.491 25.473ZM75.634 12.212C77.145 12.212 78.488 12.77 79.417 13.783C80.487 14.951 80.962 16.613 80.791 18.589C80.266 24.624 74.061 25.381 72.194 25.472H65.299C65.854 20.758 67.925 12.212 75.634 12.212ZM45.942 18.59C45.77 16.613 46.245 14.951 47.316 13.784C48.245 12.771 49.589 12.213 51.099 12.213C58.809 12.213 60.879 20.759 61.434 25.473H54.539C52.672 25.381 46.467 24.625 45.942 18.59ZM90.491 85.306H70.35V28.487C70.803 28.487 71.261 28.487 71.732 28.487C71.878 28.487 72.026 28.477 72.173 28.473H90.491C91.087 28.473 91.591 28.977 91.591 29.573V37.675C91.57 37.694 91.542 37.7 91.522 37.721L82.449 46.794C81.863 47.379 81.863 48.33 82.449 48.915C83.035 49.501 83.985 49.501 84.57 48.915L91.591 41.894V50.676C91.57 50.695 91.542 50.701 91.522 50.722L82.449 59.795C81.863 60.381 81.863 61.331 82.449 61.916C83.035 62.502 83.985 62.502 84.57 61.916L91.591 54.895V84.206C91.591 84.802 91.088 85.306 90.491 85.306Z" fill="#F586C8"/>
<path d="M41.604 58.239L14.098 85.746C13.512 86.332 13.512 87.282 14.098 87.867C14.684 88.453 15.634 88.453 16.219 87.867L43.725 60.361C44.311 59.775 44.311 58.825 43.725 58.24C43.14 57.654 42.19 57.654 41.604 58.239Z" fill="#F586C8"/>
<path d="M19.844 57.8C16.434 57.8 13.659 60.574 13.659 63.985C13.659 67.396 16.433 70.17 19.844 70.17C23.255 70.17 26.029 67.396 26.029 63.985C26.029 60.575 23.254 57.8 19.844 57.8ZM19.844 67.687C17.803 67.687 16.143 66.027 16.143 63.985C16.143 61.944 17.803 60.284 19.844 60.284C21.885 60.284 23.546 61.944 23.546 63.985C23.545 66.026 21.885 67.687 19.844 67.687Z" fill="#F586C8"/>
<path d="M37.98 75.937C34.57 75.937 31.795 78.711 31.795 82.122C31.795 85.532 34.569 88.307 37.98 88.307C41.39 88.307 44.165 85.533 44.165 82.122C44.165 78.711 41.39 75.937 37.98 75.937ZM37.98 85.823C35.939 85.823 34.279 84.163 34.279 82.122C34.279 80.081 35.939 78.42 37.98 78.42C40.021 78.42 41.682 80.08 41.682 82.122C41.682 84.162 40.021 85.823 37.98 85.823Z" fill="#F586C8"/>
<path d="M42.125 37.825L44.828 39.297C44.868 39.319 44.901 39.352 44.923 39.392L46.405 42.089C46.496 42.255 46.734 42.254 46.825 42.088L48.297 39.385C48.319 39.345 48.352 39.312 48.392 39.29L51.089 37.808C51.255 37.717 51.254 37.478 51.088 37.388L48.385 35.916C48.345 35.894 48.312 35.861 48.29 35.821L46.808 33.124C46.717 32.958 46.479 32.959 46.388 33.125L44.916 35.828C44.894 35.868 44.861 35.901 44.821 35.923L42.124 37.405C41.958 37.496 41.959 37.734 42.125 37.825Z" fill="#F586C8"/>
</g>
<defs>
<clipPath id="clip0">
<rect width="108.25" height="97.519" fill="white"/>
</clipPath>
</defs>
</svg>
