<svg width="109" height="98" viewBox="0 0 109 98" fill="none" xmlns="http://www.w3.org/2000/svg">
<g clip-path="url(#clip0)">
<path d="M108.25 0H0V97.519H108.25V0Z" fill="white"/>
<path opacity="0.1" d="M68.016 45.159C68.016 45.159 62.141 46.909 61.829 47.034C61.517 47.159 56.591 50.347 56.591 50.347L54.454 54.222L52.954 58.785L52.59 62.93L53.266 67.347L55.141 70.785L58.079 74.503L60.303 76.098L65.016 77.723L69.079 78.161C69.079 78.161 73.767 78.286 74.017 78.161C74.267 78.036 76.392 77.848 76.392 77.848L78.33 80.598C78.33 80.598 81.204 83.036 81.705 83.723C82.206 84.41 84.518 85.286 85.018 85.473C85.518 85.66 89.081 86.598 89.081 86.598H90.394C90.394 86.598 89.269 84.348 89.081 83.598C88.893 82.848 87.706 77.91 87.706 77.91V76.66L92.956 73.347L96.519 67.972L97.769 62.41L96.956 54.972C96.956 54.972 96.081 52.472 95.518 51.909C94.955 51.346 91.955 49.159 91.955 49.159L88.267 46.971L83.079 45.596L77.079 45.158H68.016V45.159Z" fill="#F586C8"/>
<path d="M55.09 28.173H26.192C25.364 28.173 24.692 27.501 24.692 26.673C24.692 25.845 25.364 25.173 26.192 25.173H55.09C55.918 25.173 56.59 25.845 56.59 26.673C56.59 27.501 55.919 28.173 55.09 28.173Z" fill="#F586C8"/>
<path d="M42.089 34.173H26.192C25.364 34.173 24.692 33.501 24.692 32.673C24.692 31.845 25.364 31.173 26.192 31.173H42.089C42.917 31.173 43.589 31.845 43.589 32.673C43.589 33.501 42.917 34.173 42.089 34.173Z" fill="#F586C8"/>
<path d="M51.09 40.173H26.192C25.364 40.173 24.692 39.501 24.692 38.673C24.692 37.845 25.364 37.173 26.192 37.173H51.09C51.918 37.173 52.59 37.845 52.59 38.673C52.59 39.501 51.918 40.173 51.09 40.173Z" fill="#F586C8"/>
<path d="M48.089 34.173C48.9174 34.173 49.589 33.5014 49.589 32.673C49.589 31.8446 48.9174 31.173 48.089 31.173C47.2606 31.173 46.589 31.8446 46.589 32.673C46.589 33.5014 47.2606 34.173 48.089 34.173Z" fill="#F586C8"/>
<path d="M38.3908 72.5648C38.9607 72.5637 39.4219 72.1008 39.4208 71.5308C39.4197 70.9608 38.9568 70.4997 38.3869 70.5008C37.8169 70.5018 37.3557 70.9648 37.3568 71.5347C37.3579 72.1047 37.8208 72.5658 38.3908 72.5648Z" fill="#F586C8"/>
<path d="M44.747 80.101C44.002 80.101 43.299 79.811 42.771 79.284C42.242 78.757 41.95 78.053 41.949 77.306C41.948 76.558 42.238 75.855 42.765 75.325C43.292 74.795 43.995 74.503 44.743 74.502C44.745 74.502 44.747 74.502 44.749 74.502C45.494 74.502 46.195 74.792 46.724 75.318C47.254 75.847 47.547 76.549 47.549 77.297C47.55 78.045 47.26 78.748 46.733 79.278C46.204 79.808 45.502 80.1 44.754 80.102C44.751 80.101 44.75 80.101 44.747 80.101ZM44.748 75.77C44.748 75.77 44.746 75.77 44.744 75.77C43.899 75.771 43.215 76.46 43.216 77.304C43.216 77.714 43.376 78.098 43.666 78.386C43.956 78.674 44.34 78.833 44.747 78.833C44.747 78.833 44.75 78.833 44.751 78.833C45.161 78.832 45.545 78.672 45.833 78.382C46.123 78.092 46.281 77.707 46.28 77.298C46.279 76.455 45.591 75.77 44.748 75.77Z" fill="#F586C8"/>
<path d="M86.313 32.734H84.455V30.876C84.455 30.6 84.231 30.376 83.955 30.376C83.679 30.376 83.455 30.6 83.455 30.876V32.734H81.596C81.32 32.734 81.096 32.958 81.096 33.234C81.096 33.51 81.32 33.734 81.596 33.734H83.455V35.592C83.455 35.868 83.679 36.092 83.955 36.092C84.231 36.092 84.455 35.868 84.455 35.592V33.734H86.313C86.589 33.734 86.813 33.51 86.813 33.234C86.813 32.958 86.589 32.734 86.313 32.734Z" fill="#F586C8"/>
<path d="M99.641 61.684C99.641 51.864 91.607 43.83 81.787 43.83H68.324C58.504 43.83 50.47 51.864 50.47 61.684C50.47 71.504 58.504 79.538 68.324 79.538H75.975C77.113 81.065 78.553 82.734 80.248 84.144C84.756 87.895 91.848 88.229 92.147 88.242C92.168 88.243 92.188 88.243 92.209 88.243C92.809 88.243 93.355 87.885 93.59 87.328C93.834 86.753 93.695 86.086 93.242 85.655C93.202 85.617 89.686 82.228 88.945 78.02C95.225 75.247 99.641 68.96 99.641 61.684ZM88.26 75.033C87.486 75.41 86.678 75.724 85.837 75.963C85.828 76.021 85.815 76.078 85.813 76.138C85.78 77.123 85.893 78.075 86.09 78.989C86.569 81.217 87.598 83.196 88.615 84.711C86.56 84.249 84.041 83.398 82.168 81.838C81.32 81.133 80.542 80.342 79.836 79.538C78.933 78.51 78.152 77.462 77.527 76.538H73.965H68.324C60.134 76.538 53.47 69.874 53.47 61.684C53.47 53.494 60.133 46.83 68.324 46.83H81.788C89.978 46.83 96.642 53.493 96.642 61.684C96.641 67.552 93.212 72.621 88.26 75.033Z" fill="#F586C8"/>
<path d="M41.133 53.071H37.511C36.839 54.026 36.06 55.05 35.185 56.071C34.176 57.247 33.045 58.413 31.806 59.443C28.931 61.837 24.918 62.988 22.011 63.535C23.504 61.502 25.209 58.6 25.926 55.26C26.135 54.285 26.256 53.273 26.266 52.235C25.266 51.941 24.303 51.565 23.373 51.128C16.435 47.869 11.609 40.833 11.609 32.674C11.609 21.427 20.759 12.276 32.007 12.276H49.651C60.898 12.276 70.049 21.426 70.049 32.674C70.049 35.574 69.431 38.33 68.335 40.83H71.57C72.524 38.287 73.049 35.539 73.049 32.674C73.049 19.805 62.52 9.276 49.651 9.276H32.006C19.137 9.276 8.608 19.805 8.608 32.674C8.608 42.378 14.597 50.749 23.06 54.28C22.009 59.879 17.368 64.376 17.315 64.428C16.863 64.859 16.725 65.526 16.969 66.1C17.205 66.656 17.749 67.014 18.349 67.014C18.37 67.014 18.39 67.014 18.411 67.013C18.798 66.996 27.938 66.568 33.726 61.75C35.813 60.013 37.606 57.969 39.045 56.071H48.259C48.549 55.036 48.915 54.035 49.354 53.071H41.133V53.071Z" fill="#F586C8"/>
<path d="M57.153 40.173C57.9814 40.173 58.653 39.5014 58.653 38.673C58.653 37.8446 57.9814 37.173 57.153 37.173C56.3246 37.173 55.653 37.8446 55.653 38.673C55.653 39.5014 56.3246 40.173 57.153 40.173Z" fill="#F586C8"/>
<path d="M80.204 59.93H64.306C63.478 59.93 62.806 59.258 62.806 58.43C62.806 57.602 63.478 56.93 64.306 56.93H80.203C81.031 56.93 81.703 57.602 81.703 58.43C81.704 59.258 81.032 59.93 80.204 59.93Z" fill="#F586C8"/>
<path d="M69.202 65.93H64.306C63.478 65.93 62.806 65.258 62.806 64.43C62.806 63.602 63.478 62.93 64.306 62.93H69.202C70.03 62.93 70.702 63.602 70.702 64.43C70.702 65.258 70.031 65.93 69.202 65.93Z" fill="#F586C8"/>
<path d="M86.204 59.93C87.0324 59.93 87.704 59.2584 87.704 58.43C87.704 57.6016 87.0324 56.93 86.204 56.93C85.3756 56.93 84.704 57.6016 84.704 58.43C84.704 59.2584 85.3756 59.93 86.204 59.93Z" fill="#F586C8"/>
<path d="M75.202 65.93C76.0304 65.93 76.702 65.2584 76.702 64.43C76.702 63.6016 76.0304 62.93 75.202 62.93C74.3736 62.93 73.702 63.6016 73.702 64.43C73.702 65.2584 74.3736 65.93 75.202 65.93Z" fill="#F586C8"/>
</g>
<defs>
<clipPath id="clip0">
<rect width="108.25" height="97.519" fill="white"/>
</clipPath>
</defs>
</svg>
