<svg width="109" height="98" viewBox="0 0 109 98" fill="none" xmlns="http://www.w3.org/2000/svg">
<g clip-path="url(#clip0)">
<path d="M108.25 0H0V97.519H108.25V0Z" fill="white"/>
<path d="M44.209 35.857C43.72 35.857 43.239 35.617 42.951 35.176C42.499 34.482 42.695 33.553 43.389 33.1C45.397 31.794 47.639 31.785 49.703 33.082C50.404 33.522 50.616 34.448 50.176 35.15C49.735 35.853 48.807 36.061 48.108 35.623C47.019 34.938 46.068 34.935 45.028 35.614C44.774 35.778 44.49 35.857 44.209 35.857Z" fill="#F586C8"/>
<path d="M59.36 35.857C58.871 35.857 58.39 35.617 58.102 35.176C57.65 34.482 57.846 33.553 58.54 33.1C60.548 31.794 62.79 31.785 64.854 33.082C65.555 33.522 65.767 34.448 65.327 35.15C64.886 35.853 63.958 36.061 63.259 35.623C62.17 34.938 61.219 34.935 60.179 35.614C59.926 35.778 59.641 35.857 59.36 35.857Z" fill="#F586C8"/>
<path d="M54.09 52.582C54.053 52.582 54.017 52.581 53.98 52.58C52.677 52.549 51.458 51.954 50.634 50.948C50.109 50.307 50.202 49.362 50.844 48.838C51.485 48.312 52.431 48.407 52.954 49.048C53.227 49.381 53.618 49.57 54.053 49.581C54.532 49.604 54.991 49.386 55.343 48.998C55.899 48.382 56.848 48.337 57.462 48.893C58.076 49.449 58.123 50.397 57.568 51.012C56.662 52.014 55.399 52.582 54.09 52.582Z" fill="#F586C8"/>
<path opacity="0.1" d="M53.981 1.22199C24.46 5.29499 14.308 46.967 38.543 66.471C39.129 66.942 39.677 67.397 40.213 67.845L44.543 66.721V55.784L54.125 59.534L59.731 57.284L57.859 65.534L54.125 71.097L51.481 75.472L50.904 79.571C54.371 85.816 51.755 88.5 62.044 94.659C66.96 97.602 63.117 92.256 66.669 79.471C68.631 72.409 76.195 65.947 79.919 56.721C91.169 28.847 71.659 -1.21801 53.981 1.22199ZM75.46 35.857L72.71 37.722C72.71 37.722 72.793 41.264 72.71 41.847C72.627 42.43 70.585 49.514 70.585 49.514C70.585 49.514 64.252 55.306 64.002 55.472C63.752 55.639 54.71 59.222 54.71 59.222L45.918 55.597L41.251 52.847C41.251 52.847 36.918 47.347 36.876 46.847C36.834 46.347 35.959 44.055 35.959 43.889C35.959 43.722 36.042 38.306 36.042 38.306C36.042 38.306 34.573 37.067 34.323 36.817C34.073 36.567 32.885 35.004 32.885 35.004C32.885 35.004 31.947 32.848 31.697 32.116C31.447 31.384 32.135 29.722 32.541 29.379C32.947 29.035 35.854 26.754 35.854 26.754L37.323 22.691H40.979L55.2 20.034L61.575 15.221C61.575 15.221 64.169 17.096 66.835 18.638C69.502 20.18 71.835 22.471 71.835 22.471L72.293 25.846L72.876 27.554C72.876 27.554 75.459 28.971 75.876 29.429C76.293 29.887 76.793 33.554 76.793 33.554L75.46 35.857Z" fill="#F586C8"/>
<path d="M90.221 72.643C84.413 70.345 79.204 68.772 74.955 67.691C75.251 67.295 75.548 66.9 75.845 66.512C80.662 60.218 84.425 49.916 84.425 38.248C84.425 17.158 70.281 0 54.125 0C37.969 0 23.825 17.158 23.825 38.248C23.825 52.445 30.033 61.191 35.925 67.05C31.293 68.113 25.092 69.849 18.029 72.643C17.258 72.948 16.881 73.82 17.186 74.59C17.418 75.179 17.984 75.539 18.58 75.539C18.764 75.539 18.951 75.505 19.132 75.434C24.316 73.383 29.061 71.913 33.028 70.867C34.384 77.249 41.552 82.314 50.658 83.357C51.204 85.54 52.138 87.581 53.467 89.454C54.514 90.933 55.799 92.297 57.287 93.509C59.304 95.152 63.274 97.519 65.398 97.519C66.516 97.519 67.227 96.679 67.227 96.679L66.961 95.629C64.376 85.417 68.247 77.253 73.058 70.32C77.406 71.377 82.939 72.989 89.117 75.434C89.298 75.505 89.485 75.539 89.669 75.539C90.266 75.539 90.831 75.18 91.064 74.59C91.368 73.82 90.991 72.948 90.221 72.643ZM35.929 70.141C41.372 68.856 44.759 68.484 44.82 68.478L46.164 68.337V57.523C49.805 59.441 53.074 60.57 53.943 60.76L53.941 60.777L54.074 60.794L54.29 60.779V60.776C54.712 60.699 56.146 60.239 58.062 59.434C57.669 63.808 56.014 65.974 54.274 68.25C52.336 70.785 50.337 73.403 50.107 78.65C50.097 78.756 50.09 78.854 50.091 78.932C50.092 78.979 50.097 79.024 50.098 79.071C50.093 79.273 50.084 79.47 50.084 79.68H50.127C50.137 79.879 50.14 80.08 50.156 80.276C42.66 79.199 36.883 75.152 35.929 70.141ZM35.825 35.986C34.245 35.698 33.098 34.332 33.098 32.736V32.142C33.098 30.546 34.244 29.179 35.824 28.892L36.818 28.711L37.705 24.47C48.381 24.853 56.493 22.339 61.842 16.98L70.291 23.297L71.433 28.712L72.425 28.892C74.005 29.179 75.152 30.545 75.152 32.142V32.736C75.152 34.332 74.005 35.699 72.424 35.986L71.193 36.21V43.539C71.193 50.768 57.053 56.973 54.126 57.755C51.197 56.972 37.058 50.766 37.058 43.539V36.21L35.825 35.986ZM63.535 93.881C62.343 93.342 60.756 92.464 59.181 91.182C58.97 91.01 58.772 90.83 58.57 90.651C58.57 90.603 58.574 90.555 58.569 90.506C57.535 80.779 59.935 77.396 62.477 73.814C64.456 71.026 66.501 68.143 67.148 62.632C67.244 61.809 66.655 61.064 65.833 60.967C65.008 60.872 64.265 61.459 64.168 62.282C63.611 67.032 61.872 69.483 60.03 72.077C57.646 75.438 55.195 78.906 55.333 86.831C53.906 84.499 53.155 81.882 53.096 79.032C53.234 74.555 54.823 72.465 56.656 70.069C58.693 67.404 60.987 64.385 61.135 58.016C66.917 55.124 74.191 50.094 74.191 43.536V38.58C76.545 37.636 78.15 35.345 78.15 32.733V32.139C78.15 29.445 76.444 27.095 73.969 26.208L72.99 21.568L61.451 12.94L60.536 13.982C55.66 19.536 47.604 22.04 36.581 21.412L35.292 21.339L34.274 26.209C31.801 27.096 30.096 29.446 30.096 32.139V32.733C30.096 35.346 31.7 37.636 34.054 38.58V43.536C34.054 48.643 38.469 52.826 43.161 55.793V65.665C42.302 65.789 41.054 65.988 39.478 66.292C33.41 60.825 26.822 52.46 26.822 38.245C26.825 18.812 39.623 3 54.125 3C68.627 3 81.425 18.812 81.425 38.248C81.425 49.27 77.887 58.908 73.462 64.689C69.149 70.324 61.337 80.534 63.535 93.881Z" fill="#F586C8"/>
</g>
<defs>
<clipPath id="clip0">
<rect width="108.25" height="97.519" fill="white"/>
</clipPath>
</defs>
</svg>
