<svg width="109" height="98" viewBox="0 0 109 98" fill="none" xmlns="http://www.w3.org/2000/svg">
<g clip-path="url(#clip0)">
<path d="M108.25 0H0V97.519H108.25V0Z" fill="white"/>
<path opacity="0.1" d="M14.314 61.395H94.814V66.978L94.147 70.311L90.73 71.311H82.397H17.23C17.23 71.311 14.647 70.394 14.313 70.144C13.98 69.894 13.146 64.759 13.146 64.759L14.314 61.395Z" fill="#DC2190"/>
<path d="M41.048 34.162H28.151C27.323 34.162 26.651 33.49 26.651 32.662C26.651 31.834 27.323 31.162 28.151 31.162H41.048C41.876 31.162 42.548 31.834 42.548 32.662C42.548 33.49 41.876 34.162 41.048 34.162Z" fill="#F586C8"/>
<path d="M42.47 40.162H37.574C36.746 40.162 36.074 39.49 36.074 38.662C36.074 37.834 36.746 37.162 37.574 37.162H42.47C43.298 37.162 43.97 37.834 43.97 38.662C43.97 39.49 43.299 40.162 42.47 40.162Z" fill="#F586C8"/>
<path opacity="0.1" d="M39.532 21.249H50.314L51.782 27.03L53.032 27.683H69.001L69.564 28.624L66.345 38.468L59.626 38.662H48.407L47.689 35.03L45.845 26.936L40.314 26.655L39.532 21.249Z" fill="#DC2190"/>
<path d="M68.185 38.316L71.049 29.699C71.345 28.845 71.243 28.03 70.755 27.341C70.24 26.614 69.341 26.197 68.288 26.197L53.206 26.193L52.252 22.078C51.92 20.657 50.823 19.774 49.39 19.774H40.435C39.739 19.774 39.145 20.001 38.717 20.43C38.283 20.865 38.057 21.474 38.065 22.258L38.761 26.411C38.832 26.966 39.021 28.438 41.15 28.438H44.636L48.307 43.97C47.339 44.853 46.788 46.079 46.788 47.371C46.788 49.927 48.867 52.007 51.423 52.007C53.466 52.007 55.283 50.629 55.861 48.689H60.362C60.94 50.629 62.758 52.007 64.8 52.007C67.356 52.007 69.436 49.927 69.436 47.371C69.436 44.816 67.356 42.738 64.8 42.738C62.98 42.738 61.317 43.836 60.576 45.497H55.646C54.906 43.835 53.243 42.738 51.422 42.738C51.312 42.738 51.202 42.745 51.094 42.757L50.473 40.13L65.424 40.145C67.305 40.143 67.899 39.106 68.185 38.316ZM49.782 47.372C49.782 46.467 50.518 45.731 51.424 45.731C52.33 45.731 53.067 46.467 53.067 47.372C53.067 48.278 52.331 49.014 51.424 49.014C50.518 49.014 49.782 48.277 49.782 47.372ZM41.158 22.765L49.341 22.766L50.832 29.184L68.067 29.188L65.427 37.154C65.426 37.154 65.424 37.154 65.422 37.154L49.767 37.135L47.004 25.448L41.632 25.436L41.158 22.765ZM63.159 47.372C63.159 46.467 63.895 45.731 64.801 45.731C65.707 45.731 66.443 46.467 66.443 47.372C66.443 48.278 65.707 49.014 64.801 49.014C63.895 49.014 63.159 48.277 63.159 47.372Z" fill="#F586C8"/>
<path d="M91.167 9.145H17.083C14.218 9.145 11.875 11.489 11.875 14.353V67.444C11.875 70.309 14.219 72.652 17.083 72.652H41.958V78.433C38.676 79.037 36.167 81.924 36.166 85.374H29.674C28.846 85.374 28.174 86.046 28.174 86.874C28.174 87.702 28.846 88.374 29.674 88.374H37.281H70.967H78.574C79.402 88.374 80.074 87.702 80.074 86.874C80.074 86.046 79.402 85.374 78.574 85.374H72.082C72.081 81.924 69.573 79.037 66.29 78.433V72.652H91.165C94.03 72.652 96.373 70.308 96.373 67.444V14.353C96.375 11.488 94.031 9.145 91.167 9.145ZM17.083 12.145H91.166C92.384 12.145 93.374 13.136 93.374 14.353V59.895H14.874V14.353C14.875 13.135 15.866 12.145 17.083 12.145ZM69.083 85.374H66.291H41.958H39.166C39.167 83.581 40.343 82.073 41.958 81.535C42.361 81.401 42.783 81.311 43.23 81.311H44.958H63.291H65.019C65.466 81.311 65.888 81.401 66.291 81.535C67.907 82.073 69.083 83.581 69.083 85.374ZM44.958 78.311V72.652H63.291V78.311H44.958ZM91.167 69.652H66.292H63.292H44.958H41.958H17.083C15.865 69.652 14.875 68.661 14.875 67.444V62.895H93.375V67.444C93.375 68.661 92.384 69.652 91.167 69.652Z" fill="#F586C8"/>
</g>
<defs>
<clipPath id="clip0">
<rect width="108.25" height="97.519" fill="white"/>
</clipPath>
</defs>
</svg>
